{
.appVersion = "939";
DisplayStrings = (
"/Ayb-arm"
);
copyright = "Copyright 2011 Google Inc. All Rights Reserved.";
customParameters = (
{
name = license;
value = "Licensed under the Apache License, Version 2.0";
},
{
name = licenseURL;
value = "http://www.apache.org/licenses/LICENSE-2.0";
},
{
name = vendorID;
value = GOOG;
},
{
name = panose;
value = (
0,
0,
0,
0,
0,
0,
0,
0,
0,
0
);
},
{
name = unicodeRanges;
value = (
0,
1,
2,
3,
4,
5,
6,
7,
9,
29,
30,
31,
32,
33,
34,
35,
36,
37,
38,
40,
45,
60,
62,
64,
69
);
},
{
name = codePageRanges;
value = (
1252,
1250,
1251,
1253,
1254,
1257,
1258
);
},
{
name = glyphOrder;
value = (
.notdef,
uni0000,
uni0002,
uni0009,
uni000D,
space,
exclam,
quotedbl,
numbersign,
dollar,
percent,
ampersand,
quotesingle,
parenleft,
parenright,
asterisk,
plus,
comma,
hyphen,
period,
slash,
zero,
one,
two,
three,
four,
five,
six,
seven,
eight,
nine,
colon,
semicolon,
less,
equal,
greater,
question,
at,
A,
B,
C,
D,
E,
F,
G,
H,
I,
J,
K,
L,
M,
N,
O,
P,
Q,
R,
S,
T,
U,
V,
W,
X,
Y,
Z,
bracketleft,
backslash,
bracketright,
asciicircum,
underscore,
grave,
a,
b,
c,
d,
e,
f,
g,
h,
i,
j,
k,
l,
m,
n,
o,
p,
q,
r,
s,
t,
u,
v,
w,
x,
y,
z,
braceleft,
bar,
braceright,
asciitilde,
exclamdown,
cent,
sterling,
currency,
yen,
brokenbar,
section,
dieresis,
copyright,
ordfeminine,
guillemotleft,
logicalnot,
registered,
macron,
degree,
plusminus,
twosuperior,
threesuperior,
acute,
mu,
paragraph,
periodcentered,
cedilla,
onesuperior,
ordmasculine,
guillemotright,
onequarter,
onehalf,
threequarters,
questiondown,
AE,
multiply,
Oslash,
Thorn,
germandbls,
ae,
eth,
divide,
oslash,
thorn,
dcroat,
Hbar,
dotlessi,
kgreenlandic,
Lslash,
lslash,
Eng,
eng,
OE,
oe,
longs,
uni0180,
uni0181,
uni0182,
uni0183,
uni0184,
uni0185,
uni0186,
uni0187,
uni0188,
uni0189,
uni018A,
uni018B,
uni018C,
uni018D,
uni018E,
uni018F,
uni0190,
uni0191,
florin,
uni0193,
uni0194,
uni0195,
uni0197,
uni0198,
uni0199,
uni019A,
uni019B,
uni019C,
uni019D,
Ohorn,
ohorn,
uni01A2,
uni01A3,
uni01A4,

glyphs = (
{
glyphname = .notdef;
lastChange = "2017-04-17 15:01:56 +0000";
layers = (
{
layerId = "E48BBF63-6980-4D0E-B72F-9E9EC78D2D9A";
paths = (
{
closed = 1;
nodes = (
"808 1456 LINE",
"100 1456 LINE",
"100 0 LINE",
"808 0 LINE"
);
},
{
closed = 1;
nodes = (
"452 796 LINE",
"194 1402 LINE",
"709 1402 LINE"
);
},
{
closed = 1;
nodes = (
"754 84 LINE",
"480 728 LINE",
"754 1372 LINE"
);
},
{
closed = 1;
nodes = (
"154 96 LINE",
"154 1360 LINE",
"422 728 LINE"
);
},
{
closed = 1;
nodes = (
"709 54 LINE",
"194 54 LINE",
"452 660 LINE"
);
}
);
width = 908;
}
);
note = .notdef;
},
{
glyphname = exclam;
lastChange = "2017-04-17 15:01:56 +0000";
layers = (
{
layerId = "E48BBF63-6980-4D0E-B72F-9E9EC78D2D9A";
paths = (
{
closed = 1;
nodes = (
"167 401 LINE",
"221 401 LINE",
"221 1456 LINE",
"167 1456 LINE"
);
},
{
closed = 1;
nodes = (
"147 12 OFFCURVE",
"165 -6 OFFCURVE",
"202 -6 CURVE SMOOTH",
"239 -6 OFFCURVE",
"258 12 OFFCURVE",
"258 49 CURVE SMOOTH",
"258 86 OFFCURVE",
"239 105 OFFCURVE",
"202 105 CURVE SMOOTH",
"165 105 OFFCURVE",
"147 86 OFFCURVE",
"147 49 CURVE SMOOTH"
);
}
);
width = 397;
}
);
note = exclam;
unicode = 0021;
},
{
glyphname = quotedbl;
lastChange = "2017-04-17 15:01:56 +0000";
layers = (
{
layerId = "E48BBF63-6980-4D0E-B72F-9E9EC78D2D9A";
paths = (
{
closed = 1;
nodes = (
"155 1439 OFFCURVE",
"153 1301 OFFCURVE",
"150 1122 CURVE",
"200 1122 LINE",
"210 1393 LINE",
"210 1536 LINE",
"155 1536 LINE"
);
},
{
closed = 1;
nodes = (
"357 1390 LINE",
"351 1122 LINE",
"401 1122 LINE",
"411 1393 LINE",
"411 1536 LINE",
"357 1536 LINE"
);
}
);
width = 521;
}
);
leftKerningGroup = quotedbl;
note = quotedbl;
rightKerningGroup = quotedbl;
unicode = 0022;
},
{
glyphname = numbersign;
lastChange = "2017-04-17 15:01:56 +0000";
layers = (
{
layerId = "E48BBF63-6980-4D0E-B72F-9E9EC78D2D9A";
paths = (
{
closed = 1;
nodes = (
"798 410 LINE",
"1092 410 LINE",
"1092 462 LINE",
"807 462 LINE",
"903 986 LINE",
"1167 986 LINE",
"1167 1040 LINE",
"913 1040 LINE",
"989 1456 LINE",
"933 1456 LINE",
"857 1040 LINE",
"493 1040 LINE",
"568 1456 LINE",
"512 1456 LINE",
"437 1040 LINE",
"127 1040 LINE",
"127 986 LINE",
"427 986 LINE",
"332 462 LINE",
"51 462 LINE",
"51 410 LINE",
"322 410 LINE",
"248 0 LINE",
"304 0 LINE",
"378 410 LINE",
"742 410 LINE",
"667 0 LINE",
"723 0 LINE"
);
},
{
closed = 1;
nodes = (
"847 986 LINE",
"751 462 LINE",
"388 462 LINE",
"483 986 LINE"
);
}
);
width = 1121;
}
);
note = numbersign;
unicode = 0023;
},
{
glyphname = dollar;
lastChange = "2017-04-17 15:01:56 +0000";
layers = (
{
layerId = "E48BBF63-6980-4D0E-B72F-9E9EC78D2D9A";
paths = (
{
closed = 1;
nodes = (
"1001 579 OFFCURVE",
"862 662 OFFCURVE",
"571 762 CURVE SMOOTH",
"280 861 OFFCURVE",
"222 952 OFFCURVE",
"222 1112 CURVE SMOOTH",
"222 1269 OFFCURVE",
"334 1424 OFFCURVE",
"579 1424 CURVE SMOOTH",
"812 1424 OFFCURVE",
"939 1262 OFFCURVE",
"939 1047 CURVE",
"993 1047 LINE",
"993 1314 OFFCURVE",
"849 1465 OFFCURVE",
"609 1476 CURVE",
"609 1663 LINE",
"554 1663 LINE",
"554 1477 LINE",
"318 1466 OFFCURVE",
"168 1323 OFFCURVE",
"168 1110 CURVE SMOOTH",
"168 889 OFFCURVE",
"284 803 OFFCURVE",
"564 707 CURVE SMOOTH",
"843 610 OFFCURVE",
"947 525 OFFCURVE",
"947 344 CURVE SMOOTH",
"947 183 OFFCURVE",
"813 32 OFFCURVE",
"586 32 CURVE SMOOTH",
"523 32 OFFCURVE",
"459 43 OFFCURVE",
"396 66 CURVE SMOOTH",
"269 111 OFFCURVE",
"175 216 OFFCURVE",
"175 409 CURVE",
"121 409 LINE",
"121 304 OFFCURVE",
"143 221 OFFCURVE",
"186 159 CURVE SMOOTH",
"273 35 OFFCURVE",
"417 -16 OFFCURVE",
"565 -21 CURVE",
"565 -208 LINE",
"620 -208 LINE",
"620 -20 LINE",
"849 -8 OFFCURVE",
"1001 130 OFFCURVE",
"1001 346 CURVE SMOOTH"
);
}
);
width = 1121;
}
);
note = dollar;
unicode = 0024;
},
{
glyphname = percent;
lastChange = "2017-04-17 15:01:56 +0000";
layers = (
{
layerId = "E48BBF63-6980-4D0E-B72F-9E9EC78D2D9A";
paths = (
{
closed = 1;
nodes = (
"114 936 OFFCURVE",
"223 800 OFFCURVE",
"388 800 CURVE SMOOTH",
"549 800 OFFCURVE",
"657 936 OFFCURVE",
"657 1099 CURVE SMOOTH",
"657 1176 LINE SMOOTH",
"657 1341 OFFCURVE",
"549 1477 OFFCURVE",
"386 1477 CURVE SMOOTH",
"223 1477 OFFCURVE",
"114 1341 OFFCURVE",
"114 1176 CURVE SMOOTH",
"114 1099 LINE SMOOTH"
);
},
{
closed = 1;
nodes = (
"169 1299 OFFCURVE",
"242 1422 OFFCURVE",
"386 1422 CURVE SMOOTH",
"533 1422 OFFCURVE",
"602 1299 OFFCURVE",
"602 1176 CURVE SMOOTH",
"602 1099 LINE SMOOTH",
"602 978 OFFCURVE",
"533 855 OFFCURVE",
"388 855 CURVE SMOOTH",
"239 855 OFFCURVE",
"169 978 OFFCURVE",
"169 1099 CURVE SMOOTH",
"169 1176 LINE SMOOTH"
);
},
{
closed = 1;
nodes = (
"377 162 LINE",
"422 131 LINE",
"1133 1269 LINE",
"1088 1300 LINE"
);
},
{
closed = 1;
nodes = (
"870 115 OFFCURVE",
"979 -21 OFFCURVE",
"1143 -21 CURVE SMOOTH",
"1304 -21 OFFCURVE",
"1413 115 OFFCURVE",
"1413 279 CURVE SMOOTH",
"1413 357 LINE SMOOTH",
"1413 521 OFFCURVE",
"1305 657 OFFCURVE",
"1141 657 CURVE SMOOTH",
"980 657 OFFCURVE",
"870 521 OFFCURVE",
"870 357 CURVE SMOOTH",
"870 279 LINE SMOOTH"
);
},
{
closed = 1;
nodes = (
"925 492 OFFCURVE",
"998 602 OFFCURVE",
"1141 602 CURVE SMOOTH",
"1288 602 OFFCURVE",
"1358 492 OFFCURVE",
"1358 357 CURVE SMOOTH",
"1358 279 LINE SMOOTH",
"1358 156 OFFCURVE",
"1288 34 OFFCURVE",
"1143 34 CURVE SMOOTH",
"994 34 OFFCURVE",
"925 158 OFFCURVE",
"925 279 CURVE SMOOTH",
"925 357 LINE SMOOTH"
);
}
);
width = 1527;
}
);
note = percent;
unicode = 0025;
},
{
glyphname = ampersand;
lastChange = "2017-04-17 15:01:56 +0000";
layers = (
{
layerId = "E48BBF63-6980-4D0E-B72F-9E9EC78D2D9A";
paths = (
{
closed = 1;
nodes = (
"1006 216 LINE",
"1095 335 OFFCURVE",
"1139 474 OFFCURVE",
"1139 632 CURVE",
"1084 632 LINE",
"1084 490 OFFCURVE",
"1046 365 OFFCURVE",
"969 258 CURVE",
"495 797 LINE",
"647 919 LINE SMOOTH",
"724 983 OFFCURVE",
"838 1092 OFFCURVE",
"838 1213 CURVE SMOOTH",
"838 1358 OFFCURVE",
"741 1477 OFFCURVE",
"562 1477 CURVE SMOOTH",
"374 1477 OFFCURVE",
"257 1350 OFFCURVE",
"257 1167 CURVE SMOOTH",
"257 1042 OFFCURVE",
"317 934 OFFCURVE",
"422 803 CURVE",
"371 762 LINE SMOOTH",
"234 646 OFFCURVE",
"115 517 OFFCURVE",
"115 352 CURVE SMOOTH",
"115 124 OFFCURVE",
"280 -20 OFFCURVE",
"549 -20 CURVE SMOOTH",
"722 -20 OFFCURVE",
"861 62 OFFCURVE",
"973 177 CURVE",
"1129 0 LINE",
"1196 0 LINE"
);
},
{
closed = 1;
nodes = (
"312 1306 OFFCURVE",
"399 1423 OFFCURVE",
"562 1423 CURVE SMOOTH",
"706 1423 OFFCURVE",
"782 1324 OFFCURVE",
"782 1213 CURVE SMOOTH",
"782 1132 OFFCURVE",
"732 1051 OFFCURVE",
"632 969 CURVE SMOOTH",
"462 834 LINE",
"362 952 OFFCURVE",
"312 1064 OFFCURVE",
"312 1169 CURVE SMOOTH"
);
},
{
closed = 1;
nodes = (
"169 396 OFFCURVE",
"183 447 OFFCURVE",
"211 506 CURVE SMOOTH",
"239 565 OFFCURVE",
"303 637 OFFCURVE",
"402 723 CURVE",
"454 765 LINE",
"937 217 LINE",
"832 95 OFFCURVE",
"702 34 OFFCURVE",
"549 34 CURVE SMOOTH",
"290 34 OFFCURVE",
"169 187 OFFCURVE",
"169 352 CURVE SMOOTH"
);
}
);
width = 1247;
}
);
note = ampersand;
unicode = 0026;
},
{
glyphname = quotesingle;
lastChange = "2017-04-17 15:01:56 +0000";
layers = (
{
layerId = "E48BBF63-6980-4D0E-B72F-9E9EC78D2D9A";
paths = (
{
closed = 1;
nodes = (
"145 1365 LINE",
"136 1122 LINE",
"186 1122 LINE",
"200 1367 LINE",
"200 1536 LINE",
"145 1536 LINE"
);
}
);
width = 340;
}
);
leftKerningGroup = quotedbl;
note = quotesingle;
rightKerningGroup = quotedbl;
unicode = 0027;
},
{
glyphname = parenleft;
lastChange = "2017-04-17 15:01:56 +0000";
layers = (
{
layerId = "E48BBF63-6980-4D0E-B72F-9E9EC78D2D9A";
paths = (
{
closed = 1;
nodes = (
"148 410 OFFCURVE",
"167 252 OFFCURVE",
"205 113 CURVE SMOOTH",
"281 -166 OFFCURVE",
"413 -377 OFFCURVE",
"562 -470 CURVE",
"581 -427 LINE",
"515 -384 OFFCURVE",
"453 -311 OFFCURVE",
"396 -209 CURVE SMOOTH",
"280 -6 OFFCURVE",
"202 276 OFFCURVE",
"202 564 CURVE SMOOTH",
"202 726 OFFCURVE",
"220 874 OFFCURVE",
"256 1009 CURVE SMOOTH",
"327 1278 OFFCURVE",
"449 1493 OFFCURVE",
"581 1580 CURVE",
"562 1623 LINE",
"487 1576 OFFCURVE",
"419 1500 OFFCURVE",
"356 1395 CURVE SMOOTH",
"231 1186 OFFCURVE",
"148 893 OFFCURVE",
"148 586 CURVE SMOOTH"
);
}
);
width = 607;
}
);
note = parenleft;
unicode = 0028;
},
{
glyphname = parenright;
lastChange = "2017-04-17 15:01:56 +0000";
layers = (
{
layerId = "E48BBF63-6980-4D0E-B72F-9E9EC78D2D9A";
paths = (
{
closed = 1;
nodes = (
"461 733 OFFCURVE",
"442 887 OFFCURVE",
"404 1028 CURVE SMOOTH",
"328 1308 OFFCURVE",
"195 1528 OFFCURVE",
"47 1623 CURVE",
"28 1580 LINE",
"94 1537 OFFCURVE",
"156 1464 OFFCURVE",
"214 1363 CURVE SMOOTH",
"329 1160 OFFCURVE",
"407 878 OFFCURVE",
"407 590 CURVE SMOOTH",
"407 428 OFFCURVE",
"389 280 OFFCURVE",
"354 145 CURVE SMOOTH",
"282 -124 OFFCURVE",
"160 -340 OFFCURVE",
"28 -427 CURVE",
"47 -470 LINE",
"121 -423 OFFCURVE",
"190 -349 OFFCURVE",
"253 -248 CURVE SMOOTH",
"379 -45 OFFCURVE",
"461 242 OFFCURVE",
"461 566 CURVE SMOOTH"
);
}
);
width = 623;
}
);
note = parenright;
unicode = 0029;
},
{
glyphname = asterisk;
lastChange = "2017-04-17 15:01:56 +0000";
layers = (
{
layerId = "E48BBF63-6980-4D0E-B72F-9E9EC78D2D9A";
paths = (
{
closed = 1;
nodes = (
"432 986 LINE",
"674 664 LINE",
"721 697 LINE",
"472 1014 LINE",
"832 1151 LINE",
"812 1204 LINE",
"460 1061 LINE",
"467 1456 LINE",
"411 1456 LINE",
"410 1062 LINE",
"48 1195 LINE",
"30 1141 LINE",
"393 1017 LINE",
"159 693 LINE",
"204 661 LINE"
);
}
);
width = 856;
}
);
note = asterisk;
unicode = 002A;
},
{
glyphname = plus;
lastChange = "2017-04-17 15:01:56 +0000";
layers = (
{
layerId = "E48BBF63-6980-4D0E-B72F-9E9EC78D2D9A";
paths = (
{
closed = 1;
nodes = (
"590 702 LINE",
"590 1206 LINE",
"535 1206 LINE",
"535 702 LINE",
"73 702 LINE",
"73 649 LINE",
"535 649 LINE",
"535 146 LINE",
"590 146 LINE",
"590 649 LINE",
"1071 649 LINE",
"1071 702 LINE"
);
}
);
width = 1151;
}
);
note = plus;
unicode = 002B;
},
{
glyphname = comma;
lastChange = "2017-04-17 15:01:56 +0000";
layers = (
{
layerId = "E48BBF63-6980-4D0E-B72F-9E9EC78D2D9A";
paths = (
{
closed = 1;
nodes = (
"181 25 LINE SMOOTH",
"181 -78 OFFCURVE",
"152 -144 OFFCURVE",
"92 -223 CURVE",
"129 -255 LINE",
"198 -182 OFFCURVE",
"233 -91 OFFCURVE",
"235 18 CURVE SMOOTH",
"235 159 LINE",
"181 159 LINE"
);
}
);
width = 383;
}
);
leftKerningGroup = comma;
note = comma;
rightKerningGroup = comma;
unicode = 002C;
},
{
glyphname = hyphen;
lastChange = "2017-04-17 15:01:56 +0000";
layers = (
{
layerId = "E48BBF63-6980-4D0E-B72F-9E9EC78D2D9A";
paths = (
{
closed = 1;
nodes = (
"61 639 LINE",
"531 639 LINE",
"531 693 LINE",
"61 693 LINE"
);
}
);
width = 607;
}
);
leftKerningGroup = hyphen;
note = hyphen;
unicode = 002D;
},
{
glyphname = period;
lastChange = "2017-04-17 15:01:56 +0000";
layers = (
{
layerId = "E48BBF63-6980-4D0E-B72F-9E9EC78D2D9A";
paths = (
{
closed = 1;
nodes = (
"147 12 OFFCURVE",
"165 -6 OFFCURVE",
"202 -6 CURVE SMOOTH",
"239 -6 OFFCURVE",
"258 12 OFFCURVE",
"258 49 CURVE SMOOTH",
"258 86 OFFCURVE",
"239 105 OFFCURVE",
"202 105 CURVE SMOOTH",
"165 105 OFFCURVE",
"147 86 OFFCURVE",
"147 49 CURVE SMOOTH"
);
}
);
width = 439;
}
);
leftKerningGroup = comma;
note = period;
rightKerningGroup = comma;
unicode = 002E;
},
{
glyphname = slash;
lastChange = "2017-04-17 15:01:56 +0000";
layers = (
{
layerId = "E48BBF63-6980-4D0E-B72F-9E9EC78D2D9A";
paths = (
{
closed = 1;
nodes = (
"42 -125 LINE",
"101 -125 LINE",
"709 1456 LINE",
"650 1456 LINE"
);
}
);
width = 782;
}
);
note = slash;
unicode = 002F;
},
{
glyphname = zero;
lastChange = "2017-04-17 15:01:56 +0000";
layers = (
{
layerId = "E48BBF63-6980-4D0E-B72F-9E9EC78D2D9A";
paths = (
{
closed = 1;
nodes = (
"996 1242 OFFCURVE",
"841 1477 OFFCURVE",
"560 1477 CURVE SMOOTH",
"280 1477 OFFCURVE",
"125 1242 OFFCURVE",
"125 862 CURVE SMOOTH",
"125 594 LINE SMOOTH",
"125 214 OFFCURVE",
"283 -20 OFFCURVE",
"562 -20 CURVE SMOOTH",
"845 -20 OFFCURVE",
"996 214 OFFCURVE",
"996 594 CURVE SMOOTH",
"996 862 LINE SMOOTH"
);
},
{
closed = 1;
nodes = (
"942 268 OFFCURVE",
"821 34 OFFCURVE",
"562 34 CURVE SMOOTH",
"305 34 OFFCURVE",
"179 268 OFFCURVE",
"179 596 CURVE SMOOTH",
"179 862 LINE SMOOTH",
"179 1195 OFFCURVE",
"303 1423 OFFCURVE",
"560 1423 CURVE SMOOTH",
"819 1423 OFFCURVE",
"942 1195 OFFCURVE",
"942 862 CURVE SMOOTH",
"942 596 LINE SMOOTH"
);
}
);
width = 1121;
}
);
note = zero;
unicode = 0030;
},
{
glyphname = one;
lastChange = "2017-04-17 15:01:56 +0000";
layers = (
{
layerId = "E48BBF63-6980-4D0E-B72F-9E9EC78D2D9A";
paths = (
{
closed = 1;
nodes = (
"187 1290 LINE",
"187 1231 LINE",
"605 1388 LINE",
"605 0 LINE",
"659 0 LINE",
"659 1460 LINE",
"648 1460 LINE"
);
}
);
width = 1121;
}
);
note = one;
unicode = 0031;
},
{
glyphname = two;
lastChange = "2017-04-17 15:01:56 +0000";
layers = (
{
layerId = "E48BBF63-6980-4D0E-B72F-9E9EC78D2D9A";
paths = (
{
closed = 1;
nodes = (
"639 538 LINE SMOOTH",
"794 718 OFFCURVE",
"946 905 OFFCURVE",
"946 1085 CURVE SMOOTH",
"946 1340 OFFCURVE",
"787 1476 OFFCURVE",
"536 1476 CURVE SMOOTH",
"288 1476 OFFCURVE",
"117 1281 OFFCURVE",
"117 1045 CURVE",
"171 1045 LINE",
"171 1261 OFFCURVE",
"327 1422 OFFCURVE",
"536 1422 CURVE SMOOTH",
"769 1422 OFFCURVE",
"891 1292 OFFCURVE",
"891 1085 CURVE SMOOTH",
"891 971 OFFCURVE",
"812 820 OFFCURVE",
"655 633 CURVE SMOOTH",
"153 54 LINE",
"153 0 LINE",
"1024 0 LINE",
"1024 54 LINE",
"224 54 LINE"
);
}
);
width = 1121;
}
);
note = two;
unicode = 0032;
},
{
glyphname = three;
lastChange = "2017-04-17 15:01:56 +0000";
layers = (
{
layerId = "E48BBF63-6980-4D0E-B72F-9E9EC78D2D9A";
paths = (
{
closed = 1;
nodes = (
"776 714 OFFCURVE",
"953 619 OFFCURVE",
"953 382 CURVE SMOOTH",
"953 165 OFFCURVE",
"814 34 OFFCURVE",
"573 34 CURVE SMOOTH",
"336 34 OFFCURVE",
"157 189 OFFCURVE",
"157 405 CURVE",
"103 405 LINE",
"103 307 OFFCURVE",
"127 227 OFFCURVE",
"175 164 CURVE SMOOTH",
"271 39 OFFCURVE",
"428 -20 OFFCURVE",
"573 -20 CURVE SMOOTH",
"824 -20 OFFCURVE",
"1007 127 OFFCURVE",
"1007 386 CURVE SMOOTH",
"1007 577 OFFCURVE",
"894 701 OFFCURVE",
"703 745 CURVE",
"872 797 OFFCURVE",
"975 928 OFFCURVE",
"975 1081 CURVE SMOOTH",
"975 1326 OFFCURVE",
"815 1476 OFFCURVE",
"564 1476 CURVE SMOOTH",
"329 1476 OFFCURVE",
"134 1323 OFFCURVE",
"134 1074 CURVE",
"188 1074 LINE",
"188 1290 OFFCURVE",
"353 1422 OFFCURVE",
"564 1422 CURVE SMOOTH",
"812 1422 OFFCURVE",
"921 1268 OFFCURVE",
"921 1085 CURVE SMOOTH",
"921 918 OFFCURVE",
"784 771 OFFCURVE",
"532 770 CURVE SMOOTH",
"417 770 LINE",
"417 714 LINE",
"528 714 LINE SMOOTH"
);
}
);
width = 1121;
}
);
note = three;
unicode = 0033;
},
{
glyphname = four;
lastChange = "2017-04-17 15:01:56 +0000";
layers = (
{
layerId = "E48BBF63-6980-4D0E-B72F-9E9EC78D2D9A";
paths = (
{
closed = 1;
nodes = (
"788 397 LINE",
"788 0 LINE",
"842 0 LINE",
"842 397 LINE",
"1094 397 LINE",
"1094 451 LINE",
"842 451 LINE",
"842 1456 LINE",
"777 1456 LINE",
"82 427 LINE",
"82 397 LINE"
);
},
{
closed = 1;
nodes = (
"788 1392 LINE",
"788 451 LINE",
"166 451 LINE",
"704 1253 LINE"
);
}
);
width = 1121;
}
);
note = four;
unicode = 0034;
},
{
glyphname = five;
lastChange = "2017-04-17 15:01:56 +0000";
layers = (
{
layerId = "E48BBF63-6980-4D0E-B72F-9E9EC78D2D9A";
paths = (
{
closed = 1;
nodes = (
"348 817 OFFCURVE",
"442 862 OFFCURVE",
"595 862 CURVE SMOOTH",
"836 862 OFFCURVE",
"969 690 OFFCURVE",
"969 462 CURVE SMOOTH",
"969 177 OFFCURVE",
"851 34 OFFCURVE",
"614 34 CURVE SMOOTH",
"384 34 OFFCURVE",
"258 150 OFFCURVE",
"237 383 CURVE",
"182 383 LINE",
"203 110 OFFCURVE",
"386 -20 OFFCURVE",
"614 -20 CURVE SMOOTH",
"907 -20 OFFCURVE",
"1024 185 OFFCURVE",
"1024 464 CURVE SMOOTH",
"1024 748 OFFCURVE",
"845 916 OFFCURVE",
"594 916 CURVE SMOOTH",
"458 916 OFFCURVE",
"337 860 OFFCURVE",
"289 819 CURVE",
"348 1403 LINE",
"1009 1403 LINE",
"1009 1456 LINE",
"299 1456 LINE",
"231 762 LINE",
"272 746 LINE"
);
}
);
width = 1121;
}
);
note = five;
unicode = 0035;
},
{
glyphname = six;
lastChange = "2017-04-17 15:01:56 +0000";
layers = (
{
layerId = "E48BBF63-6980-4D0E-B72F-9E9EC78D2D9A";
paths = (
{
closed = 1;
nodes = (
"1013 755 OFFCURVE",
"860 957 OFFCURVE",
"592 957 CURVE SMOOTH",
"405 957 OFFCURVE",
"256 861 OFFCURVE",
"183 733 CURVE",
"196 1064 OFFCURVE",
"331 1422 OFFCURVE",
"840 1422 CURVE",
"840 1476 LINE",
"821 1476 LINE SMOOTH",
"695 1476 OFFCURVE",
"580 1448 OFFCURVE",
"475 1393 CURVE SMOOTH",
"265 1282 OFFCURVE",
"128 1047 OFFCURVE",
"128 660 CURVE SMOOTH",
"128 492 LINE SMOOTH",
"128 177 OFFCURVE",
"333 -20 OFFCURVE",
"602 -20 CURVE SMOOTH",
"845 -20 OFFCURVE",
"1013 197 OFFCURVE",
"1013 480 CURVE SMOOTH"
);
},
{
closed = 1;
nodes = (
"221 782 OFFCURVE",
"398 903 OFFCURVE",
"585 903 CURVE SMOOTH",
"836 903 OFFCURVE",
"959 716 OFFCURVE",
"959 480 CURVE SMOOTH",
"959 244 OFFCURVE",
"821 33 OFFCURVE",
"602 33 CURVE SMOOTH",
"357 33 OFFCURVE",
"182 214 OFFCURVE",
"182 493 CURVE SMOOTH",
"182 622 LINE"
);
}
);
width = 1121;
}
);
note = six;
unicode = 0036;
},
{
glyphname = seven;
lastChange = "2017-04-17 15:01:56 +0000";
layers = (
{
layerId = "E48BBF63-6980-4D0E-B72F-9E9EC78D2D9A";
paths = (
{
closed = 1;
nodes = (
"77 1402 LINE",
"945 1402 LINE",
"311 0 LINE",
"366 0 LINE",
"1007 1422 LINE",
"1007 1456 LINE",
"77 1456 LINE"
);
}
);
width = 1121;
}
);
note = seven;
unicode = 0037;
},
{
glyphname = eight;
lastChange = "2017-04-17 15:01:56 +0000";
layers = (
{
layerId = "E48BBF63-6980-4D0E-B72F-9E9EC78D2D9A";
paths = (
{
closed = 1;
nodes = (
"1027 560 OFFCURVE",
"896 697 OFFCURVE",
"715 745 CURVE",
"874 794 OFFCURVE",
"985 921 OFFCURVE",
"985 1086 CURVE SMOOTH",
"985 1339 OFFCURVE",
"795 1476 OFFCURVE",
"560 1476 CURVE SMOOTH",
"321 1476 OFFCURVE",
"140 1339 OFFCURVE",
"140 1086 CURVE SMOOTH",
"140 921 OFFCURVE",
"248 794 OFFCURVE",
"408 745 CURVE",
"225 697 OFFCURVE",
"99 560 OFFCURVE",
"99 379 CURVE SMOOTH",
"99 114 OFFCURVE",
"301 -20 OFFCURVE",
"564 -20 CURVE SMOOTH",
"821 -20 OFFCURVE",
"1027 114 OFFCURVE",
"1027 379 CURVE SMOOTH"
);
},
{
closed = 1;
nodes = (
"931 894 OFFCURVE",
"767 772 OFFCURVE",
"562 772 CURVE SMOOTH",
"351 772 OFFCURVE",
"194 894 OFFCURVE",
"194 1091 CURVE SMOOTH",
"194 1298 OFFCURVE",
"351 1422 OFFCURVE",
"560 1422 CURVE SMOOTH",
"765 1422 OFFCURVE",
"931 1284 OFFCURVE",
"931 1091 CURVE SMOOTH"
);
},
{
closed = 1;
nodes = (
"972 154 OFFCURVE",
"791 34 OFFCURVE",
"564 34 CURVE SMOOTH",
"331 34 OFFCURVE",
"153 154 OFFCURVE",
"153 374 CURVE SMOOTH",
"153 585 OFFCURVE",
"331 718 OFFCURVE",
"562 718 CURVE SMOOTH",
"789 718 OFFCURVE",
"972 585 OFFCURVE",
"972 374 CURVE SMOOTH"
);
}
);
width = 1121;
}
);
note = eight;
unicode = 0038;
},
{
glyphname = nine;
lastChange = "2017-04-17 15:01:56 +0000";
layers = (
{
layerId = "E48BBF63-6980-4D0E-B72F-9E9EC78D2D9A";
paths = (
{
closed = 1;
nodes = (
"989 1290 OFFCURVE",
"818 1476 OFFCURVE",
"531 1476 CURVE SMOOTH",
"274 1476 OFFCURVE",
"103 1241 OFFCURVE",
"103 958 CURVE SMOOTH",
"103 695 OFFCURVE",
"267 468 OFFCURVE",
"523 468 CURVE SMOOTH",
"710 468 OFFCURVE",
"866 568 OFFCURVE",
"939 724 CURVE",
"939 300 OFFCURVE",
"754 39 OFFCURVE",
"346 34 CURVE SMOOTH",
"300 34 LINE",
"298 -20 LINE",
"342 -20 LINE SMOOTH",
"782 -16 OFFCURVE",
"993 260 OFFCURVE",
"993 740 CURVE SMOOTH",
"993 917 LINE"
);
},
{
closed = 1;
nodes = (
"157 1037 OFFCURVE",
"172 1111 OFFCURVE",
"203 1182 CURVE SMOOTH",
"264 1323 OFFCURVE",
"380 1422 OFFCURVE",
"535 1422 CURVE SMOOTH",
"790 1422 OFFCURVE",
"939 1249 OFFCURVE",
"939 902 CURVE SMOOTH",
"939 841 LINE",
"900 696 OFFCURVE",
"766 522 OFFCURVE",
"523 522 CURVE SMOOTH",
"292 522 OFFCURVE",
"157 734 OFFCURVE",
"157 958 CURVE SMOOTH"
);
}
);
width = 1121;
}
);
note = nine;
unicode = 0039;
},
{
glyphname = colon;
lastChange = "2017-04-17 15:01:56 +0000";
layers = (
{
layerId = "E48BBF63-6980-4D0E-B72F-9E9EC78D2D9A";
paths = (
{
closed = 1;
nodes = (
"119 12 OFFCURVE",
"137 -6 OFFCURVE",
"174 -6 CURVE SMOOTH",
"211 -6 OFFCURVE",
"230 12 OFFCURVE",
"230 49 CURVE SMOOTH",
"230 86 OFFCURVE",
"211 105 OFFCURVE",
"174 105 CURVE SMOOTH",
"137 105 OFFCURVE",
"119 86 OFFCURVE",
"119 49 CURVE SMOOTH"
);
},
{
closed = 1;
nodes = (
"124 974 OFFCURVE",
"142 956 OFFCURVE",
"179 956 CURVE SMOOTH",
"216 956 OFFCURVE",
"235 974 OFFCURVE",
"235 1011 CURVE SMOOTH",
"235 1048 OFFCURVE",
"216 1067 OFFCURVE",
"179 1067 CURVE SMOOTH",
"142 1067 OFFCURVE",
"124 1048 OFFCURVE",
"124 1011 CURVE SMOOTH"
);
}
);
width = 364;
}
);
note = colon;
unicode = 003A;
},
{
glyphname = semicolon;
lastChange = "2017-04-17 15:01:56 +0000";
layers = (
{
layerId = "E48BBF63-6980-4D0E-B72F-9E9EC78D2D9A";
paths = (
{
closed = 1;
nodes = (
"125 974 OFFCURVE",
"143 956 OFFCURVE",
"180 956 CURVE SMOOTH",
"217 956 OFFCURVE",
"236 974 OFFCURVE",
"236 1011 CURVE SMOOTH",
"236 1048 OFFCURVE",
"217 1067 OFFCURVE",
"180 1067 CURVE SMOOTH",
"143 1067 OFFCURVE",
"125 1048 OFFCURVE",
"125 1011 CURVE SMOOTH"
);
},
{
closed = 1;
nodes = (
"169 25 LINE SMOOTH",
"169 -78 OFFCURVE",
"140 -144 OFFCURVE",
"80 -223 CURVE",
"117 -255 LINE",
"186 -182 OFFCURVE",
"221 -91 OFFCURVE",
"223 18 CURVE SMOOTH",
"223 159 LINE",
"169 159 LINE"
);
}
);
width = 364;
}
);
note = semicolon;
unicode = 003B;
},
{
glyphname = less;
lastChange = "2017-04-17 15:01:56 +0000";
layers = (
{
layerId = "E48BBF63-6980-4D0E-B72F-9E9EC78D2D9A";
paths = (
{
closed = 1;
nodes = (
"155 666 LINE",
"919 1011 LINE",
"919 1069 LINE",
"82 691 LINE",
"82 641 LINE",
"919 262 LINE",
"919 321 LINE"
);
}
);
width = 1053;
}
);
note = less;
unicode = 003C;
},
{
glyphname = equal;
lastChange = "2017-04-17 15:01:56 +0000";
layers = (
{
layerId = "E48BBF63-6980-4D0E-B72F-9E9EC78D2D9A";
paths = (
{
closed = 1;
nodes = (
"147 843 LINE",
"981 843 LINE",
"981 897 LINE",
"147 897 LINE"
);
},
{
closed = 1;
nodes = (
"147 436 LINE",
"981 436 LINE",
"981 490 LINE",
"147 490 LINE"
);
}
);
width = 1142;
}
);
note = equal;
unicode = 003D;
},
{
glyphname = greater;
lastChange = "2017-04-17 15:01:56 +0000";
layers = (
{
layerId = "E48BBF63-6980-4D0E-B72F-9E9EC78D2D9A";
paths = (
{
closed = 1;
nodes = (
"873 668 LINE",
"114 324 LINE",
"114 265 LINE",
"950 644 LINE",
"950 694 LINE",
"114 1072 LINE",
"114 1013 LINE"
);
}
);
width = 1053;
}
);
note = greater;
unicode = 003E;
},
{
glyphname = question;
lastChange = "2017-04-17 15:01:56 +0000";
layers = (
{
layerId = "E48BBF63-6980-4D0E-B72F-9E9EC78D2D9A";
paths = (
{
closed = 1;
nodes = (
"449 530 OFFCURVE",
"493 629 OFFCURVE",
"581 698 CURVE",
"732 833 OFFCURVE",
"801 934 OFFCURVE",
"801 1110 CURVE SMOOTH",
"801 1318 OFFCURVE",
"681 1476 OFFCURVE",
"458 1476 CURVE SMOOTH",
"262 1476 OFFCURVE",
"96 1345 OFFCURVE",
"93 1116 CURVE",
"147 1116 LINE",
"151 1296 OFFCURVE",
"265 1423 OFFCURVE",
"458 1423 CURVE SMOOTH",
"651 1423 OFFCURVE",
"747 1291 OFFCURVE",
"747 1112 CURVE SMOOTH",
"747 929 OFFCURVE",
"674 857 OFFCURVE",
"553 740 CURVE SMOOTH",
"434 632 OFFCURVE",
"396 548 OFFCURVE",
"395 400 CURVE",
"449 400 LINE"
);
},
{
closed = 1;
nodes = (
"371 12 OFFCURVE",
"389 -6 OFFCURVE",
"426 -6 CURVE SMOOTH",
"463 -6 OFFCURVE",
"482 12 OFFCURVE",
"482 49 CURVE SMOOTH",
"482 86 OFFCURVE",
"463 105 OFFCURVE",
"426 105 CURVE SMOOTH",
"389 105 OFFCURVE",
"371 86 OFFCURVE",
"371 49 CURVE SMOOTH"
);
}
);
width = 893;
}
);
note = question;
unicode = 003F;
},
{
glyphname = at;
lastChange = "2017-04-17 15:01:56 +0000";
layers = (
{
layerId = "E48BBF63-6980-4D0E-B72F-9E9EC78D2D9A";
paths = (
{
closed = 1;
nodes = (
"1149 -371 OFFCURVE",
"1039 -398 OFFCURVE",
"910 -398 CURVE SMOOTH",
"585 -398 OFFCURVE",
"361 -232 OFFCURVE",
"253 32 CURVE SMOOTH",
"145 296 OFFCURVE",
"161 683 OFFCURVE",
"309 945 CURVE SMOOTH",
"456 1207 OFFCURVE",
"704 1354 OFFCURVE",
"997 1354 CURVE SMOOTH",
"1526 1354 OFFCURVE",
"1737 1034 OFFCURVE",
"1710 523 CURVE SMOOTH",
"1698 243 OFFCURVE",
"1595 35 OFFCURVE",
"1400 35 CURVE SMOOTH",
"1379 35 OFFCURVE",
"1352 40 OFFCURVE",
"1321 51 CURVE SMOOTH",
"1257 72 OFFCURVE",
"1203 138 OFFCURVE",
"1216 293 CURVE SMOOTH",
"1265 878 LINE",
"1200 935 OFFCURVE",
"1140 988 OFFCURVE",
"1015 988 CURVE SMOOTH",
"788 988 OFFCURVE",
"609 773 OFFCURVE",
"578 436 CURVE SMOOTH",
"554 161 OFFCURVE",
"646 -20 OFFCURVE",
"829 -20 CURVE SMOOTH",
"977 -20 OFFCURVE",
"1088 57 OFFCURVE",
"1162 210 CURVE",
"1177 67 OFFCURVE",
"1264 -20 OFFCURVE",
"1397 -20 CURVE SMOOTH",
"1480 -20 OFFCURVE",
"1549 8 OFFCURVE",
"1602 63 CURVE SMOOTH",
"1709 173 OFFCURVE",
"1760 352 OFFCURVE",
"1767 523 CURVE SMOOTH",
"1790 1067 OFFCURVE",
"1552 1411 OFFCURVE",
"1001 1411 CURVE SMOOTH",
"497 1411 OFFCURVE",
"154 1049 OFFCURVE",
"129 478 CURVE SMOOTH",
"105 -95 OFFCURVE",
"399 -453 OFFCURVE",
"906 -453 CURVE SMOOTH",
"1023 -453 OFFCURVE",
"1179 -421 OFFCURVE",
"1264 -364 CURVE",
"1240 -318 LINE"
);
},
{
closed = 1;
nodes = (
"669 780 OFFCURVE",
"837 933 OFFCURVE",
"1012 933 CURVE SMOOTH",
"1097 933 OFFCURVE",
"1162 906 OFFCURVE",
"1208 851 CURVE",
"1165 344 LINE",
"1081 85 OFFCURVE",
"950 34 OFFCURVE",
"827 34 CURVE SMOOTH",
"671 34 OFFCURVE",
"608 213 OFFCURVE",
"632 436 CURVE SMOOTH"
);
}
);
width = 1902;
}
);
note = at;
unicode = 0040;
},
{
glyphname = A;
lastChange = "2017-04-17 15:01:56 +0000";
layers = (
{
layerId = "E48BBF63-6980-4D0E-B72F-9E9EC78D2D9A";
paths = (
{
closed = 1;
nodes = (
"254 435 LINE",
"968 435 LINE",
"1130 0 LINE",
"1189 0 LINE",
"644 1456 LINE",
"578 1456 LINE",
"33 0 LINE",
"92 0 LINE"
);
},
{
closed = 1;
nodes = (
"948 489 LINE",
"274 489 LINE",
"611 1391 LINE"
);
}
);
width = 1223;
}
);
leftKerningGroup = A;
note = A;
rightKerningGroup = A;
unicode = 0041;
},
{
glyphname = B;
lastChange = "2017-04-17 15:01:56 +0000";
layers = (
{
layerId = "E48BBF63-6980-4D0E-B72F-9E9EC78D2D9A";
paths = (
{
closed = 1;
nodes = (
"1125 578 OFFCURVE",
"986 730 OFFCURVE",
"803 754 CURVE",
"968 785 OFFCURVE",
"1059 914 OFFCURVE",
"1059 1083 CURVE SMOOTH",
"1059 1340 OFFCURVE",
"878 1456 OFFCURVE",
"583 1456 CURVE SMOOTH",
"200 1456 LINE",
"200 0 LINE",
"675 0 LINE SMOOTH",
"940 0 OFFCURVE",
"1125 142 OFFCURVE",
"1125 401 CURVE SMOOTH"
);
},
{
closed = 1;
nodes = (
"870 1397 OFFCURVE",
"1004 1292 OFFCURVE",
"1004 1087 CURVE SMOOTH",
"1004 878 OFFCURVE",
"870 773 OFFCURVE",
"603 773 CURVE SMOOTH",
"254 773 LINE",
"254 1402 LINE",
"601 1402 LINE SMOOTH"
);
},
{
closed = 1;
nodes = (
"1071 182 OFFCURVE",
"920 54 OFFCURVE",
"675 54 CURVE SMOOTH",
"254 54 LINE",
"254 719 LINE",
"685 719 LINE SMOOTH",
"942 719 OFFCURVE",
"1071 566 OFFCURVE",
"1071 399 CURVE SMOOTH"
);
}
);
width = 1235;
}
);
note = B;
rightKerningGroup = B;
unicode = 0042;
},
{
glyphname = C;
lastChange = "2017-04-17 15:01:56 +0000";
layers = (
{
layerId = "E48BBF63-6980-4D0E-B72F-9E9EC78D2D9A";
paths = (
{
closed = 1;
nodes = (
"1107 161 OFFCURVE",
"942 34 OFFCURVE",
"671 34 CURVE SMOOTH",
"388 34 OFFCURVE",
"198 266 OFFCURVE",
"198 619 CURVE SMOOTH",
"198 839 LINE SMOOTH",
"198 1190 OFFCURVE",
"388 1422 OFFCURVE",
"671 1422 CURVE SMOOTH",
"950 1422 OFFCURVE",
"1105 1285 OFFCURVE",
"1136 1012 CURVE",
"1190 1012 LINE",
"1161 1323 OFFCURVE",
"963 1476 OFFCURVE",
"671 1476 CURVE SMOOTH",
"351 1476 OFFCURVE",
"144 1217 OFFCURVE",
"144 837 CURVE SMOOTH",
"144 619 LINE SMOOTH",
"144 239 OFFCURVE",
"351 -20 OFFCURVE",
"671 -20 CURVE SMOOTH",
"963 -20 OFFCURVE",
"1161 131 OFFCURVE",
"1190 446 CURVE",
"1136 446 LINE"
);
}
);
width = 1327;
}
);
leftKerningGroup = C;
note = C;
rightKerningGroup = C;
unicode = 0043;
},
{
glyphname = D;
lastChange = "2017-04-17 15:01:56 +0000";
layers = (
{
layerId = "E48BBF63-6980-4D0E-B72F-9E9EC78D2D9A";
paths = (
{
closed = 1;
nodes = (
"947 0 OFFCURVE",
"1204 260 OFFCURVE",
"1204 639 CURVE SMOOTH",
"1204 817 LINE SMOOTH",
"1204 1196 OFFCURVE",
"947 1456 OFFCURVE",
"603 1456 CURVE SMOOTH",
"200 1456 LINE",
"200 0 LINE",
"603 0 LINE SMOOTH"
);
},
{
closed = 1;
nodes = (
"916 1402 OFFCURVE",
"1150 1159 OFFCURVE",
"1150 820 CURVE SMOOTH",
"1150 639 LINE SMOOTH",
"1150 296 OFFCURVE",
"916 54 OFFCURVE",
"603 54 CURVE SMOOTH",
"254 54 LINE",
"254 1402 LINE",
"603 1402 LINE SMOOTH"
);
}
);
width = 1340;
}
);
note = D;
rightKerningGroup = D;
unicode = 0044;
},
{
glyphname = E;
lastChange = "2017-04-17 15:01:56 +0000";
layers = (
{
layerId = "E48BBF63-6980-4D0E-B72F-9E9EC78D2D9A";
paths = (
{
closed = 1;
nodes = (
"1086 54 LINE",
"254 54 LINE",
"254 722 LINE",
"984 722 LINE",
"984 776 LINE",
"254 776 LINE",
"254 1402 LINE",
"1086 1402 LINE",
"1086 1456 LINE",
"200 1456 LINE",
"200 0 LINE",
"1086 0 LINE"
);
}
);
width = 1166;
}
);
note = E;
rightKerningGroup = E;
unicode = 0045;
},
{
glyphname = F;
lastChange = "2017-04-17 15:01:56 +0000";
layers = (
{
layerId = "E48BBF63-6980-4D0E-B72F-9E9EC78D2D9A";
paths = (
{
closed = 1;
nodes = (
"254 716 LINE",
"1000 716 LINE",
"1000 772 LINE",
"254 772 LINE",
"254 1402 LINE",
"1102 1402 LINE",
"1102 1456 LINE",
"200 1456 LINE",
"200 0 LINE",
"254 0 LINE"
);
}
);
width = 1172;
}
);
note = F;
unicode = 0046;
},
{
glyphname = G;
lastChange = "2017-04-17 15:01:56 +0000";
layers = (
{
layerId = "E48BBF63-6980-4D0E-B72F-9E9EC78D2D9A";
paths = (
{
closed = 1;
nodes = (
"727 605 LINE",
"1172 605 LINE",
"1172 181 LINE",
"1127 122 OFFCURVE",
"968 34 OFFCURVE",
"729 34 CURVE SMOOTH",
"421 34 OFFCURVE",
"222 277 OFFCURVE",
"222 620 CURVE SMOOTH",
"222 860 LINE SMOOTH",
"222 1188 OFFCURVE",
"415 1422 OFFCURVE",
"712 1422 CURVE SMOOTH",
"1015 1422 OFFCURVE",
"1141 1251 OFFCURVE",
"1170 1062 CURVE",
"1224 1062 LINE",
"1197 1295 OFFCURVE",
"1027 1476 OFFCURVE",
"712 1476 CURVE SMOOTH",
"391 1476 OFFCURVE",
"168 1225 OFFCURVE",
"168 858 CURVE SMOOTH",
"168 620 LINE SMOOTH",
"168 240 OFFCURVE",
"397 -20 OFFCURVE",
"729 -20 CURVE SMOOTH",
"871 -20 OFFCURVE",
"984 1 OFFCURVE",
"1067 43 CURVE SMOOTH",
"1150 85 OFFCURVE",
"1203 123 OFFCURVE",
"1226 156 CURVE",
"1226 660 LINE",
"727 660 LINE"
);
}
);
width = 1406;
}
);
leftKerningGroup = C;
note = G;
unicode = 0047;
},
{
glyphname = H;
lastChange = "2017-04-17 15:01:56 +0000";
layers = (
{
layerId = "E48BBF63-6980-4D0E-B72F-9E9EC78D2D9A";
paths = (
{
closed = 1;
nodes = (
"1238 1456 LINE",
"1184 1456 LINE",
"1184 776 LINE",
"254 776 LINE",
"254 1456 LINE",
"200 1456 LINE",
"200 0 LINE",
"254 0 LINE",
"254 722 LINE",
"1184 722 LINE",
"1184 0 LINE",
"1238 0 LINE"
);
}
);
width = 1438;
}
);
note = H;
rightKerningGroup = H;
unicode = 0048;
},
{
glyphname = I;
lastChange = "2017-04-17 15:01:56 +0000";
layers = (
{
layerId = "E48BBF63-6980-4D0E-B72F-9E9EC78D2D9A";
paths = (
{
closed = 1;
nodes = (
"240 0 LINE",
"294 0 LINE",
"294 1456 LINE",
"240 1456 LINE"
);
}
);
width = 534;
}
);
note = I;
rightKerningGroup = H;
unicode = 0049;
},
{
glyphname = J;
lastChange = "2017-04-17 15:01:56 +0000";
layers = (
{
layerId = "E48BBF63-6980-4D0E-B72F-9E9EC78D2D9A";
paths = (
{
closed = 1;
nodes = (
"876 173 OFFCURVE",
"710 34 OFFCURVE",
"510 34 CURVE SMOOTH",
"266 34 OFFCURVE",
"144 156 OFFCURVE",
"144 401 CURVE",
"90 401 LINE",
"90 116 OFFCURVE",
"253 -20 OFFCURVE",
"510 -20 CURVE SMOOTH",
"747 -20 OFFCURVE",
"930 143 OFFCURVE",
"930 442 CURVE SMOOTH",
"930 1456 LINE",
"876 1456 LINE",
"876 442 LINE SMOOTH"
);
}
);
width = 1125;
}
);
leftKerningGroup = J;
note = J;
rightKerningGroup = J;
unicode = 004A;
},
{
glyphname = K;
lastChange = "2017-04-17 15:01:56 +0000";
layers = (
{
layerId = "E48BBF63-6980-4D0E-B72F-9E9EC78D2D9A";
paths = (
{
closed = 1;
nodes = (
"528 804 LINE",
"1176 1456 LINE",
"1098 1456 LINE",
"494 849 LINE",
"254 615 LINE",
"254 1456 LINE",
"200 1456 LINE",
"200 0 LINE",
"254 0 LINE",
"254 551 LINE",
"487 766 LINE",
"1156 0 LINE",
"1226 0 LINE"
);
}
);
width = 1300;
}
);
note = K;
rightKerningGroup = K;
unicode = 004B;
},
{
glyphname = L;
lastChange = "2017-04-17 15:01:56 +0000";
layers = (
{
layerId = "E48BBF63-6980-4D0E-B72F-9E9EC78D2D9A";
paths = (
{
closed = 1;
nodes = (
"255 1456 LINE",
"200 1456 LINE",
"200 0 LINE",
"1002 0 LINE",
"1002 54 LINE",
"255 54 LINE"
);
}
);
width = 1057;
}
);
note = L;
rightKerningGroup = L;
unicode = 004C;
},
{
glyphname = M;
lastChange = "2017-04-17 15:01:56 +0000";
layers = (
{
layerId = "E48BBF63-6980-4D0E-B72F-9E9EC78D2D9A";
paths = (
{
closed = 1;
nodes = (
"200 1456 LINE",
"200 0 LINE",
"254 0 LINE",
"254 1369 LINE",
"855 0 LINE",
"898 0 LINE",
"1502 1376 LINE",
"1502 0 LINE",
"1556 0 LINE",
"1556 1456 LINE",
"1477 1456 LINE",
"876 79 LINE",
"277 1456 LINE"
);
}
);
width = 1756;
}
);
note = M;
rightKerningGroup = H;
unicode = 004D;
},
{
glyphname = N;
lastChange = "2017-04-17 15:01:56 +0000";
layers = (
{
layerId = "E48BBF63-6980-4D0E-B72F-9E9EC78D2D9A";
paths = (
{
closed = 1;
nodes = (
"1195 95 LINE",
"255 1456 LINE",
"200 1456 LINE",
"200 0 LINE",
"255 0 LINE",
"255 1364 LINE",
"1195 0 LINE",
"1249 0 LINE",
"1249 1456 LINE",
"1195 1456 LINE"
);
}
);
width = 1449;
}
);
note = N;
rightKerningGroup = H;
unicode = 004E;
},
{
glyphname = O;
lastChange = "2017-04-17 15:01:56 +0000";
layers = (
{
layerId = "E48BBF63-6980-4D0E-B72F-9E9EC78D2D9A";
paths = (
{
closed = 1;
nodes = (
"1231 1217 OFFCURVE",
"1016 1476 OFFCURVE",
"681 1476 CURVE SMOOTH",
"346 1476 OFFCURVE",
"133 1217 OFFCURVE",
"133 837 CURVE SMOOTH",
"133 619 LINE SMOOTH",
"133 239 OFFCURVE",
"348 -20 OFFCURVE",
"683 -20 CURVE SMOOTH",
"1018 -20 OFFCURVE",
"1231 239 OFFCURVE",
"1231 619 CURVE SMOOTH",
"1231 837 LINE SMOOTH"
);
},
{
closed = 1;
nodes = (
"1177 276 OFFCURVE",
"996 34 OFFCURVE",
"683 34 CURVE SMOOTH",
"371 34 OFFCURVE",
"188 276 OFFCURVE",
"188 619 CURVE SMOOTH",
"188 839 LINE SMOOTH",
"188 1180 OFFCURVE",
"369 1422 OFFCURVE",
"681 1422 CURVE SMOOTH",
"994 1422 OFFCURVE",
"1177 1180 OFFCURVE",
"1177 839 CURVE SMOOTH",
"1177 619 LINE SMOOTH"
);
}
);
width = 1364;
}
);
leftKerningGroup = C;
note = O;
rightKerningGroup = D;
unicode = 004F;
},
{
glyphname = P;
lastChange = "2017-04-17 15:01:56 +0000";
layers = (
{
layerId = "E48BBF63-6980-4D0E-B72F-9E9EC78D2D9A";
paths = (
{
closed = 1;
nodes = (
"966 615 OFFCURVE",
"1125 774 OFFCURVE",
"1125 1031 CURVE SMOOTH",
"1125 1287 OFFCURVE",
"966 1456 OFFCURVE",
"655 1456 CURVE SMOOTH",
"200 1456 LINE",
"200 0 LINE",
"254 0 LINE",
"254 615 LINE",
"655 615 LINE SMOOTH"
);
},
{
closed = 1;
nodes = (
"950 1402 OFFCURVE",
"1071 1236 OFFCURVE",
"1071 1029 CURVE SMOOTH",
"1071 830 OFFCURVE",
"950 669 OFFCURVE",
"655 669 CURVE SMOOTH",
"254 669 LINE",
"254 1402 LINE",
"655 1402 LINE SMOOTH"
);
}
);
width = 1230;
}
);
note = P;
rightKerningGroup = P;
unicode = 0050;
},
{
glyphname = Q;
lastChange = "2017-04-17 15:01:56 +0000";
layers = (
{
layerId = "E48BBF63-6980-4D0E-B72F-9E9EC78D2D9A";
paths = (
{
closed = 1;
nodes = (
"1117 128 OFFCURVE",
"1231 340 OFFCURVE",
"1231 619 CURVE SMOOTH",
"1231 837 LINE SMOOTH",
"1231 1217 OFFCURVE",
"1016 1476 OFFCURVE",
"681 1476 CURVE SMOOTH",
"346 1476 OFFCURVE",
"133 1217 OFFCURVE",
"133 837 CURVE SMOOTH",
"133 619 LINE SMOOTH",
"133 239 OFFCURVE",
"348 -20 OFFCURVE",
"683 -20 CURVE SMOOTH",
"749 -20 OFFCURVE",
"811 -10 OFFCURVE",
"869 10 CURVE",
"1152 -263 LINE",
"1191 -228 LINE",
"924 33 LINE"
);
},
{
closed = 1;
nodes = (
"1177 276 OFFCURVE",
"996 34 OFFCURVE",
"683 34 CURVE SMOOTH",
"371 34 OFFCURVE",
"188 276 OFFCURVE",
"188 619 CURVE SMOOTH",
"188 839 LINE SMOOTH",
"188 1180 OFFCURVE",
"369 1422 OFFCURVE",
"681 1422 CURVE SMOOTH",
"994 1422 OFFCURVE",
"1177 1180 OFFCURVE",
"1177 839 CURVE SMOOTH",
"1177 619 LINE SMOOTH"
);
}
);
width = 1364;
}
);
leftKerningGroup = C;
note = Q;
unicode = 0051;
},
{
glyphname = R;
lastChange = "2017-04-17 15:01:56 +0000";
layers = (
{
layerId = "E48BBF63-6980-4D0E-B72F-9E9EC78D2D9A";
paths = (
{
closed = 1;
nodes = (
"1198 14 LINE",
"809 637 LINE",
"992 670 OFFCURVE",
"1137 829 OFFCURVE",
"1137 1036 CURVE SMOOTH",
"1137 1307 OFFCURVE",
"938 1456 OFFCURVE",
"659 1456 CURVE SMOOTH",
"195 1456 LINE",
"195 0 LINE",
"249 0 LINE",
"249 623 LINE",
"754 623 LINE",
"1141 0 LINE",
"1198 0 LINE"
);
},
{
closed = 1;
nodes = (
"916 1402 OFFCURVE",
"1083 1265 OFFCURVE",
"1083 1036 CURVE SMOOTH",
"1083 855 OFFCURVE",
"957 677 OFFCURVE",
"708 677 CURVE SMOOTH",
"249 677 LINE",
"249 1402 LINE",
"659 1402 LINE SMOOTH"
);
}
);
width = 1340;
}
);
note = R;
unicode = 0052;
},
{
glyphname = S;
lastChange = "2017-04-17 15:01:56 +0000";
layers = (
{
layerId = "E48BBF63-6980-4D0E-B72F-9E9EC78D2D9A";
paths = (
{
closed = 1;
nodes = (
"1072 162 OFFCURVE",
"889 34 OFFCURVE",
"633 34 CURVE SMOOTH",
"563 34 OFFCURVE",
"491 45 OFFCURVE",
"416 68 CURVE SMOOTH",
"267 112 OFFCURVE",
"150 218 OFFCURVE",
"150 411 CURVE",
"96 411 LINE",
"96 302 OFFCURVE",
"124 217 OFFCURVE",
"179 154 CURVE SMOOTH",
"289 29 OFFCURVE",
"466 -20 OFFCURVE",
"633 -20 CURVE SMOOTH",
"905 -20 OFFCURVE",
"1127 112 OFFCURVE",
"1127 351 CURVE SMOOTH",
"1127 587 OFFCURVE",
"958 685 OFFCURVE",
"622 775 CURVE SMOOTH",
"286 865 OFFCURVE",
"197 970 OFFCURVE",
"197 1122 CURVE SMOOTH",
"197 1279 OFFCURVE",
"351 1422 OFFCURVE",
"626 1422 CURVE SMOOTH",
"885 1422 OFFCURVE",
"1057 1261 OFFCURVE",
"1057 1046 CURVE",
"1111 1046 LINE",
"1111 1303 OFFCURVE",
"909 1476 OFFCURVE",
"626 1476 CURVE SMOOTH",
"351 1476 OFFCURVE",
"143 1341 OFFCURVE",
"143 1120 CURVE SMOOTH",
"143 893 OFFCURVE",
"303 807 OFFCURVE",
"628 717 CURVE SMOOTH",
"953 627 OFFCURVE",
"1072 532 OFFCURVE",
"1072 349 CURVE SMOOTH"
);
}
);
width = 1211;
}
);
leftKerningGroup = S;
note = S;
unicode = 0053;
},
{
glyphname = T;
lastChange = "2017-04-17 15:01:56 +0000";
layers = (
{
layerId = "E48BBF63-6980-4D0E-B72F-9E9EC78D2D9A";
paths = (
{
closed = 1;
nodes = (
"585 0 LINE",
"639 0 LINE",
"639 1402 LINE",
"1169 1402 LINE",
"1169 1456 LINE",
"55 1456 LINE",
"55 1402 LINE",
"585 1402 LINE"
);
}
);
width = 1224;
}
);
leftKerningGroup = T;
note = T;
rightKerningGroup = T;
unicode = 0054;
},
{
glyphname = U;
lastChange = "2017-04-17 15:01:56 +0000";
layers = (
{
layerId = "E48BBF63-6980-4D0E-B72F-9E9EC78D2D9A";
paths = (
{
closed = 1;
nodes = (
"1126 188 OFFCURVE",
"935 34 OFFCURVE",
"683 34 CURVE SMOOTH",
"431 34 OFFCURVE",
"239 188 OFFCURVE",
"239 469 CURVE SMOOTH",
"239 1456 LINE",
"185 1456 LINE",
"185 469 LINE SMOOTH",
"185 142 OFFCURVE",
"399 -20 OFFCURVE",
"683 -20 CURVE SMOOTH",
"967 -20 OFFCURVE",
"1180 142 OFFCURVE",
"1180 469 CURVE SMOOTH",
"1180 1456 LINE",
"1126 1456 LINE",
"1126 469 LINE SMOOTH"
);
}
);
width = 1365;
}
);
leftKerningGroup = U;
note = U;
rightKerningGroup = J;
unicode = 0055;
},
{
glyphname = V;
lastChange = "2017-04-17 15:01:56 +0000";
layers = (
{
layerId = "E48BBF63-6980-4D0E-B72F-9E9EC78D2D9A";
paths = (
{
closed = 1;
nodes = (
"641 142 LINE",
"612 54 LINE",
"583 142 LINE",
"94 1456 LINE",
"35 1456 LINE",
"579 0 LINE",
"645 0 LINE",
"1189 1456 LINE",
"1130 1456 LINE"
);
}
);
width = 1223;
}
);
leftKerningGroup = V;
note = V;
rightKerningGroup = V;
unicode = 0056;
},
{
glyphname = W;
lastChange = "2017-04-17 15:01:56 +0000";
layers = (
{
layerId = "E48BBF63-6980-4D0E-B72F-9E9EC78D2D9A";
paths = (
{
closed = 1;
nodes = (
"1434 330 LINE",
"1366 90 LINE",
"1301 330 LINE",
"959 1456 LINE",
"899 1456 LINE",
"555 330 LINE",
"489 91 LINE",
"423 330 LINE",
"121 1456 LINE",
"61 1456 LINE",
"454 0 LINE",
"515 0 LINE",
"879 1214 LINE",
"929 1368 LINE",
"979 1214 LINE",
"1340 0 LINE",
"1401 0 LINE",
"1793 1456 LINE",
"1734 1456 LINE"
);
}
);
width = 1855;
}
);
leftKerningGroup = W;
note = W;
rightKerningGroup = W;
unicode = 0057;
},
{
glyphname = X;
lastChange = "2017-04-17 15:01:56 +0000";
layers = (
{
layerId = "E48BBF63-6980-4D0E-B72F-9E9EC78D2D9A";
paths = (
{
closed = 1;
nodes = (
"577 743 LINE",
"54 0 LINE",
"119 0 LINE",
"611 701 LINE",
"1101 0 LINE",
"1168 0 LINE",
"645 743 LINE",
"1149 1456 LINE",
"1081 1456 LINE",
"611 785 LINE",
"141 1456 LINE",
"73 1456 LINE"
);
}
);
width = 1223;
}
);
leftKerningGroup = X;
note = X;
rightKerningGroup = X;
unicode = 0058;
},
{
glyphname = Y;
lastChange = "2017-04-17 15:01:56 +0000";
layers = (
{
layerId = "E48BBF63-6980-4D0E-B72F-9E9EC78D2D9A";
paths = (
{
closed = 1;
nodes = (
"582 553 LINE",
"582 0 LINE",
"636 0 LINE",
"636 553 LINE",
"1185 1456 LINE",
"1119 1456 LINE",
"609 602 LINE",
"105 1456 LINE",
"33 1456 LINE"
);
}
);
width = 1223;
}
);
leftKerningGroup = Y;
note = Y;
rightKerningGroup = Y;
unicode = 0059;
},
{
glyphname = Z;
lastChange = "2017-04-17 15:01:56 +0000";
layers = (
{
layerId = "E48BBF63-6980-4D0E-B72F-9E9EC78D2D9A";
paths = (
{
closed = 1;
nodes = (
"94 44 LINE",
"94 0 LINE",
"1130 0 LINE",
"1130 54 LINE",
"168 54 LINE",
"1098 1418 LINE",
"1098 1456 LINE",
"134 1456 LINE",
"134 1403 LINE",
"1023 1403 LINE"
);
}
);
width = 1224;
}
);
leftKerningGroup = Z;
note = Z;
rightKerningGroup = Z;
unicode = 005A;
},
{
glyphname = bracketleft;
lastChange = "2017-04-17 15:01:56 +0000";
layers = (
{
layerId = "E48BBF63-6980-4D0E-B72F-9E9EC78D2D9A";
paths = (
{
closed = 1;
nodes = (
"181 -312 LINE",
"464 -312 LINE",
"464 -258 LINE",
"235 -258 LINE",
"235 1610 LINE",
"464 1610 LINE",
"464 1664 LINE",
"181 1664 LINE"
);
}
);
width = 439;
}
);
note = bracketleft;
unicode = 005B;
},
{
glyphname = backslash;
lastChange = "2017-04-17 15:01:56 +0000";
layers = (
{
layerId = "E48BBF63-6980-4D0E-B72F-9E9EC78D2D9A";
paths = (
{
closed = 1;
nodes = (
"115 1456 LINE",
"57 1456 LINE",
"665 -125 LINE",
"723 -125 LINE"
);
}
);
width = 774;
}
);
note = backslash;
unicode = 005C;
},
{
glyphname = bracketright;
lastChange = "2017-04-17 15:01:56 +0000";
layers = (
{
layerId = "E48BBF63-6980-4D0E-B72F-9E9EC78D2D9A";
paths = (
{
closed = 1;
nodes = (
"220 -258 LINE",
"-8 -258 LINE",
"-8 -312 LINE",
"275 -312 LINE",
"275 1664 LINE",
"-8 1664 LINE",
"-8 1610 LINE",
"220 1610 LINE"
);
}
);
width = 439;
}
);
note = bracketright;
unicode = 005D;
},
{
glyphname = asciicircum;
lastChange = "2017-04-17 15:01:56 +0000";
layers = (
{
layerId = "E48BBF63-6980-4D0E-B72F-9E9EC78D2D9A";
paths = (
{
closed = 1;
nodes = (
"416 1382 LINE",
"680 729 LINE",
"741 729 LINE",
"442 1456 LINE",
"390 1456 LINE",
"91 729 LINE",
"150 729 LINE"
);
}
);
width = 849;
}
);
note = asciicircum;
unicode = 005E;
},
{
glyphname = underscore;
lastChange = "2017-04-17 15:01:56 +0000";
layers = (
{
layerId = "E48BBF63-6980-4D0E-B72F-9E9EC78D2D9A";
paths = (
{
closed = 1;
nodes = (
"-1 -54 LINE",
"845 -54 LINE",
"845 0 LINE",
"-1 0 LINE"
);
}
);
width = 845;
}
);
note = underscore;
unicode = 005F;
},
{
glyphname = grave;
lastChange = "2017-04-17 15:01:56 +0000";
layers = (
{
layerId = "E48BBF63-6980-4D0E-B72F-9E9EC78D2D9A";
paths = (
{
closed = 1;
nodes = (
"344 1270 LINE",
"403 1270 LINE",
"215 1536 LINE",
"149 1536 LINE"
);
}
);
width = 537;
}
);
note = grave;
unicode = 0060;
},
{
glyphname = a;
lastChange = "2017-04-17 15:01:56 +0000";
layers = (
{
layerId = "E48BBF63-6980-4D0E-B72F-9E9EC78D2D9A";
paths = (
{
closed = 1;
nodes = (
"933 9 LINE",
"914 56 OFFCURVE",
"905 134 OFFCURVE",
"905 242 CURVE SMOOTH",
"905 760 LINE SMOOTH",
"905 988 OFFCURVE",
"746 1102 OFFCURVE",
"521 1102 CURVE SMOOTH",
"288 1102 OFFCURVE",
"121 955 OFFCURVE",
"121 786 CURVE",
"175 784 LINE",
"175 933 OFFCURVE",
"325 1048 OFFCURVE",
"521 1048 CURVE SMOOTH",
"732 1048 OFFCURVE",
"851 942 OFFCURVE",
"851 762 CURVE SMOOTH",
"851 604 LINE",
"592 604 LINE SMOOTH",
"279 604 OFFCURVE",
"92 467 OFFCURVE",
"92 274 CURVE SMOOTH",
"92 102 OFFCURVE",
"224 -20 OFFCURVE",
"425 -20 CURVE SMOOTH",
"640 -20 OFFCURVE",
"779 81 OFFCURVE",
"851 198 CURVE",
"851 113 OFFCURVE",
"858 47 OFFCURVE",
"871 0 CURVE",
"933 0 LINE"
);
},
{
closed = 1;
nodes = (
"261 33 OFFCURVE",
"146 139 OFFCURVE",
"146 270 CURVE SMOOTH",
"146 433 OFFCURVE",
"314 548 OFFCURVE",
"590 549 CURVE SMOOTH",
"851 549 LINE",
"851 292 LINE",
"779 133 OFFCURVE",
"634 33 OFFCURVE",
"425 33 CURVE SMOOTH"
);
}
);
width = 1081;
}
);
leftKerningGroup = a;
note = a;
rightKerningGroup = a;
unicode = 0061;
},
{
glyphname = b;
lastChange = "2017-04-17 15:01:56 +0000";
layers = (
{
layerId = "E48BBF63-6980-4D0E-B72F-9E9EC78D2D9A";
paths = (
{
closed = 1;
nodes = (
"999 894 OFFCURVE",
"848 1102 OFFCURVE",
"591 1102 CURVE SMOOTH",
"415 1102 OFFCURVE",
"293 1015 OFFCURVE",
"224 886 CURVE",
"224 1536 LINE",
"170 1536 LINE",
"170 0 LINE",
"224 0 LINE",
"224 171 LINE",
"292 60 OFFCURVE",
"416 -20 OFFCURVE",
"593 -20 CURVE SMOOTH",
"849 -20 OFFCURVE",
"999 202 OFFCURVE",
"999 531 CURVE SMOOTH",
"999 551 LINE SMOOTH"
);
},
{
closed = 1;
nodes = (
"829 1048 OFFCURVE",
"943 839 OFFCURVE",
"943 552 CURVE SMOOTH",
"943 526 LINE SMOOTH",
"942 241 OFFCURVE",
"829 34 OFFCURVE",
"594 34 CURVE SMOOTH",
"393 34 OFFCURVE",
"273 137 OFFCURVE",
"224 274 CURVE",
"224 770 LINE",
"264 897 OFFCURVE",
"359 1048 OFFCURVE",
"592 1048 CURVE SMOOTH"
);
}
);
width = 1121;
}
);
note = b;
rightKerningGroup = b;
unicode = 0062;
},
{
glyphname = c;
lastChange = "2017-04-17 15:01:56 +0000";
layers = (
{
layerId = "E48BBF63-6980-4D0E-B72F-9E9EC78D2D9A";
paths = (
{
closed = 1;
nodes = (
"272 34 OFFCURVE",
"151 249 OFFCURVE",
"151 520 CURVE SMOOTH",
"151 562 LINE SMOOTH",
"151 831 OFFCURVE",
"272 1048 OFFCURVE",
"537 1048 CURVE SMOOTH",
"714 1048 OFFCURVE",
"875 940 OFFCURVE",
"886 725 CURVE",
"940 725 LINE",
"929 973 OFFCURVE",
"746 1102 OFFCURVE",
"537 1102 CURVE SMOOTH",
"258 1102 OFFCURVE",
"97 879 OFFCURVE",
"97 562 CURVE SMOOTH",
"97 520 LINE SMOOTH",
"97 203 OFFCURVE",
"258 -20 OFFCURVE",
"539 -20 CURVE SMOOTH",
"750 -20 OFFCURVE",
"929 108 OFFCURVE",
"940 328 CURVE",
"886 328 LINE",
"873 121 OFFCURVE",
"708 34 OFFCURVE",
"539 34 CURVE SMOOTH"
);
}
);
width = 1039;
}
);
leftKerningGroup = c;
note = c;
rightKerningGroup = c;
unicode = 0063;
},
{
glyphname = d;
lastChange = "2017-04-17 15:01:56 +0000";
layers = (
{
layerId = "E48BBF63-6980-4D0E-B72F-9E9EC78D2D9A";
paths = (
{
closed = 1;
nodes = (
"951 1536 LINE",
"897 1536 LINE",
"897 883 LINE",
"829 1014 OFFCURVE",
"709 1102 OFFCURVE",
"530 1102 CURVE SMOOTH",
"273 1102 OFFCURVE",
"122 893 OFFCURVE",
"122 552 CURVE SMOOTH",
"122 531 LINE SMOOTH",
"122 202 OFFCURVE",
"272 -20 OFFCURVE",
"528 -20 CURVE SMOOTH",
"707 -20 OFFCURVE",
"830 62 OFFCURVE",
"897 174 CURVE",
"897 0 LINE",
"951 0 LINE"
);
},
{
closed = 1;
nodes = (
"179 841 OFFCURVE",
"292 1048 OFFCURVE",
"529 1048 CURVE SMOOTH",
"758 1048 OFFCURVE",
"856 902 OFFCURVE",
"897 775 CURVE",
"897 269 LINE",
"846 134 OFFCURVE",
"726 34 OFFCURVE",
"527 34 CURVE SMOOTH",
"291 34 OFFCURVE",
"178 243 OFFCURVE",
"178 531 CURVE SMOOTH",
"178 557 LINE SMOOTH"
);
}
);
width = 1121;
}
);
leftKerningGroup = c;
note = d;
unicode = 0064;
},
{
glyphname = e;
lastChange = "2017-04-17 15:01:56 +0000";
layers = (
{
layerId = "E48BBF63-6980-4D0E-B72F-9E9EC78D2D9A";
paths = (
{
closed = 1;
nodes = (
"791 66 OFFCURVE",
"685 33 OFFCURVE",
"561 33 CURVE SMOOTH",
"322 33 OFFCURVE",
"141 249 OFFCURVE",
"141 518 CURVE SMOOTH",
"141 577 LINE",
"952 577 LINE",
"952 640 LINE SMOOTH",
"952 915 OFFCURVE",
"781 1102 OFFCURVE",
"541 1102 CURVE SMOOTH",
"292 1102 OFFCURVE",
"87 878 OFFCURVE",
"87 562 CURVE SMOOTH",
"87 518 LINE SMOOTH",
"87 203 OFFCURVE",
"298 -20 OFFCURVE",
"561 -20 CURVE SMOOTH",
"718 -20 OFFCURVE",
"838 38 OFFCURVE",
"920 155 CURVE",
"882 182 LINE"
);
},
{
closed = 1;
nodes = (
"758 1048 OFFCURVE",
"898 861 OFFCURVE",
"898 644 CURVE SMOOTH",
"898 631 LINE",
"145 631 LINE",
"169 867 OFFCURVE",
"322 1048 OFFCURVE",
"541 1048 CURVE SMOOTH"
);
}
);
width = 1032;
}
);
leftKerningGroup = c;
note = e;
rightKerningGroup = e;
unicode = 0065;
},
{
glyphname = f;
lastChange = "2017-04-17 15:01:56 +0000";
layers = (
{
layerId = "E48BBF63-6980-4D0E-B72F-9E9EC78D2D9A";
paths = (
{
closed = 1;
nodes = (
"308 1082 LINE",
"308 1236 LINE SMOOTH",
"308 1405 OFFCURVE",
"397 1503 OFFCURVE",
"538 1503 CURVE SMOOTH",
"581 1503 OFFCURVE",
"621 1498 OFFCURVE",
"657 1488 CURVE",
"665 1540 LINE",
"630 1551 OFFCURVE",
"587 1557 OFFCURVE",
"537 1557 CURVE SMOOTH",
"362 1557 OFFCURVE",
"255 1444 OFFCURVE",
"254 1240 CURVE SMOOTH",
"254 1082 LINE",
"66 1082 LINE",
"66 1027 LINE",
"254 1027 LINE",
"254 0 LINE",
"308 0 LINE",
"308 1027 LINE",
"594 1027 LINE",
"594 1082 LINE"
);
}
);
width = 645;
}
);
note = f;
unicode = 0066;
},
{
glyphname = g;
lastChange = "2017-04-17 15:01:56 +0000";
layers = (
{
layerId = "E48BBF63-6980-4D0E-B72F-9E9EC78D2D9A";
paths = (
{
closed = 1;
nodes = (
"796 -436 OFFCURVE",
"950 -262 OFFCURVE",
"950 15 CURVE SMOOTH",
"950 1082 LINE",
"895 1082 LINE",
"895 885 LINE",
"827 1014 OFFCURVE",
"706 1102 OFFCURVE",
"529 1102 CURVE SMOOTH",
"272 1102 OFFCURVE",
"121 893 OFFCURVE",
"121 552 CURVE SMOOTH",
"121 531 LINE SMOOTH",
"121 202 OFFCURVE",
"271 -20 OFFCURVE",
"527 -20 CURVE SMOOTH",
"704 -20 OFFCURVE",
"828 61 OFFCURVE",
"895 172 CURVE",
"895 15 LINE SMOOTH",
"895 -228 OFFCURVE",
"774 -383 OFFCURVE",
"539 -383 CURVE SMOOTH",
"404 -383 OFFCURVE",
"309 -325 OFFCURVE",
"225 -218 CURVE",
"187 -254 LINE",
"266 -361 OFFCURVE",
"382 -436 OFFCURVE",
"541 -436 CURVE SMOOTH"
);
},
{
closed = 1;
nodes = (
"177 841 OFFCURVE",
"292 1048 OFFCURVE",
"528 1048 CURVE SMOOTH",
"763 1048 OFFCURVE",
"855 895 OFFCURVE",
"895 767 CURVE",
"895 276 LINE",
"846 139 OFFCURVE",
"729 34 OFFCURVE",
"526 34 CURVE SMOOTH",
"290 34 OFFCURVE",
"176 243 OFFCURVE",
"176 531 CURVE SMOOTH",
"176 557 LINE SMOOTH"
);
}
);
width = 1123;
}
);
leftKerningGroup = c;
note = g;
unicode = 0067;
},
{
glyphname = h;
lastChange = "2017-04-17 15:17:16 +0000";
layers = (
{
layerId = "E48BBF63-6980-4D0E-B72F-9E9EC78D2D9A";
paths = (
{
closed = 1;
nodes = (
"778 1049 OFFCURVE",
"899 976 OFFCURVE",
"900 705 CURVE SMOOTH",
"900 0 LINE",
"954 0 LINE",
"954 705 LINE",
"953 988 OFFCURVE",
"827 1102 OFFCURVE",
"610 1102 CURVE SMOOTH",
"429 1102 OFFCURVE",
"291 983 OFFCURVE",
"226 831 CURVE",
"226 1536 LINE",
"172 1536 LINE",
"172 0 LINE",
"226 0 LINE",
"226 693 LINE",
"237 740 OFFCURVE",
"257 791 OFFCURVE",
"287 847 CURVE SMOOTH",
"346 958 OFFCURVE",
"450 1049 OFFCURVE",
"607 1049 CURVE SMOOTH"
);
}
);
width = 1121;
}
);
note = h;
rightKerningGroup = h;
unicode = 0068;
},
{
glyphname = i;
lastChange = "2017-04-17 15:01:56 +0000";
layers = (
{
layerId = "E48BBF63-6980-4D0E-B72F-9E9EC78D2D9A";
paths = (
{
closed = 1;
nodes = (
"157 1383 OFFCURVE",
"175 1365 OFFCURVE",
"212 1365 CURVE SMOOTH",
"249 1365 OFFCURVE",
"268 1383 OFFCURVE",
"268 1420 CURVE SMOOTH",
"268 1457 OFFCURVE",
"249 1476 OFFCURVE",
"212 1476 CURVE SMOOTH",
"175 1476 OFFCURVE",
"157 1457 OFFCURVE",
"157 1420 CURVE SMOOTH"
);
},
{
closed = 1;
nodes = (
"185 0 LINE",
"239 0 LINE",
"239 1082 LINE",
"185 1082 LINE"
);
}
);
width = 422;
}
);
note = i;
unicode = 0069;
},
{
glyphname = j;
lastChange = "2017-04-17 15:01:56 +0000";
layers = (
{
layerId = "E48BBF63-6980-4D0E-B72F-9E9EC78D2D9A";
paths = (
{
closed = 1;
nodes = (
"163 1383 OFFCURVE",
"181 1365 OFFCURVE",
"218 1365 CURVE SMOOTH",
"255 1365 OFFCURVE",
"274 1383 OFFCURVE",
"274 1420 CURVE SMOOTH",
"274 1457 OFFCURVE",
"255 1476 OFFCURVE",
"218 1476 CURVE SMOOTH",
"181 1476 OFFCURVE",
"163 1457 OFFCURVE",
"163 1420 CURVE SMOOTH"
);
},
{
closed = 1;
nodes = (
"185 -299 OFFCURVE",
"108 -383 OFFCURVE",
"-45 -383 CURVE SMOOTH",
"-76 -383 OFFCURVE",
"-108 -377 OFFCURVE",
"-140 -365 CURVE",
"-143 -417 LINE",
"-110 -430 OFFCURVE",
"-78 -437 OFFCURVE",
"-45 -437 CURVE SMOOTH",
"134 -437 OFFCURVE",
"240 -328 OFFCURVE",
"240 -129 CURVE SMOOTH",
"240 1082 LINE",
"186 1082 LINE",
"186 -131 LINE SMOOTH"
);
}
);
width = 445;
}
);
note = j;
unicode = 006A;
},
{
glyphname = k;
lastChange = "2017-04-17 15:01:56 +0000";
layers = (
{
layerId = "E48BBF63-6980-4D0E-B72F-9E9EC78D2D9A";
paths = (
{
closed = 1;
nodes = (
"883 0 LINE",
"953 0 LINE",
"425 622 LINE",
"922 1082 LINE",
"845 1082 LINE",
"353 627 LINE",
"226 507 LINE",
"226 1536 LINE",
"172 1536 LINE",
"172 0 LINE",
"226 0 LINE",
"226 449 LINE",
"383 583 LINE",
"385 585 LINE"
);
}
);
width = 969;
}
);
note = k;
unicode = 006B;
},
{
glyphname = l;
lastChange = "2017-04-17 15:01:56 +0000";
layers = (
{
layerId = "E48BBF63-6980-4D0E-B72F-9E9EC78D2D9A";
paths = (
{
closed = 1;
nodes = (
"185 0 LINE",
"239 0 LINE",
"239 1536 LINE",
"185 1536 LINE"
);
}
);
width = 422;
}
);
note = l;
unicode = 006C;
},
{
glyphname = m;
lastChange = "2017-04-17 15:01:56 +0000";
layers = (
{
layerId = "E48BBF63-6980-4D0E-B72F-9E9EC78D2D9A";
paths = (
{
closed = 1;
nodes = (
"768 1049 OFFCURVE",
"891 978 OFFCURVE",
"892 725 CURVE SMOOTH",
"892 0 LINE",
"946 0 LINE",
"946 720 LINE",
"949 759 OFFCURVE",
"965 804 OFFCURVE",
"994 855 CURVE SMOOTH",
"1050 958 OFFCURVE",
"1159 1048 OFFCURVE",
"1330 1049 CURVE SMOOTH",
"1501 1050 OFFCURVE",
"1625 976 OFFCURVE",
"1626 705 CURVE SMOOTH",
"1626 0 LINE",
"1680 0 LINE",
"1680 705 LINE",
"1679 988 OFFCURVE",
"1550 1102 OFFCURVE",
"1333 1102 CURVE SMOOTH",
"1138 1102 OFFCURVE",
"995 989 OFFCURVE",
"935 846 CURVE",
"899 1027 OFFCURVE",
"780 1102 OFFCURVE",
"599 1102 CURVE SMOOTH",
"415 1102 OFFCURVE",
"280 982 OFFCURVE",
"216 827 CURVE",
"216 1082 LINE",
"161 1082 LINE",
"161 0 LINE",
"216 0 LINE",
"216 684 LINE",
"225 731 OFFCURVE",
"245 783 OFFCURVE",
"274 840 CURVE SMOOTH",
"332 954 OFFCURVE",
"436 1049 OFFCURVE",
"596 1049 CURVE SMOOTH"
);
}
);
width = 1836;
}
);
leftKerningGroup = m;
note = m;
rightKerningGroup = h;
unicode = 006D;
},
{
glyphname = n;
lastChange = "2017-04-17 15:01:56 +0000";
layers = (
{
layerId = "E48BBF63-6980-4D0E-B72F-9E9EC78D2D9A";
paths = (
{
closed = 1;
nodes = (
"778 1049 OFFCURVE",
"899 976 OFFCURVE",
"900 705 CURVE SMOOTH",
"900 0 LINE",
"954 0 LINE",
"954 705 LINE",
"953 988 OFFCURVE",
"827 1102 OFFCURVE",
"610 1102 CURVE SMOOTH",
"429 1102 OFFCURVE",
"291 983 OFFCURVE",
"226 831 CURVE",
"226 1082 LINE",
"172 1082 LINE",
"172 0 LINE",
"226 0 LINE",
"226 693 LINE",
"237 740 OFFCURVE",
"257 791 OFFCURVE",
"287 847 CURVE SMOOTH",
"346 958 OFFCURVE",
"450 1049 OFFCURVE",
"607 1049 CURVE SMOOTH"
);
}
);
width = 1121;
}
);
leftKerningGroup = m;
note = n;
rightKerningGroup = h;
unicode = 006E;
},
{
glyphname = o;
lastChange = "2017-04-17 15:01:56 +0000";
layers = (
{
layerId = "E48BBF63-6980-4D0E-B72F-9E9EC78D2D9A";
paths = (
{
closed = 1;
nodes = (
"90 203 OFFCURVE",
"284 -20 OFFCURVE",
"565 -20 CURVE SMOOTH",
"846 -20 OFFCURVE",
"1037 203 OFFCURVE",
"1037 520 CURVE SMOOTH",
"1037 562 LINE SMOOTH",
"1037 879 OFFCURVE",
"846 1102 OFFCURVE",
"563 1102 CURVE SMOOTH",
"283 1102 OFFCURVE",
"90 879 OFFCURVE",
"90 562 CURVE SMOOTH",
"90 520 LINE SMOOTH"
);
},
{
closed = 1;
nodes = (
"144 815 OFFCURVE",
"299 1048 OFFCURVE",
"563 1048 CURVE SMOOTH",
"828 1048 OFFCURVE",
"983 815 OFFCURVE",
"983 562 CURVE SMOOTH",
"983 520 LINE SMOOTH",
"983 261 OFFCURVE",
"828 34 OFFCURVE",
"565 34 CURVE SMOOTH",
"300 34 OFFCURVE",
"144 261 OFFCURVE",
"144 520 CURVE SMOOTH",
"144 562 LINE SMOOTH"
);
}
);
width = 1127;
}
);
leftKerningGroup = o;
note = o;
rightKerningGroup = o;
unicode = 006F;
},
{
glyphname = p;
lastChange = "2017-04-17 15:01:56 +0000";
layers = (
{
layerId = "E48BBF63-6980-4D0E-B72F-9E9EC78D2D9A";
paths = (
{
closed = 1;
nodes = (
"849 -20 OFFCURVE",
"999 202 OFFCURVE",
"999 531 CURVE SMOOTH",
"999 551 LINE SMOOTH",
"999 894 OFFCURVE",
"848 1102 OFFCURVE",
"591 1102 CURVE SMOOTH",
"416 1102 OFFCURVE",
"295 1017 OFFCURVE",
"224 889 CURVE",
"224 1082 LINE",
"170 1082 LINE",
"170 -416 LINE",
"224 -416 LINE",
"224 169 LINE",
"292 60 OFFCURVE",
"417 -20 OFFCURVE",
"593 -20 CURVE SMOOTH"
);
},
{
closed = 1;
nodes = (
"829 1048 OFFCURVE",
"944 839 OFFCURVE",
"944 552 CURVE SMOOTH",
"944 531 LINE SMOOTH",
"944 243 OFFCURVE",
"830 34 OFFCURVE",
"594 34 CURVE SMOOTH",
"395 34 OFFCURVE",
"275 134 OFFCURVE",
"224 269 CURVE",
"224 775 LINE",
"265 902 OFFCURVE",
"363 1048 OFFCURVE",
"592 1048 CURVE SMOOTH"
);
}
);
width = 1121;
}
);
leftKerningGroup = m;
note = p;
rightKerningGroup = b;
unicode = 0070;
},
{
glyphname = q;
lastChange = "2017-04-17 15:01:56 +0000";
layers = (
{
layerId = "E48BBF63-6980-4D0E-B72F-9E9EC78D2D9A";
paths = (
{
closed = 1;
nodes = (
"897 889 LINE",
"828 1017 OFFCURVE",
"706 1102 OFFCURVE",
"530 1102 CURVE SMOOTH",
"273 1102 OFFCURVE",
"122 893 OFFCURVE",
"122 552 CURVE SMOOTH",
"122 531 LINE SMOOTH",
"122 202 OFFCURVE",
"272 -20 OFFCURVE",
"528 -20 CURVE SMOOTH",
"704 -20 OFFCURVE",
"829 60 OFFCURVE",
"897 168 CURVE",
"897 -416 LINE",
"951 -416 LINE",
"951 1082 LINE",
"897 1082 LINE"
);
},
{
closed = 1;
nodes = (
"179 841 OFFCURVE",
"292 1048 OFFCURVE",
"529 1048 CURVE SMOOTH",
"754 1048 OFFCURVE",
"856 898 OFFCURVE",
"897 775 CURVE",
"897 269 LINE",
"846 134 OFFCURVE",
"726 34 OFFCURVE",
"527 34 CURVE SMOOTH",
"291 34 OFFCURVE",
"178 243 OFFCURVE",
"178 531 CURVE SMOOTH",
"178 557 LINE SMOOTH"
);
}
);
width = 1121;
}
);
leftKerningGroup = c;
note = q;
unicode = 0071;
},
{
glyphname = r;
lastChange = "2017-04-17 15:01:56 +0000";
layers = (
{
layerId = "E48BBF63-6980-4D0E-B72F-9E9EC78D2D9A";
paths = (
{
closed = 1;
nodes = (
"655 1091 LINE",
"634 1098 OFFCURVE",
"609 1102 OFFCURVE",
"579 1102 CURVE SMOOTH",
"402 1102 OFFCURVE",
"286 1008 OFFCURVE",
"226 857 CURVE",
"226 1082 LINE",
"172 1082 LINE",
"172 0 LINE",
"226 0 LINE",
"226 708 LINE",
"261 903 OFFCURVE",
"378 1049 OFFCURVE",
"579 1049 CURVE",
"649 1043 LINE"
);
}
);
width = 685;
}
);
note = r;
rightKerningGroup = r;
unicode = 0072;
},
{
glyphname = s;
lastChange = "2017-04-17 15:01:56 +0000";
layers = (
{
layerId = "E48BBF63-6980-4D0E-B72F-9E9EC78D2D9A";
paths = (
{
closed = 1;
nodes = (
"839 152 OFFCURVE",
"726 34 OFFCURVE",
"513 34 CURVE SMOOTH",
"356 34 OFFCURVE",
"175 90 OFFCURVE",
"162 275 CURVE",
"108 275 LINE",
"108 116 OFFCURVE",
"250 -20 OFFCURVE",
"513 -20 CURVE SMOOTH",
"746 -20 OFFCURVE",
"893 97 OFFCURVE",
"893 264 CURVE SMOOTH",
"893 433 OFFCURVE",
"791 517 OFFCURVE",
"517 581 CURVE SMOOTH",
"380 613 OFFCURVE",
"292 649 OFFCURVE",
"254 689 CURVE SMOOTH",
"216 729 OFFCURVE",
"197 776 OFFCURVE",
"197 831 CURVE SMOOTH",
"197 932 OFFCURVE",
"286 1048 OFFCURVE",
"505 1048 CURVE SMOOTH",
"720 1048 OFFCURVE",
"837 928 OFFCURVE",
"837 793 CURVE",
"892 793 LINE",
"892 977 OFFCURVE",
"746 1102 OFFCURVE",
"505 1102 CURVE SMOOTH",
"280 1102 OFFCURVE",
"143 980 OFFCURVE",
"143 829 CURVE SMOOTH",
"143 657 OFFCURVE",
"250 590 OFFCURVE",
"513 531 CURVE SMOOTH",
"644 502 OFFCURVE",
"732 462 OFFCURVE",
"775 413 CURVE SMOOTH",
"818 363 OFFCURVE",
"839 314 OFFCURVE",
"839 265 CURVE SMOOTH"
);
}
);
width = 1019;
}
);
leftKerningGroup = s;
note = s;
unicode = 0073;
},
{
glyphname = t;
lastChange = "2017-04-17 15:01:56 +0000";
layers = (
{
layerId = "E48BBF63-6980-4D0E-B72F-9E9EC78D2D9A";
paths = (
{
closed = 1;
nodes = (
"521 37 OFFCURVE",
"485 34 OFFCURVE",
"456 34 CURVE SMOOTH",
"369 34 OFFCURVE",
"293 68 OFFCURVE",
"293 259 CURVE SMOOTH",
"293 1027 LINE",
"539 1027 LINE",
"539 1082 LINE",
"293 1082 LINE",
"293 1374 LINE",
"238 1374 LINE",
"238 1082 LINE",
"38 1082 LINE",
"38 1027 LINE",
"238 1027 LINE",
"238 259 LINE SMOOTH",
"238 42 OFFCURVE",
"322 -20 OFFCURVE",
"459 -20 CURVE SMOOTH",
"512 -20 OFFCURVE",
"550 -16 OFFCURVE",
"572 -8 CURVE",
"563 43 LINE"
);
}
);
width = 648;
}
);
note = t;
unicode = 0074;
},
{
glyphname = u;
lastChange = "2017-04-17 15:01:56 +0000";
layers = (
{
layerId = "E48BBF63-6980-4D0E-B72F-9E9EC78D2D9A";
paths = (
{
closed = 1;
nodes = (
"952 1082 LINE",
"897 1082 LINE",
"897 321 LINE",
"868 165 OFFCURVE",
"763 34 OFFCURVE",
"522 34 CURVE SMOOTH",
"350 34 OFFCURVE",
"223 127 OFFCURVE",
"222 388 CURVE",
"222 1082 LINE",
"168 1082 LINE",
"168 390 LINE SMOOTH",
"169 91 OFFCURVE",
"313 -20 OFFCURVE",
"524 -20 CURVE SMOOTH",
"712 -20 OFFCURVE",
"833 55 OFFCURVE",
"897 175 CURVE",
"897 0 LINE",
"952 0 LINE"
);
}
);
width = 1121;
}
);
leftKerningGroup = u;
note = u;
unicode = 0075;
},
{
glyphname = v;
lastChange = "2017-04-17 15:01:56 +0000";
layers = (
{
layerId = "E48BBF63-6980-4D0E-B72F-9E9EC78D2D9A";
paths = (
{
closed = 1;
nodes = (
"490 87 LINE",
"101 1082 LINE",
"43 1082 LINE",
"463 0 LINE",
"516 0 LINE",
"937 1082 LINE",
"879 1082 LINE"
);
}
);
width = 978;
}
);
leftKerningGroup = v;
note = v;
rightKerningGroup = v;
unicode = 0076;
},
{
glyphname = w;
lastChange = "2017-04-17 15:01:56 +0000";
layers = (
{
layerId = "E48BBF63-6980-4D0E-B72F-9E9EC78D2D9A";
paths = (
{
closed = 1;
nodes = (
"1173 313 LINE",
"1113 80 LINE",
"797 1082 LINE",
"742 1082 LINE",
"425 80 LINE",
"366 313 LINE",
"145 1082 LINE",
"83 1082 LINE",
"397 0 LINE",
"451 0 LINE",
"714 813 LINE",
"769 1007 LINE",
"820 813 LINE",
"1087 0 LINE",
"1141 0 LINE",
"1456 1082 LINE",
"1393 1082 LINE"
);
}
);
width = 1550;
}
);
note = w;
unicode = 0077;
},
{
glyphname = x;
lastChange = "2017-04-17 15:01:56 +0000";
layers = (
{
layerId = "E48BBF63-6980-4D0E-B72F-9E9EC78D2D9A";
paths = (
{
closed = 1;
nodes = (
"455 555 LINE",
"55 0 LINE",
"122 0 LINE",
"488 508 LINE",
"855 0 LINE",
"922 0 LINE",
"522 555 LINE",
"902 1082 LINE",
"834 1082 LINE",
"489 602 LINE",
"143 1082 LINE",
"75 1082 LINE"
);
}
);
width = 978;
}
);
leftKerningGroup = x;
note = x;
rightKerningGroup = x;
unicode = 0078;
},
{
glyphname = y;
lastChange = "2017-04-17 15:01:56 +0000";
layers = (
{
layerId = "E48BBF63-6980-4D0E-B72F-9E9EC78D2D9A";
paths = (
{
closed = 1;
nodes = (
"221 -437 OFFCURVE",
"257 -431 OFFCURVE",
"287 -418 CURVE SMOOTH",
"347 -394 OFFCURVE",
"402 -341 OFFCURVE",
"461 -185 CURVE SMOOTH",
"944 1082 LINE",
"884 1082 LINE",
"510 104 LINE",
"503 84 LINE",
"102 1082 LINE",
"43 1082 LINE",
"474 6 LINE",
"409 -170 LINE SMOOTH",
"362 -295 OFFCURVE",
"303 -384 OFFCURVE",
"170 -384 CURVE SMOOTH",
"144 -384 OFFCURVE",
"120 -381 OFFCURVE",
"97 -375 CURVE",
"98 -426 LINE",
"115 -433 OFFCURVE",
"142 -437 OFFCURVE",
"178 -437 CURVE SMOOTH"
);
}
);
width = 978;
}
);
leftKerningGroup = v;
note = y;
rightKerningGroup = v;
unicode = 0079;
},
{
glyphname = z;
lastChange = "2017-04-17 15:01:56 +0000";
layers = (
{
layerId = "E48BBF63-6980-4D0E-B72F-9E9EC78D2D9A";
paths = (
{
closed = 1;
nodes = (
"87 44 LINE",
"87 0 LINE",
"930 0 LINE",
"930 54 LINE",
"160 54 LINE",
"871 1034 LINE",
"871 1082 LINE",
"118 1082 LINE",
"118 1027 LINE",
"798 1027 LINE"
);
}
);
width = 978;
}
);
leftKerningGroup = z;
note = z;
rightKerningGroup = z;
unicode = 007A;
},
{
glyphname = braceleft;
lastChange = "2017-04-17 15:01:56 +0000";
layers = (
{
layerId = "E48BBF63-6980-4D0E-B72F-9E9EC78D2D9A";
paths = (
{
closed = 1;
nodes = (
"250 543 OFFCURVE",
"323 434 OFFCURVE",
"323 265 CURVE SMOOTH",
"323 20 LINE SMOOTH",
"323 -191 OFFCURVE",
"398 -364 OFFCURVE",
"642 -441 CURVE",
"662 -395 LINE",
"472 -332 OFFCURVE",
"377 -191 OFFCURVE",
"377 27 CURVE SMOOTH",
"377 251 LINE SMOOTH",
"377 434 OFFCURVE",
"307 542 OFFCURVE",
"166 576 CURVE",
"307 609 OFFCURVE",
"377 716 OFFCURVE",
"377 899 CURVE SMOOTH",
"377 1121 LINE SMOOTH",
"377 1349 OFFCURVE",
"470 1493 OFFCURVE",
"657 1552 CURVE",
"642 1597 LINE",
"398 1520 OFFCURVE",
"323 1343 OFFCURVE",
"323 1132 CURVE SMOOTH",
"323 885 LINE SMOOTH",
"323 717 OFFCURVE",
"250 609 OFFCURVE",
"73 609 CURVE",
"73 543 LINE"
);
}
);
width = 660;
}
);
note = braceleft;
unicode = 007B;
},
{
glyphname = bar;
lastChange = "2017-04-17 15:01:56 +0000";
layers = (
{
layerId = "E48BBF63-6980-4D0E-B72F-9E9EC78D2D9A";
paths = (
{
closed = 1;
nodes = (
"181 -270 LINE",
"235 -270 LINE",
"235 1456 LINE",
"181 1456 LINE"
);
}
);
width = 406;
}
);
note = bar;
unicode = 007C;
},
{
glyphname = braceright;
lastChange = "2017-04-17 15:01:56 +0000";
layers = (
{
layerId = "E48BBF63-6980-4D0E-B72F-9E9EC78D2D9A";
paths = (
{
closed = 1;
nodes = (
"421 609 OFFCURVE",
"338 703 OFFCURVE",
"338 892 CURVE SMOOTH",
"338 1132 LINE SMOOTH",
"338 1343 OFFCURVE",
"264 1520 OFFCURVE",
"19 1597 CURVE",
"5 1552 LINE",
"202 1489 OFFCURVE",
"284 1331 OFFCURVE",
"284 1132 CURVE SMOOTH",
"284 899 LINE SMOOTH",
"284 716 OFFCURVE",
"354 609 OFFCURVE",
"495 576 CURVE",
"354 542 OFFCURVE",
"284 434 OFFCURVE",
"284 251 CURVE SMOOTH",
"284 28 LINE SMOOTH",
"284 -191 OFFCURVE",
"189 -332 OFFCURVE",
"0 -395 CURVE",
"19 -441 LINE",
"264 -364 OFFCURVE",
"338 -191 OFFCURVE",
"338 20 CURVE SMOOTH",
"338 258 LINE SMOOTH",
"338 448 OFFCURVE",
"421 543 OFFCURVE",
"588 543 CURVE",
"588 609 LINE"
);
}
);
width = 660;
}
);
note = braceright;
unicode = 007D;
},
{
glyphname = asciitilde;
lastChange = "2017-04-17 15:01:56 +0000";
layers = (
{
layerId = "E48BBF63-6980-4D0E-B72F-9E9EC78D2D9A";
paths = (
{
closed = 1;
nodes = (
"1190 596 OFFCURVE",
"1116 496 OFFCURVE",
"977 496 CURVE SMOOTH",
"892 496 OFFCURVE",
"830 531 OFFCURVE",
"733 620 CURVE SMOOTH",
"636 708 OFFCURVE",
"552 774 OFFCURVE",
"428 774 CURVE SMOOTH",
"243 774 OFFCURVE",
"160 631 OFFCURVE",
"160 462 CURVE",
"215 462 LINE",
"215 634 OFFCURVE",
"286 720 OFFCURVE",
"428 720 CURVE SMOOTH",
"521 720 OFFCURVE",
"573 688 OFFCURVE",
"680 592 CURVE SMOOTH",
"787 496 OFFCURVE",
"857 443 OFFCURVE",
"977 443 CURVE SMOOTH",
"1158 443 OFFCURVE",
"1246 589 OFFCURVE",
"1246 752 CURVE",
"1190 753 LINE"
);
}
);
width = 1412;
}
);
note = asciitilde;
unicode = 007E;
},
{
glyphname = exclamdown;
lastChange = "2017-04-17 15:01:56 +0000";
layers = (
{
layerId = "E48BBF63-6980-4D0E-B72F-9E9EC78D2D9A";
paths = (
{
closed = 1;
nodes = (
"253 1085 OFFCURVE",
"235 1103 OFFCURVE",
"198 1103 CURVE SMOOTH",
"161 1103 OFFCURVE",
"142 1085 OFFCURVE",
"142 1048 CURVE SMOOTH",
"142 1011 OFFCURVE",
"161 992 OFFCURVE",
"198 992 CURVE SMOOTH",
"235 992 OFFCURVE",
"253 1011 OFFCURVE",
"253 1048 CURVE SMOOTH"
);
},
{
closed = 1;
nodes = (
"233 696 LINE",
"179 696 LINE",
"179 -359 LINE",
"233 -359 LINE"
);
}
);
width = 406;
}
);
note = exclamdown;
unicode = 00A1;
},
{
glyphname = cent;
lastChange = "2017-04-17 15:01:56 +0000";
layers = (
{
layerId = "E48BBF63-6980-4D0E-B72F-9E9EC78D2D9A";
paths = (
{
closed = 1;
nodes = (
"909 121 OFFCURVE",
"744 34 OFFCURVE",
"575 34 CURVE SMOOTH",
"308 34 OFFCURVE",
"187 249 OFFCURVE",
"187 520 CURVE SMOOTH",
"187 562 LINE SMOOTH",
"187 831 OFFCURVE",
"308 1048 OFFCURVE",
"573 1048 CURVE SMOOTH",
"752 1048 OFFCURVE",
"913 940 OFFCURVE",
"922 725 CURVE",
"976 725 LINE",
"967 961 OFFCURVE",
"799 1089 OFFCURVE",
"603 1101 CURVE",
"603 1318 LINE",
"548 1318 LINE",
"548 1101 LINE",
"284 1089 OFFCURVE",
"133 870 OFFCURVE",
"133 562 CURVE SMOOTH",
"133 520 LINE SMOOTH",
"133 213 OFFCURVE",
"284 -6 OFFCURVE",
"548 -19 CURVE",
"548 -245 LINE",
"603 -245 LINE",
"603 -19 LINE",
"802 -8 OFFCURVE",
"965 117 OFFCURVE",
"976 328 CURVE",
"922 328 LINE"
);
}
);
width = 1110;
}
);
note = cent;
unicode = 00A2;
},
{
glyphname = sterling;
lastChange = "2017-04-17 15:01:56 +0000";
layers = (
{
layerId = "E48BBF63-6980-4D0E-B72F-9E9EC78D2D9A";
paths = (
{
closed = 1;
nodes = (
"1060 54 LINE",
"303 54 LINE",
"351 113 OFFCURVE",
"373 207 OFFCURVE",
"370 336 CURVE SMOOTH",
"360 667 LINE",
"728 667 LINE",
"728 721 LINE",
"358 721 LINE",
"349 1039 LINE",
"349 1287 OFFCURVE",
"469 1422 OFFCURVE",
"661 1422 CURVE SMOOTH",
"836 1422 OFFCURVE",
"981 1325 OFFCURVE",
"981 1089 CURVE",
"1035 1089 LINE",
"1035 1317 OFFCURVE",
"902 1476 OFFCURVE",
"661 1476 CURVE SMOOTH",
"438 1476 OFFCURVE",
"295 1315 OFFCURVE",
"295 1039 CURVE SMOOTH",
"304 721 LINE",
"95 721 LINE",
"95 667 LINE",
"306 667 LINE",
"316 336 LINE SMOOTH",
"319 216 OFFCURVE",
"291 75 OFFCURVE",
"219 54 CURVE",
"99 54 LINE",
"99 0 LINE",
"1061 0 LINE"
);
}
);
width = 1150;
}
);
note = sterling;
unicode = 00A3;
},
{
glyphname = currency;
lastChange = "2017-04-17 15:01:56 +0000";
layers = (
{
layerId = "E48BBF63-6980-4D0E-B72F-9E9EC78D2D9A";
paths = (
{
closed = 1;
nodes = (
"1286 307 OFFCURVE",
"1339 449 OFFCURVE",
"1339 608 CURVE SMOOTH",
"1339 772 OFFCURVE",
"1281 920 OFFCURVE",
"1188 1029 CURVE",
"1380 1225 LINE",
"1339 1265 LINE",
"1148 1071 LINE",
"1043 1172 OFFCURVE",
"901 1234 OFFCURVE",
"745 1234 CURVE SMOOTH",
"589 1234 OFFCURVE",
"449 1173 OFFCURVE",
"342 1072 CURVE",
"154 1264 LINE",
"114 1225 LINE",
"303 1032 LINE",
"200 913 OFFCURVE",
"149 772 OFFCURVE",
"149 608 CURVE SMOOTH",
"149 448 OFFCURVE",
"204 305 OFFCURVE",
"293 196 CURVE",
"114 13 LINE",
"154 -26 LINE",
"331 154 LINE",
"438 46 OFFCURVE",
"584 -20 OFFCURVE",
"745 -20 CURVE SMOOTH",
"906 -20 OFFCURVE",
"1052 47 OFFCURVE",
"1160 156 CURVE",
"1339 -27 LINE",
"1380 13 LINE",
"1198 199 LINE"
);
},
{
closed = 1;
nodes = (
"204 713 OFFCURVE",
"229 810 OFFCURVE",
"278 897 CURVE SMOOTH",
"376 1071 OFFCURVE",
"548 1181 OFFCURVE",
"745 1181 CURVE SMOOTH",
"843 1181 OFFCURVE",
"933 1155 OFFCURVE",
"1015 1104 CURVE SMOOTH",
"1179 1001 OFFCURVE",
"1285 819 OFFCURVE",
"1285 608 CURVE SMOOTH",
"1285 502 OFFCURVE",
"1261 406 OFFCURVE",
"1212 319 CURVE SMOOTH",
"1114 145 OFFCURVE",
"941 33 OFFCURVE",
"745 33 CURVE SMOOTH",
"646 33 OFFCURVE",
"556 59 OFFCURVE",
"474 111 CURVE SMOOTH",
"310 214 OFFCURVE",
"204 396 OFFCURVE",
"204 608 CURVE SMOOTH"
);
}
);
width = 1502;
}
);
note = currency;
unicode = 00A4;
},
{
glyphname = yen;
lastChange = "2017-04-17 15:01:56 +0000";
layers = (
{
layerId = "E48BBF63-6980-4D0E-B72F-9E9EC78D2D9A";
paths = (
{
closed = 1;
nodes = (
"543 381 LINE",
"543 621 LINE",
"935 621 LINE",
"935 676 LINE",
"568 676 LINE",
"1000 1456 LINE",
"938 1456 LINE",
"547 738 LINE",
"521 687 LINE",
"512 687 LINE",
"487 738 LINE",
"95 1456 LINE",
"33 1456 LINE",
"464 676 LINE",
"99 676 LINE",
"99 621 LINE",
"489 621 LINE",
"489 381 LINE",
"99 381 LINE",
"99 326 LINE",
"489 326 LINE",
"489 0 LINE",
"543 0 LINE",
"543 326 LINE",
"935 326 LINE",
"935 381 LINE"
);
}
);
width = 1038;
}
);
note = yen;
unicode = 00A5;
},
{
glyphname = brokenbar;
lastChange = "2017-04-17 15:01:56 +0000";
layers = (
{
layerId = "E48BBF63-6980-4D0E-B72F-9E9EC78D2D9A";
paths = (
{
closed = 1;
nodes = (
"172 698 LINE",
"226 698 LINE",
"226 1456 LINE",
"172 1456 LINE"
);
},
{
closed = 1;
nodes = (
"172 482 LINE",
"172 -270 LINE",
"226 -270 LINE",
"226 482 LINE"
);
}
);
width = 398;
}
);
note = brokenbar;
unicode = 00A6;
},
{
glyphname = section;
lastChange = "2017-04-17 15:01:56 +0000";
layers = (
{
layerId = "E48BBF63-6980-4D0E-B72F-9E9EC78D2D9A";
paths = (
{
closed = 1;
nodes = (
"1050 16 OFFCURVE",
"957 101 OFFCURVE",
"790 164 CURVE",
"977 191 OFFCURVE",
"1094 291 OFFCURVE",
"1094 431 CURVE SMOOTH",
"1094 656 OFFCURVE",
"915 729 OFFCURVE",
"616 804 CURVE SMOOTH",
"296 896 OFFCURVE",
"220 968 OFFCURVE",
"220 1132 CURVE SMOOTH",
"220 1292 OFFCURVE",
"343 1422 OFFCURVE",
"618 1422 CURVE SMOOTH",
"877 1422 OFFCURVE",
"1018 1253 OFFCURVE",
"1018 1045 CURVE",
"1072 1045 LINE",
"1072 1324 OFFCURVE",
"901 1476 OFFCURVE",
"618 1476 CURVE SMOOTH",
"343 1476 OFFCURVE",
"166 1338 OFFCURVE",
"166 1129 CURVE SMOOTH",
"166 970 OFFCURVE",
"253 884 OFFCURVE",
"408 823 CURVE",
"229 795 OFFCURVE",
"121 696 OFFCURVE",
"121 551 CURVE SMOOTH",
"121 326 OFFCURVE",
"315 235 OFFCURVE",
"607 166 CURVE SMOOTH",
"920 83 OFFCURVE",
"995 2 OFFCURVE",
"995 -151 CURVE SMOOTH",
"995 -319 OFFCURVE",
"853 -441 OFFCURVE",
"600 -441 CURVE SMOOTH",
"533 -441 OFFCURVE",
"467 -430 OFFCURVE",
"401 -407 CURVE SMOOTH",
"268 -362 OFFCURVE",
"169 -257 OFFCURVE",
"169 -62 CURVE",
"115 -64 LINE",
"115 -172 OFFCURVE",
"139 -257 OFFCURVE",
"187 -320 CURVE SMOOTH",
"282 -445 OFFCURVE",
"440 -495 OFFCURVE",
"600 -495 CURVE SMOOTH",
"872 -495 OFFCURVE",
"1050 -366 OFFCURVE",
"1050 -149 CURVE SMOOTH"
);
},
{
closed = 1;
nodes = (
"248 327 OFFCURVE",
"175 390 OFFCURVE",
"175 553 CURVE SMOOTH",
"175 682 OFFCURVE",
"271 788 OFFCURVE",
"482 796 CURVE",
"590 766 LINE SMOOTH",
"763 719 OFFCURVE",
"881 671 OFFCURVE",
"945 624 CURVE SMOOTH",
"1008 576 OFFCURVE",
"1040 511 OFFCURVE",
"1040 428 CURVE SMOOTH",
"1040 303 OFFCURVE",
"914 199 OFFCURVE",
"693 196 CURVE",
"565 232 LINE SMOOTH"
);
}
);
width = 1223;
}
);
note = section;
unicode = 00A7;
},
{
glyphname = dieresis;
lastChange = "2017-04-17 15:01:56 +0000";
layers = (
{
layerId = "E48BBF63-6980-4D0E-B72F-9E9EC78D2D9A";
paths = (
{
closed = 1;
nodes = (
"174 1384 OFFCURVE",
"192 1366 OFFCURVE",
"229 1366 CURVE SMOOTH",
"266 1366 OFFCURVE",
"285 1384 OFFCURVE",
"285 1421 CURVE SMOOTH",
"285 1458 OFFCURVE",
"266 1477 OFFCURVE",
"229 1477 CURVE SMOOTH",
"192 1477 OFFCURVE",
"174 1458 OFFCURVE",
"174 1421 CURVE SMOOTH"
);
},
{
closed = 1;
nodes = (
"619 1384 OFFCURVE",
"637 1366 OFFCURVE",
"674 1366 CURVE SMOOTH",
"711 1366 OFFCURVE",
"730 1384 OFFCURVE",
"730 1421 CURVE SMOOTH",
"730 1458 OFFCURVE",
"711 1477 OFFCURVE",
"674 1477 CURVE SMOOTH",
"637 1477 OFFCURVE",
"619 1458 OFFCURVE",
"619 1421 CURVE SMOOTH"
);
}
);
width = 906;
}
);
note = dieresis;
unicode = 00A8;
},
{
glyphname = copyright;
lastChange = "2017-04-17 15:01:56 +0000";
layers = (
{
layerId = "E48BBF63-6980-4D0E-B72F-9E9EC78D2D9A";
paths = (
{
closed = 1;
nodes = (
"123 588 OFFCURVE",
"155 461 OFFCURVE",
"219 348 CURVE SMOOTH",
"347 121 OFFCURVE",
"573 -21 OFFCURVE",
"833 -21 CURVE SMOOTH",
"964 -21 OFFCURVE",
"1083 12 OFFCURVE",
"1190 79 CURVE SMOOTH",
"1405 211 OFFCURVE",
"1543 448 OFFCURVE",
"1543 729 CURVE SMOOTH",
"1543 870 OFFCURVE",
"1511 997 OFFCURVE",
"1447 1110 CURVE SMOOTH",
"1319 1336 OFFCURVE",
"1094 1476 OFFCURVE",
"833 1476 CURVE SMOOTH",
"703 1476 OFFCURVE",
"584 1443 OFFCURVE",
"477 1378 CURVE SMOOTH",
"261 1246 OFFCURVE",
"123 1010 OFFCURVE",
"123 729 CURVE SMOOTH"
);
},
{
closed = 1;
nodes = (
"179 858 OFFCURVE",
"209 975 OFFCURVE",
"268 1080 CURVE SMOOTH",
"386 1289 OFFCURVE",
"594 1421 OFFCURVE",
"833 1421 CURVE SMOOTH",
"952 1421 OFFCURVE",
"1062 1390 OFFCURVE",
"1161 1329 CURVE SMOOTH",
"1359 1206 OFFCURVE",
"1487 988 OFFCURVE",
"1487 729 CURVE SMOOTH",
"1487 600 OFFCURVE",
"1457 483 OFFCURVE",
"1398 378 CURVE SMOOTH",
"1279 168 OFFCURVE",
"1072 34 OFFCURVE",
"833 34 CURVE SMOOTH",
"714 34 OFFCURVE",
"604 65 OFFCURVE",
"505 127 CURVE SMOOTH",
"306 251 OFFCURVE",
"179 470 OFFCURVE",
"179 729 CURVE SMOOTH"
);
},
{
closed = 1;
nodes = (
"1072 443 OFFCURVE",
"990 357 OFFCURVE",
"826 357 CURVE SMOOTH",
"657 357 OFFCURVE",
"561 502 OFFCURVE",
"561 689 CURVE SMOOTH",
"561 769 LINE SMOOTH",
"561 954 OFFCURVE",
"657 1102 OFFCURVE",
"826 1102 CURVE SMOOTH",
"991 1102 OFFCURVE",
"1073 1015 OFFCURVE",
"1073 842 CURVE",
"1125 842 LINE",
"1125 1051 OFFCURVE",
"1007 1155 OFFCURVE",
"826 1155 CURVE SMOOTH",
"635 1155 OFFCURVE",
"506 997 OFFCURVE",
"506 768 CURVE SMOOTH",
"506 689 LINE SMOOTH",
"506 458 OFFCURVE",
"635 302 OFFCURVE",
"826 302 CURVE SMOOTH",
"1007 302 OFFCURVE",
"1124 405 OFFCURVE",
"1124 616 CURVE",
"1072 616 LINE"
);
}
);
width = 1666;
}
);
note = copyright;
unicode = 00A9;
},
{
glyphname = ordfeminine;
lastChange = "2017-04-17 15:01:56 +0000";
layers = (
{
layerId = "E48BBF63-6980-4D0E-B72F-9E9EC78D2D9A";
paths = (
{
closed = 1;
nodes = (
"721 764 OFFCURVE",
"712 825 OFFCURVE",
"712 886 CURVE SMOOTH",
"712 1200 LINE SMOOTH",
"712 1383 OFFCURVE",
"607 1476 OFFCURVE",
"458 1476 CURVE SMOOTH",
"283 1476 OFFCURVE",
"167 1378 OFFCURVE",
"167 1243 CURVE",
"221 1243 LINE",
"221 1364 OFFCURVE",
"313 1422 OFFCURVE",
"458 1422 CURVE SMOOTH",
"590 1422 OFFCURVE",
"657 1338 OFFCURVE",
"657 1201 CURVE SMOOTH",
"657 1132 LINE",
"487 1132 LINE SMOOTH",
"286 1132 OFFCURVE",
"168 1045 OFFCURVE",
"168 900 CURVE SMOOTH",
"168 775 OFFCURVE",
"256 691 OFFCURVE",
"417 691 CURVE SMOOTH",
"525 691 OFFCURVE",
"613 755 OFFCURVE",
"658 824 CURVE",
"661 781 OFFCURVE",
"668 742 OFFCURVE",
"680 705 CURVE",
"738 705 LINE"
);
},
{
closed = 1;
nodes = (
"278 746 OFFCURVE",
"222 811 OFFCURVE",
"222 904 CURVE SMOOTH",
"222 1017 OFFCURVE",
"307 1075 OFFCURVE",
"476 1078 CURVE SMOOTH",
"657 1078 LINE",
"657 900 LINE",
"633 827 OFFCURVE",
"522 746 OFFCURVE",
"418 746 CURVE SMOOTH"
);
}
);
width = 898;
}
);
note = ordfeminine;
unicode = 00AA;
},
{
glyphname = guillemotleft;
lastChange = "2017-04-17 15:01:56 +0000";
layers = (
{
layerId = "E48BBF63-6980-4D0E-B72F-9E9EC78D2D9A";
paths = (
{
closed = 1;
nodes = (
"216 524 LINE",
"510 904 LINE",
"440 904 LINE",
"145 534 LINE",
"145 515 LINE",
"440 145 LINE",
"510 145 LINE"
);
},
{
closed = 1;
nodes = (
"503 524 LINE",
"797 904 LINE",
"727 904 LINE",
"432 534 LINE",
"432 515 LINE",
"727 145 LINE",
"797 145 LINE"
);
}
);
width = 905;
}
);
note = guillemotleft;
unicode = 00AB;
},
{
glyphname = logicalnot;
lastChange = "2017-04-17 15:01:56 +0000";
layers = (
{
layerId = "E48BBF63-6980-4D0E-B72F-9E9EC78D2D9A";
paths = (
{
closed = 1;
nodes = (
"861 700 LINE",
"861 396 LINE",
"915 396 LINE",
"915 753 LINE",
"122 753 LINE",
"122 700 LINE"
);
}
);
width = 1101;
}
);
note = logicalnot;
unicode = 00AC;
},
{
glyphname = registered;
lastChange = "2017-04-17 15:01:56 +0000";
layers = (
{
layerId = "E48BBF63-6980-4D0E-B72F-9E9EC78D2D9A";
paths = (
{
closed = 1;
nodes = (
"115 588 OFFCURVE",
"147 461 OFFCURVE",
"211 348 CURVE SMOOTH",
"339 121 OFFCURVE",
"564 -21 OFFCURVE",
"825 -21 CURVE SMOOTH",
"956 -21 OFFCURVE",
"1075 12 OFFCURVE",
"1182 79 CURVE SMOOTH",
"1397 211 OFFCURVE",
"1535 448 OFFCURVE",
"1535 729 CURVE SMOOTH",
"1535 870 OFFCURVE",
"1503 997 OFFCURVE",
"1439 1110 CURVE SMOOTH",
"1311 1336 OFFCURVE",
"1086 1476 OFFCURVE",
"825 1476 CURVE SMOOTH",
"694 1476 OFFCURVE",
"575 1443 OFFCURVE",
"468 1378 CURVE SMOOTH",
"253 1246 OFFCURVE",
"115 1010 OFFCURVE",
"115 729 CURVE SMOOTH"
);
},
{
closed = 1;
nodes = (
"170 858 OFFCURVE",
"200 975 OFFCURVE",
"259 1080 CURVE SMOOTH",
"378 1289 OFFCURVE",
"586 1421 OFFCURVE",
"825 1421 CURVE SMOOTH",
"944 1421 OFFCURVE",
"1054 1390 OFFCURVE",
"1153 1329 CURVE SMOOTH",
"1351 1206 OFFCURVE",
"1479 988 OFFCURVE",
"1479 729 CURVE SMOOTH",
"1479 600 OFFCURVE",
"1449 483 OFFCURVE",
"1390 378 CURVE SMOOTH",
"1271 168 OFFCURVE",
"1064 34 OFFCURVE",
"825 34 CURVE SMOOTH",
"706 34 OFFCURVE",
"596 65 OFFCURVE",
"497 127 CURVE SMOOTH",
"298 251 OFFCURVE",
"170 470 OFFCURVE",
"170 729 CURVE SMOOTH"
);
},
{
closed = 1;
nodes = (
"993 678 OFFCURVE",
"1044 632 OFFCURVE",
"1044 501 CURVE SMOOTH",
"1044 408 OFFCURVE",
"1049 350 OFFCURVE",
"1058 326 CURVE",
"1117 326 LINE",
"1117 342 LINE",
"1106 373 OFFCURVE",
"1100 419 OFFCURVE",
"1100 482 CURVE SMOOTH",
"1100 607 OFFCURVE",
"1068 681 OFFCURVE",
"967 710 CURVE",
"1070 751 OFFCURVE",
"1121 820 OFFCURVE",
"1121 916 CURVE SMOOTH",
"1121 1076 OFFCURVE",
"1025 1156 OFFCURVE",
"832 1156 CURVE SMOOTH",
"593 1156 LINE",
"593 326 LINE",
"648 326 LINE",
"648 678 LINE",
"860 678 LINE SMOOTH"
);
},
{
closed = 1;
nodes = (
"1009 1101 OFFCURVE",
"1066 1042 OFFCURVE",
"1066 917 CURVE SMOOTH",
"1066 797 OFFCURVE",
"969 734 OFFCURVE",
"853 734 CURVE SMOOTH",
"648 734 LINE",
"648 1101 LINE",
"832 1101 LINE SMOOTH"
);
}
);
width = 1674;
}
);
note = registered;
unicode = 00AE;
},
{
glyphname = macron;
lastChange = "2017-04-17 15:01:56 +0000";
layers = (
{
layerId = "E48BBF63-6980-4D0E-B72F-9E9EC78D2D9A";
paths = (
{
closed = 1;
nodes = (
"132 1383 LINE",
"699 1383 LINE",
"699 1436 LINE",
"132 1436 LINE"
);
}
);
width = 811;
}
);
note = macron;
unicode = 00AF;
},
{
glyphname = degree;
lastChange = "2017-04-17 15:01:56 +0000";
layers = (
{
layerId = "E48BBF63-6980-4D0E-B72F-9E9EC78D2D9A";
paths = (
{
closed = 1;
nodes = (
"156 1103 OFFCURVE",
"261 999 OFFCURVE",
"392 999 CURVE SMOOTH",
"519 999 OFFCURVE",
"624 1103 OFFCURVE",
"624 1236 CURVE SMOOTH",
"624 1367 OFFCURVE",
"519 1476 OFFCURVE",
"392 1476 CURVE SMOOTH",
"261 1476 OFFCURVE",
"156 1367 OFFCURVE",
"156 1236 CURVE SMOOTH"
);
},
{
closed = 1;
nodes = (
"211 1343 OFFCURVE",
"289 1421 OFFCURVE",
"392 1421 CURVE SMOOTH",
"493 1421 OFFCURVE",
"568 1343 OFFCURVE",
"568 1236 CURVE SMOOTH",
"568 1131 OFFCURVE",
"493 1055 OFFCURVE",
"392 1055 CURVE SMOOTH",
"289 1055 OFFCURVE",
"211 1131 OFFCURVE",
"211 1236 CURVE SMOOTH"
);
}
);
width = 783;
}
);
note = degree;
unicode = 00B0;
},
{
glyphname = plusminus;
lastChange = "2017-04-17 15:01:56 +0000";
layers = (
{
layerId = "E48BBF63-6980-4D0E-B72F-9E9EC78D2D9A";
paths = (
{
closed = 1;
nodes = (
"569 805 LINE",
"569 1267 LINE",
"515 1267 LINE",
"515 805 LINE",
"72 805 LINE",
"72 751 LINE",
"515 751 LINE",
"515 289 LINE",
"569 289 LINE",
"569 751 LINE",
"988 751 LINE",
"988 805 LINE"
);
},
{
closed = 1;
nodes = (
"122 -1 LINE",
"957 -1 LINE",
"957 53 LINE",
"122 53 LINE"
);
}
);
width = 1077;
}
);
note = plusminus;
unicode = 00B1;
},
{
glyphname = twosuperior;
lastChange = "2017-04-17 15:01:56 +0000";
layers = (
{
layerId = "E48BBF63-6980-4D0E-B72F-9E9EC78D2D9A";
paths = (
{
closed = 1;
nodes = (
"426 961 LINE SMOOTH",
"517 1056 OFFCURVE",
"605 1149 OFFCURVE",
"605 1248 CURVE SMOOTH",
"605 1384 OFFCURVE",
"505 1464 OFFCURVE",
"356 1464 CURVE SMOOTH",
"188 1464 OFFCURVE",
"86 1357 OFFCURVE",
"86 1226 CURVE",
"140 1226 LINE",
"140 1335 OFFCURVE",
"215 1415 OFFCURVE",
"356 1415 CURVE SMOOTH",
"485 1415 OFFCURVE",
"551 1350 OFFCURVE",
"551 1247 CURVE SMOOTH",
"551 1188 OFFCURVE",
"503 1110 OFFCURVE",
"408 1013 CURVE SMOOTH",
"108 708 LINE",
"108 664 LINE",
"651 664 LINE",
"651 713 LINE",
"175 713 LINE"
);
}
);
width = 728;
}
);
note = twosuperior;
unicode = 00B2;
},
{
glyphname = threesuperior;
lastChange = "2017-04-17 15:01:56 +0000";
layers = (
{
layerId = "E48BBF63-6980-4D0E-B72F-9E9EC78D2D9A";
paths = (
{
closed = 1;
nodes = (
"499 1041 OFFCURVE",
"583 985 OFFCURVE",
"583 874 CURVE SMOOTH",
"583 759 OFFCURVE",
"511 701 OFFCURVE",
"367 701 CURVE SMOOTH",
"232 701 OFFCURVE",
"134 776 OFFCURVE",
"134 881 CURVE",
"80 881 LINE",
"80 725 OFFCURVE",
"230 653 OFFCURVE",
"367 653 CURVE SMOOTH",
"522 653 OFFCURVE",
"637 734 OFFCURVE",
"637 875 CURVE SMOOTH",
"637 976 OFFCURVE",
"579 1040 OFFCURVE",
"464 1068 CURVE",
"561 1099 OFFCURVE",
"618 1170 OFFCURVE",
"618 1246 CURVE SMOOTH",
"618 1385 OFFCURVE",
"517 1464 OFFCURVE",
"362 1464 CURVE SMOOTH",
"215 1464 OFFCURVE",
"97 1377 OFFCURVE",
"97 1246 CURVE",
"150 1246 LINE",
"150 1350 OFFCURVE",
"243 1415 OFFCURVE",
"362 1415 CURVE SMOOTH",
"502 1415 OFFCURVE",
"564 1341 OFFCURVE",
"564 1249 CURVE SMOOTH",
"564 1162 OFFCURVE",
"486 1090 OFFCURVE",
"341 1090 CURVE SMOOTH",
"270 1090 LINE",
"270 1041 LINE",
"332 1041 LINE SMOOTH"
);
}
);
width = 728;
}
);
note = threesuperior;
unicode = 00B3;
},
{
glyphname = acute;
lastChange = "2017-04-17 15:01:56 +0000";
layers = (
{
layerId = "E48BBF63-6980-4D0E-B72F-9E9EC78D2D9A";
paths = (
{
closed = 1;
nodes = (
"381 1536 LINE",
"315 1536 LINE",
"126 1270 LINE",
"186 1270 LINE"
);
}
);
width = 511;
}
);
note = acute;
unicode = 00B4;
},
{
glyphname = mu;
lastChange = "2017-04-17 15:01:56 +0000";
layers = (
{
layerId = "E48BBF63-6980-4D0E-B72F-9E9EC78D2D9A";
paths = (
{
closed = 1;
nodes = (
"713 -20 OFFCURVE",
"833 55 OFFCURVE",
"900 204 CURVE",
"902 0 LINE",
"953 0 LINE",
"953 1082 LINE",
"899 1082 LINE",
"899 413 LINE",
"883 196 OFFCURVE",
"801 34 OFFCURVE",
"529 34 CURVE SMOOTH",
"373 34 OFFCURVE",
"224 116 OFFCURVE",
"223 435 CURVE",
"223 1082 LINE",
"171 1082 LINE",
"171 -416 LINE",
"223 -416 LINE",
"223 171 LINE",
"291 28 OFFCURVE",
"414 -20 OFFCURVE",
"538 -20 CURVE SMOOTH"
);
}
);
width = 1121;
}
);
note = mu;
unicode = 00B5;
},
{
glyphname = paragraph;
lastChange = "2017-04-17 15:01:56 +0000";
layers = (
{
layerId = "E48BBF63-6980-4D0E-B72F-9E9EC78D2D9A";
paths = (
{
closed = 1;
nodes = (
"591 1456 LINE SMOOTH",
"272 1456 OFFCURVE",
"99 1256 OFFCURVE",
"99 988 CURVE SMOOTH",
"99 720 OFFCURVE",
"271 523 OFFCURVE",
"584 520 CURVE SMOOTH",
"716 520 LINE",
"716 0 LINE",
"770 0 LINE",
"770 1456 LINE"
);
}
);
width = 946;
}
);
note = paragraph;
unicode = 00B6;
},
{
glyphname = periodcentered;
lastChange = "2017-04-17 15:01:56 +0000";
layers = (
{
layerId = "E48BBF63-6980-4D0E-B72F-9E9EC78D2D9A";
paths = (
{
closed = 1;
nodes = (
"179 669 OFFCURVE",
"197 651 OFFCURVE",
"234 651 CURVE SMOOTH",
"271 651 OFFCURVE",
"290 669 OFFCURVE",
"290 706 CURVE SMOOTH",
"290 743 OFFCURVE",
"271 762 OFFCURVE",
"234 762 CURVE SMOOTH",
"197 762 OFFCURVE",
"179 743 OFFCURVE",
"179 706 CURVE SMOOTH"
);
}
);
width = 472;
}
);
note = periodcentered;
unicode = 00B7;
},
{
glyphname = cedilla;
lastChange = "2017-04-17 15:01:56 +0000";
layers = (
{
layerId = "E48BBF63-6980-4D0E-B72F-9E9EC78D2D9A";
paths = (
{
closed = 1;
nodes = (
"253 -134 OFFCURVE",
"318 -157 OFFCURVE",
"318 -245 CURVE SMOOTH",
"318 -344 OFFCURVE",
"188 -386 OFFCURVE",
"81 -386 CURVE",
"88 -435 LINE",
"264 -435 OFFCURVE",
"373 -358 OFFCURVE",
"373 -245 CURVE SMOOTH",
"373 -124 OFFCURVE",
"285 -85 OFFCURVE",
"196 -76 CURVE",
"207 0 LINE",
"154 0 LINE",
"129 -121 LINE"
);
}
);
width = 490;
}
);
note = cedilla;
unicode = 00B8;
},
{
glyphname = onesuperior;
lastChange = "2017-04-17 15:01:56 +0000";
layers = (
{
layerId = "E48BBF63-6980-4D0E-B72F-9E9EC78D2D9A";
paths = (
{
closed = 1;
nodes = (
"131 1358 LINE",
"131 1305 LINE",
"379 1386 LINE",
"379 664 LINE",
"433 664 LINE",
"433 1455 LINE",
"424 1455 LINE"
);
}
);
width = 728;
}
);
note = onesuperior;
unicode = 00B9;
},
{
glyphname = ordmasculine;
lastChange = "2017-04-17 15:01:56 +0000";
layers = (
{
layerId = "E48BBF63-6980-4D0E-B72F-9E9EC78D2D9A";
paths = (
{
closed = 1;
nodes = (
"148 829 OFFCURVE",
"265 690 OFFCURVE",
"454 690 CURVE SMOOTH",
"642 690 OFFCURVE",
"757 829 OFFCURVE",
"757 1024 CURVE SMOOTH",
"757 1141 LINE SMOOTH",
"757 1336 OFFCURVE",
"641 1476 OFFCURVE",
"452 1476 CURVE SMOOTH",
"264 1476 OFFCURVE",
"148 1336 OFFCURVE",
"148 1141 CURVE SMOOTH",
"148 1024 LINE SMOOTH"
);
},
{
closed = 1;
nodes = (
"202 1294 OFFCURVE",
"284 1422 OFFCURVE",
"452 1422 CURVE SMOOTH",
"623 1422 OFFCURVE",
"704 1294 OFFCURVE",
"704 1141 CURVE SMOOTH",
"704 1024 LINE SMOOTH",
"704 869 OFFCURVE",
"622 744 OFFCURVE",
"454 744 CURVE SMOOTH",
"278 744 OFFCURVE",
"202 869 OFFCURVE",
"202 1024 CURVE SMOOTH",
"202 1141 LINE SMOOTH"
);
}
);
width = 914;
}
);
note = ordmasculine;
unicode = 00BA;
},
{
glyphname = guillemotright;
lastChange = "2017-04-17 15:01:56 +0000";
layers = (
{
layerId = "E48BBF63-6980-4D0E-B72F-9E9EC78D2D9A";
paths = (
{
closed = 1;
nodes = (
"422 551 LINE",
"128 171 LINE",
"198 171 LINE",
"492 541 LINE",
"492 560 LINE",
"198 940 LINE",
"128 940 LINE"
);
},
{
closed = 1;
nodes = (
"712 551 LINE",
"418 171 LINE",
"488 171 LINE",
"782 541 LINE",
"782 560 LINE",
"488 940 LINE",
"418 940 LINE"
);
}
);
width = 897;
}
);
note = guillemotright;
unicode = 00BB;
},
{
glyphname = onequarter;
lastChange = "2017-04-17 15:01:56 +0000";
layers = (
{
layerId = "E48BBF63-6980-4D0E-B72F-9E9EC78D2D9A";
paths = (
{
closed = 1;
nodes = (
"145 1358 LINE",
"145 1305 LINE",
"393 1386 LINE",
"393 664 LINE",
"447 664 LINE",
"447 1455 LINE",
"438 1455 LINE"
);
},
{
closed = 1;
nodes = (
"341 170 LINE",
"386 139 LINE",
"1097 1277 LINE",
"1052 1308 LINE"
);
},
{
closed = 1;
nodes = (
"1172 204 LINE",
"1172 0 LINE",
"1225 0 LINE",
"1225 204 LINE",
"1372 204 LINE",
"1372 253 LINE",
"1225 253 LINE",
"1225 789 LINE",
"1165 789 LINE",
"748 236 LINE",
"749 204 LINE"
);
},
{
closed = 1;
nodes = (
"1172 727 LINE",
"1172 253 LINE",
"818 253 LINE",
"1128 656 LINE"
);
}
);
width = 1467;
}
);
note = onequarter;
unicode = 00BC;
},
{
glyphname = onehalf;
lastChange = "2017-04-17 15:01:56 +0000";
layers = (
{
layerId = "E48BBF63-6980-4D0E-B72F-9E9EC78D2D9A";
paths = (
{
closed = 1;
nodes = (
"298 170 LINE",
"343 139 LINE",
"1054 1277 LINE",
"1009 1308 LINE"
);
},
{
closed = 1;
nodes = (
"121 1358 LINE",
"121 1305 LINE",
"369 1386 LINE",
"369 664 LINE",
"423 664 LINE",
"423 1455 LINE",
"414 1455 LINE"
);
},
{
closed = 1;
nodes = (
"1167 297 LINE SMOOTH",
"1258 392 OFFCURVE",
"1346 485 OFFCURVE",
"1346 584 CURVE SMOOTH",
"1346 720 OFFCURVE",
"1246 800 OFFCURVE",
"1097 800 CURVE SMOOTH",
"929 800 OFFCURVE",
"827 693 OFFCURVE",
"827 562 CURVE",
"881 562 LINE",
"881 671 OFFCURVE",
"956 751 OFFCURVE",
"1097 751 CURVE SMOOTH",
"1226 751 OFFCURVE",
"1292 686 OFFCURVE",
"1292 583 CURVE SMOOTH",
"1292 524 OFFCURVE",
"1244 446 OFFCURVE",
"1149 349 CURVE SMOOTH",
"849 44 LINE",
"849 0 LINE",
"1392 0 LINE",
"1392 49 LINE",
"916 49 LINE"
);
}
);
width = 1508;
}
);
note = onehalf;
unicode = 00BD;
},
{
glyphname = threequarters;
lastChange = "2017-04-17 15:01:56 +0000";
layers = (
{
layerId = "E48BBF63-6980-4D0E-B72F-9E9EC78D2D9A";
paths = (
{
closed = 1;
nodes = (
"503 170 LINE",
"548 139 LINE",
"1259 1277 LINE",
"1214 1308 LINE"
);
},
{
closed = 1;
nodes = (
"1312 204 LINE",
"1312 0 LINE",
"1365 0 LINE",
"1365 204 LINE",
"1512 204 LINE",
"1512 253 LINE",
"1365 253 LINE",
"1365 789 LINE",
"1305 789 LINE",
"888 236 LINE",
"889 204 LINE"
);
},
{
closed = 1;
nodes = (
"1312 727 LINE",
"1312 253 LINE",
"958 253 LINE",
"1268 656 LINE"
);
},
{
closed = 1;
nodes = (
"543 1041 OFFCURVE",
"627 985 OFFCURVE",
"627 874 CURVE SMOOTH",
"627 759 OFFCURVE",
"555 701 OFFCURVE",
"411 701 CURVE SMOOTH",
"276 701 OFFCURVE",
"178 776 OFFCURVE",
"178 881 CURVE",
"124 881 LINE",
"124 725 OFFCURVE",
"274 653 OFFCURVE",
"411 653 CURVE SMOOTH",
"566 653 OFFCURVE",
"681 734 OFFCURVE",
"681 875 CURVE SMOOTH",
"681 976 OFFCURVE",
"623 1040 OFFCURVE",
"508 1068 CURVE",
"605 1099 OFFCURVE",
"662 1170 OFFCURVE",
"662 1246 CURVE SMOOTH",
"662 1385 OFFCURVE",
"561 1464 OFFCURVE",
"406 1464 CURVE SMOOTH",
"259 1464 OFFCURVE",
"141 1377 OFFCURVE",
"141 1246 CURVE",
"194 1246 LINE",
"194 1350 OFFCURVE",
"287 1415 OFFCURVE",
"406 1415 CURVE SMOOTH",
"546 1415 OFFCURVE",
"608 1341 OFFCURVE",
"608 1249 CURVE SMOOTH",
"608 1162 OFFCURVE",
"530 1090 OFFCURVE",
"385 1090 CURVE SMOOTH",
"314 1090 LINE",
"314 1041 LINE",
"376 1041 LINE SMOOTH"
);
}
);
width = 1586;
}
);
note = threequarters;
unicode = 00BE;
},
{
glyphname = questiondown;
lastChange = "2017-04-17 15:01:56 +0000";
layers = (
{
layerId = "E48BBF63-6980-4D0E-B72F-9E9EC78D2D9A";
paths = (
{
closed = 1;
nodes = (
"538 1083 OFFCURVE",
"520 1101 OFFCURVE",
"483 1101 CURVE SMOOTH",
"446 1101 OFFCURVE",
"427 1083 OFFCURVE",
"427 1046 CURVE SMOOTH",
"427 1009 OFFCURVE",
"446 990 OFFCURVE",
"483 990 CURVE SMOOTH",
"520 990 OFFCURVE",
"538 1009 OFFCURVE",
"538 1046 CURVE SMOOTH"
);
},
{
closed = 1;
nodes = (
"460 580 OFFCURVE",
"460 522 OFFCURVE",
"361 445 CURVE",
"210 310 OFFCURVE",
"108 188 OFFCURVE",
"108 -15 CURVE SMOOTH",
"108 -232 OFFCURVE",
"238 -381 OFFCURVE",
"461 -381 CURVE SMOOTH",
"657 -381 OFFCURVE",
"813 -262 OFFCURVE",
"816 -21 CURVE",
"762 -21 LINE",
"758 -201 OFFCURVE",
"654 -328 OFFCURVE",
"461 -328 CURVE SMOOTH",
"268 -328 OFFCURVE",
"162 -210 OFFCURVE",
"162 -17 CURVE SMOOTH",
"162 192 OFFCURVE",
"268 286 OFFCURVE",
"389 403 CURVE SMOOTH",
"508 511 OFFCURVE",
"511 547 OFFCURVE",
"514 695 CURVE",
"460 695 LINE"
);
}
);
width = 912;
}
);
note = questiondown;
unicode = 00BF;
},
{
glyphname = AE;
lastChange = "2017-04-17 15:01:56 +0000";
layers = (
{
layerId = "E48BBF63-6980-4D0E-B72F-9E9EC78D2D9A";
paths = (
{
closed = 1;
nodes = (
"1039 732 LINE",
"1625 732 LINE",
"1625 786 LINE",
"1037 786 LINE",
"1011 1402 LINE",
"1707 1402 LINE",
"1707 1456 LINE",
"931 1456 LINE",
"50 0 LINE",
"115 0 LINE",
"371 425 LINE",
"998 425 LINE",
"1016 0 LINE",
"1768 0 LINE",
"1768 54 LINE",
"1068 54 LINE"
);
},
{
closed = 1;
nodes = (
"996 478 LINE",
"403 478 LINE",
"957 1399 LINE"
);
}
);
width = 1816;
}
);
note = AE;
unicode = 00C6;
},
{
glyphname = multiply;
lastChange = "2017-04-17 15:01:56 +0000";
layers = (
{
layerId = "E48BBF63-6980-4D0E-B72F-9E9EC78D2D9A";
paths = (
{
closed = 1;
nodes = (
"916 793 LINE",
"877 832 LINE",
"521 468 LINE",
"164 832 LINE",
"125 793 LINE",
"483 429 LINE",
"98 36 LINE",
"137 -1 LINE",
"521 390 LINE",
"905 -1 LINE",
"944 36 LINE",
"559 429 LINE"
);
}
);
width = 1052;
}
);
note = multiply;
unicode = 00D7;
},
{
glyphname = Oslash;
lastChange = "2017-04-17 15:01:56 +0000";
layers = (
{
layerId = "E48BBF63-6980-4D0E-B72F-9E9EC78D2D9A";
paths = (
{
closed = 1;
nodes = (
"1018 -20 OFFCURVE",
"1231 239 OFFCURVE",
"1231 619 CURVE SMOOTH",
"1231 849 LINE",
"1229 1021 OFFCURVE",
"1186 1163 OFFCURVE",
"1101 1275 CURVE",
"1240 1495 LINE",
"1174 1495 LINE",
"1063 1320 LINE",
"964 1424 OFFCURVE",
"836 1476 OFFCURVE",
"681 1476 CURVE SMOOTH",
"346 1476 OFFCURVE",
"133 1217 OFFCURVE",
"133 837 CURVE SMOOTH",
"133 612 LINE SMOOTH",
"134 407 OFFCURVE",
"192 247 OFFCURVE",
"307 130 CURVE",
"177 -75 LINE",
"243 -75 LINE",
"349 92 LINE",
"442 17 OFFCURVE",
"553 -20 OFFCURVE",
"683 -20 CURVE SMOOTH"
);
},
{
closed = 1;
nodes = (
"188 1180 OFFCURVE",
"369 1422 OFFCURVE",
"681 1422 CURVE SMOOTH",
"827 1422 OFFCURVE",
"945 1373 OFFCURVE",
"1034 1274 CURVE",
"337 177 LINE",
"238 284 OFFCURVE",
"188 431 OFFCURVE",
"188 619 CURVE SMOOTH",
"188 839 LINE SMOOTH"
);
},
{
closed = 1;
nodes = (
"1177 276 OFFCURVE",
"996 34 OFFCURVE",
"683 34 CURVE SMOOTH",
"562 34 OFFCURVE",
"461 69 OFFCURVE",
"378 138 CURVE",
"1070 1227 LINE",
"1141 1124 OFFCURVE",
"1177 995 OFFCURVE",
"1177 839 CURVE SMOOTH",
"1177 619 LINE SMOOTH"
);
}
);
width = 1364;
}
);
leftKerningGroup = C;
note = Oslash;
unicode = 00D8;
},
{
glyphname = Thorn;
lastChange = "2017-04-17 15:01:56 +0000";
layers = (
{
layerId = "E48BBF63-6980-4D0E-B72F-9E9EC78D2D9A";
paths = (
{
closed = 1;
nodes = (
"916 334 OFFCURVE",
"1075 505 OFFCURVE",
"1075 738 CURVE SMOOTH",
"1075 970 OFFCURVE",
"916 1142 OFFCURVE",
"629 1143 CURVE SMOOTH",
"254 1143 LINE",
"254 1456 LINE",
"200 1456 LINE",
"200 0 LINE",
"254 0 LINE",
"254 334 LINE",
"625 334 LINE SMOOTH"
);
},
{
closed = 1;
nodes = (
"906 1089 OFFCURVE",
"1021 909 OFFCURVE",
"1021 736 CURVE SMOOTH",
"1021 571 OFFCURVE",
"906 388 OFFCURVE",
"625 388 CURVE SMOOTH",
"254 388 LINE",
"254 1089 LINE",
"625 1089 LINE SMOOTH"
);
}
);
width = 1219;
}
);
note = Thorn;
unicode = 00DE;
},
{
glyphname = germandbls;
lastChange = "2017-04-17 15:01:56 +0000";
layers = (
{
layerId = "E48BBF63-6980-4D0E-B72F-9E9EC78D2D9A";
paths = (
{
closed = 1;
nodes = (
"218 1390 OFFCURVE",
"331 1481 OFFCURVE",
"503 1481 CURVE SMOOTH",
"624 1481 OFFCURVE",
"744 1384 OFFCURVE",
"744 1259 CURVE SMOOTH",
"744 1200 OFFCURVE",
"734 1150 OFFCURVE",
"715 1111 CURVE SMOOTH",
"680 1040 OFFCURVE",
"631 968 OFFCURVE",
"631 831 CURVE SMOOTH",
"631 708 OFFCURVE",
"720 631 OFFCURVE",
"820 563 CURVE SMOOTH",
"919 494 OFFCURVE",
"1008 421 OFFCURVE",
"1008 306 CURVE SMOOTH",
"1008 159 OFFCURVE",
"875 32 OFFCURVE",
"687 32 CURVE SMOOTH",
"582 32 OFFCURVE",
"461 76 OFFCURVE",
"408 117 CURVE",
"383 68 LINE",
"438 20 OFFCURVE",
"579 -21 OFFCURVE",
"695 -21 CURVE SMOOTH",
"750 -21 OFFCURVE",
"805 -8 OFFCURVE",
"862 17 CURVE SMOOTH",
"975 67 OFFCURVE",
"1062 162 OFFCURVE",
"1062 297 CURVE SMOOTH",
"1062 433 OFFCURVE",
"973 516 OFFCURVE",
"874 587 CURVE SMOOTH",
"774 658 OFFCURVE",
"685 725 OFFCURVE",
"685 829 CURVE SMOOTH",
"685 968 OFFCURVE",
"734 1033 OFFCURVE",
"774 1107 CURVE SMOOTH",
"794 1144 OFFCURVE",
"804 1194 OFFCURVE",
"804 1257 CURVE SMOOTH",
"804 1425 OFFCURVE",
"652 1535 OFFCURVE",
"493 1535 CURVE SMOOTH",
"281 1535 OFFCURVE",
"164 1396 OFFCURVE",
"164 1143 CURVE SMOOTH",
"164 0 LINE",
"218 0 LINE",
"218 1143 LINE SMOOTH"
);
}
);
width = 1183;
}
);
note = germandbls;
unicode = 00DF;
},
{
glyphname = ae;
lastChange = "2017-04-17 15:01:56 +0000";
layers = (
{
layerId = "E48BBF63-6980-4D0E-B72F-9E9EC78D2D9A";
paths = (
{
closed = 1;
nodes = (
"1513 77 OFFCURVE",
"1403 34 OFFCURVE",
"1268 34 CURVE SMOOTH",
"989 34 OFFCURVE",
"870 241 OFFCURVE",
"870 500 CURVE SMOOTH",
"870 577 LINE",
"1657 577 LINE",
"1657 660 LINE SMOOTH",
"1657 935 OFFCURVE",
"1505 1102 OFFCURVE",
"1253 1102 CURVE SMOOTH",
"1077 1102 OFFCURVE",
"930 991 OFFCURVE",
"861 815 CURVE",
"829 1006 OFFCURVE",
"704 1102 OFFCURVE",
"521 1102 CURVE SMOOTH",
"276 1102 OFFCURVE",
"121 965 OFFCURVE",
"121 778 CURVE",
"174 771 LINE",
"174 930 OFFCURVE",
"300 1048 OFFCURVE",
"521 1048 CURVE SMOOTH",
"720 1048 OFFCURVE",
"813 928 OFFCURVE",
"813 720 CURVE SMOOTH",
"813 630 LINE",
"523 630 LINE SMOOTH",
"242 630 OFFCURVE",
"93 489 OFFCURVE",
"93 284 CURVE SMOOTH",
"93 100 OFFCURVE",
"220 -20 OFFCURVE",
"448 -20 CURVE SMOOTH",
"681 -20 OFFCURVE",
"820 111 OFFCURVE",
"869 218 CURVE",
"868 218 LINE",
"868 230 LINE",
"937 77 OFFCURVE",
"1073 -20 OFFCURVE",
"1268 -20 CURVE SMOOTH",
"1460 -20 OFFCURVE",
"1559 50 OFFCURVE",
"1630 122 CURVE",
"1600 164 LINE"
);
},
{
closed = 1;
nodes = (
"1484 1048 OFFCURVE",
"1603 880 OFFCURVE",
"1603 664 CURVE SMOOTH",
"1603 632 LINE",
"873 632 LINE",
"896 868 OFFCURVE",
"1036 1048 OFFCURVE",
"1253 1048 CURVE SMOOTH"
);
},
{
closed = 1;
nodes = (
"254 32 OFFCURVE",
"148 125 OFFCURVE",
"148 280 CURVE SMOOTH",
"148 439 OFFCURVE",
"268 575 OFFCURVE",
"525 575 CURVE SMOOTH",
"813 575 LINE",
"813 226 LINE",
"789 154 OFFCURVE",
"638 32 OFFCURVE",
"447 32 CURVE SMOOTH"
);
}
);
width = 1735;
}
);
note = ae;
unicode = 00E6;
},
{
glyphname = eth;
lastChange = "2017-04-17 15:01:56 +0000";
layers = (
{
layerId = "E48BBF63-6980-4D0E-B72F-9E9EC78D2D9A";
paths = (
{
closed = 1;
nodes = (
"1038 919 OFFCURVE",
"959 1145 OFFCURVE",
"802 1308 CURVE",
"991 1413 LINE",
"962 1461 LINE",
"760 1348 LINE",
"659 1439 OFFCURVE",
"525 1516 OFFCURVE",
"358 1577 CURVE",
"338 1527 LINE",
"493 1470 OFFCURVE",
"617 1401 OFFCURVE",
"709 1320 CURVE",
"489 1197 LINE",
"517 1149 LINE",
"752 1280 LINE",
"878 1153 OFFCURVE",
"953 986 OFFCURVE",
"978 780 CURVE",
"898 892 OFFCURVE",
"752 953 OFFCURVE",
"601 953 CURVE SMOOTH",
"333 953 OFFCURVE",
"173 776 OFFCURVE",
"173 465 CURVE SMOOTH",
"173 194 OFFCURVE",
"361 -20 OFFCURVE",
"629 -20 CURVE SMOOTH",
"869 -20 OFFCURVE",
"1041 206 OFFCURVE",
"1041 535 CURVE SMOOTH",
"1041 630 LINE"
);
},
{
closed = 1;
nodes = (
"228 705 OFFCURVE",
"338 895 OFFCURVE",
"601 895 CURVE SMOOTH",
"814 895 OFFCURVE",
"939 781 OFFCURVE",
"986 672 CURVE",
"987 617 LINE",
"987 535 LINE SMOOTH",
"987 246 OFFCURVE",
"850 38 OFFCURVE",
"633 38 CURVE SMOOTH",
"372 38 OFFCURVE",
"228 250 OFFCURVE",
"228 465 CURVE SMOOTH"
);
}
);
width = 1183;
}
);
note = eth;
unicode = 00F0;
},
{
glyphname = divide;
lastChange = "2017-04-17 15:01:56 +0000";
layers = (
{
layerId = "E48BBF63-6980-4D0E-B72F-9E9EC78D2D9A";
paths = (
{
closed = 1;
nodes = (
"529 1042 OFFCURVE",
"547 1024 OFFCURVE",
"584 1024 CURVE SMOOTH",
"621 1024 OFFCURVE",
"640 1042 OFFCURVE",
"640 1079 CURVE SMOOTH",
"640 1116 OFFCURVE",
"621 1135 OFFCURVE",
"584 1135 CURVE SMOOTH",
"547 1135 OFFCURVE",
"529 1116 OFFCURVE",
"529 1079 CURVE SMOOTH"
);
},
{
closed = 1;
nodes = (
"73 686 LINE",
"1071 686 LINE",
"1071 738 LINE",
"73 738 LINE"
);
},
{
closed = 1;
nodes = (
"529 264 OFFCURVE",
"547 246 OFFCURVE",
"584 246 CURVE SMOOTH",
"621 246 OFFCURVE",
"640 264 OFFCURVE",
"640 301 CURVE SMOOTH",
"640 338 OFFCURVE",
"621 357 OFFCURVE",
"584 357 CURVE SMOOTH",
"547 357 OFFCURVE",
"529 338 OFFCURVE",
"529 301 CURVE SMOOTH"
);
}
);
width = 1159;
}
);
note = divide;
unicode = 00F7;
},
{
glyphname = oslash;
lastChange = "2017-04-17 15:01:56 +0000";
layers = (
{
layerId = "E48BBF63-6980-4D0E-B72F-9E9EC78D2D9A";
paths = (
{
closed = 1;
nodes = (
"843 -20 OFFCURVE",
"1034 203 OFFCURVE",
"1034 520 CURVE SMOOTH",
"1034 571 LINE",
"1032 770 OFFCURVE",
"965 919 OFFCURVE",
"832 1016 CURVE",
"931 1219 LINE",
"868 1219 LINE",
"784 1047 LINE",
"717 1084 OFFCURVE",
"643 1102 OFFCURVE",
"560 1102 CURVE SMOOTH",
"280 1102 OFFCURVE",
"87 879 OFFCURVE",
"87 562 CURVE SMOOTH",
"87 520 LINE SMOOTH",
"87 315 OFFCURVE",
"168 148 OFFCURVE",
"303 57 CURVE",
"205 -145 LINE",
"268 -145 LINE",
"352 28 LINE",
"415 -4 OFFCURVE",
"485 -20 OFFCURVE",
"562 -20 CURVE SMOOTH"
);
},
{
closed = 1;
nodes = (
"141 815 OFFCURVE",
"296 1048 OFFCURVE",
"560 1048 CURVE SMOOTH",
"633 1048 OFFCURVE",
"700 1031 OFFCURVE",
"759 996 CURVE",
"328 107 LINE",
"207 195 OFFCURVE",
"141 351 OFFCURVE",
"141 520 CURVE SMOOTH",
"141 562 LINE SMOOTH"
);
},
{
closed = 1;
nodes = (
"980 261 OFFCURVE",
"825 34 OFFCURVE",
"562 34 CURVE SMOOTH",
"494 34 OFFCURVE",
"432 48 OFFCURVE",
"376 77 CURVE",
"807 963 LINE",
"919 872 OFFCURVE",
"980 722 OFFCURVE",
"980 562 CURVE SMOOTH",
"980 520 LINE SMOOTH"
);
}
);
width = 1121;
}
);
note = oslash;
unicode = 00F8;
},
{
glyphname = thorn;
lastChange = "2017-04-17 15:01:56 +0000";
layers = (
{
layerId = "E48BBF63-6980-4D0E-B72F-9E9EC78D2D9A";
paths = (
{
closed = 1;
nodes = (
"849 -20 OFFCURVE",
"999 202 OFFCURVE",
"999 531 CURVE SMOOTH",
"999 551 LINE SMOOTH",
"999 894 OFFCURVE",
"848 1102 OFFCURVE",
"591 1102 CURVE SMOOTH",
"416 1102 OFFCURVE",
"295 1017 OFFCURVE",
"224 889 CURVE",
"224 1536 LINE",
"170 1536 LINE",
"170 -416 LINE",
"224 -416 LINE",
"224 169 LINE",
"292 60 OFFCURVE",
"417 -20 OFFCURVE",
"593 -20 CURVE SMOOTH"
);
},
{
closed = 1;
nodes = (
"829 1048 OFFCURVE",
"944 839 OFFCURVE",
"944 552 CURVE SMOOTH",
"944 531 LINE SMOOTH",
"944 243 OFFCURVE",
"830 34 OFFCURVE",
"594 34 CURVE SMOOTH",
"395 34 OFFCURVE",
"275 134 OFFCURVE",
"224 269 CURVE",
"224 775 LINE",
"265 902 OFFCURVE",
"363 1048 OFFCURVE",
"592 1048 CURVE SMOOTH"
);
}
);
width = 1121;
}
);
note = thorn;
rightKerningGroup = b;
unicode = 00FE;
},
{
glyphname = dcroat;
lastChange = "2017-04-17 15:01:56 +0000";
layers = (
{
layerId = "E48BBF63-6980-4D0E-B72F-9E9EC78D2D9A";
paths = (
{
closed = 1;
nodes = (
"951 1281 LINE",
"1111 1281 LINE",
"1111 1335 LINE",
"951 1335 LINE",
"951 1536 LINE",
"897 1536 LINE",
"897 1335 LINE",
"524 1335 LINE",
"524 1281 LINE",
"897 1281 LINE",
"897 883 LINE",
"829 1014 OFFCURVE",
"709 1102 OFFCURVE",
"530 1102 CURVE SMOOTH",
"273 1102 OFFCURVE",
"122 893 OFFCURVE",
"122 552 CURVE SMOOTH",
"122 531 LINE SMOOTH",
"122 202 OFFCURVE",
"272 -20 OFFCURVE",
"528 -20 CURVE SMOOTH",
"707 -20 OFFCURVE",
"830 62 OFFCURVE",
"897 174 CURVE",
"897 0 LINE",
"951 0 LINE"
);
},
{
closed = 1;
nodes = (
"179 841 OFFCURVE",
"292 1048 OFFCURVE",
"529 1048 CURVE SMOOTH",
"758 1048 OFFCURVE",
"856 902 OFFCURVE",
"897 775 CURVE",
"897 269 LINE",
"846 134 OFFCURVE",
"726 34 OFFCURVE",
"527 34 CURVE SMOOTH",
"291 34 OFFCURVE",
"178 243 OFFCURVE",
"178 531 CURVE SMOOTH",
"178 557 LINE SMOOTH"
);
}
);
width = 1121;
}
);
note = dcroat;
unicode = 0111;
},
{
glyphname = Hbar;
lastChange = "2017-04-17 15:01:56 +0000";
layers = (
{
layerId = "E48BBF63-6980-4D0E-B72F-9E9EC78D2D9A";
paths = (
{
closed = 1;
nodes = (
"1197 1028 LINE",
"1352 1028 LINE",
"1352 1081 LINE",
"1197 1081 LINE",
"1197 1456 LINE",
"1143 1456 LINE",
"1143 1081 LINE",
"213 1081 LINE",
"213 1456 LINE",
"159 1456 LINE",
"159 1081 LINE",
"20 1081 LINE",
"20 1028 LINE",
"159 1028 LINE",
"159 0 LINE",
"213 0 LINE",
"213 722 LINE",
"1143 722 LINE",
"1143 0 LINE",
"1197 0 LINE"
);
},
{
closed = 1;
nodes = (
"1143 1028 LINE",
"1143 776 LINE",
"213 776 LINE",
"213 1028 LINE"
);
}
);
width = 1389;
}
);
note = Hbar;
unicode = 0126;
},
{
glyphname = dotlessi;
lastChange = "2017-04-17 15:01:56 +0000";
layers = (
{
layerId = "E48BBF63-6980-4D0E-B72F-9E9EC78D2D9A";
paths = (
{
closed = 1;
nodes = (
"181 0 LINE",
"235 0 LINE",
"235 1082 LINE",
"181 1082 LINE"
);
}
);
width = 406;
}
);
note = dotlessi;
unicode = 0131;
},
{
glyphname = kgreenlandic;
lastChange = "2017-04-17 15:01:56 +0000";
layers = (
{
layerId = "E48BBF63-6980-4D0E-B72F-9E9EC78D2D9A";
paths = (
{
closed = 1;
nodes = (
"454 553 LINE",
"962 1082 LINE",
"893 1082 LINE",
"404 582 LINE",
"226 582 LINE",
"226 1082 LINE",
"171 1082 LINE",
"171 0 LINE",
"226 0 LINE",
"226 529 LINE",
"394 529 LINE",
"954 0 LINE",
"1025 0 LINE"
);
}
);
width = 1084;
}
);
note = kgreenlandic;
unicode = 0138;
},
{
glyphname = Lslash;
lastChange = "2017-04-17 15:01:56 +0000";
layers = (
{
layerId = "E48BBF63-6980-4D0E-B72F-9E9EC78D2D9A";
paths = (
{
closed = 1;
nodes = (
"247 734 LINE",
"598 845 LINE",
"598 902 LINE",
"247 791 LINE",
"247 1456 LINE",
"192 1456 LINE",
"192 773 LINE",
"8 715 LINE",
"8 658 LINE",
"192 716 LINE",
"192 0 LINE",
"994 0 LINE",
"994 54 LINE",
"247 54 LINE"
);
}
);
width = 1061;
}
);
note = Lslash;
unicode = 0141;
},
{
glyphname = lslash;
lastChange = "2017-04-17 15:01:56 +0000";
layers = (
{
layerId = "E48BBF63-6980-4D0E-B72F-9E9EC78D2D9A";
paths = (
{
closed = 1;
nodes = (
"286 850 LINE",
"286 1536 LINE",
"232 1536 LINE",
"232 829 LINE",
"17 743 LINE",
"17 684 LINE",
"232 770 LINE",
"232 0 LINE",
"286 0 LINE",
"286 791 LINE",
"487 871 LINE",
"487 930 LINE"
);
}
);
width = 505;
}
);
note = lslash;
unicode = 0142;
},
{
glyphname = Eng;
lastChange = "2017-04-17 15:01:56 +0000";
layers = (
{
layerId = "E48BBF63-6980-4D0E-B72F-9E9EC78D2D9A";
paths = (
{
closed = 1;
nodes = (
"254 1364 LINE",
"1196 0 LINE",
"1196 -101 LINE SMOOTH",
"1193 -289 OFFCURVE",
"1116 -383 OFFCURVE",
"965 -383 CURVE SMOOTH",
"931 -383 OFFCURVE",
"898 -377 OFFCURVE",
"866 -365 CURVE",
"853 -417 LINE",
"893 -430 OFFCURVE",
"930 -437 OFFCURVE",
"965 -437 CURVE SMOOTH",
"1142 -437 OFFCURVE",
"1250 -314 OFFCURVE",
"1250 -89 CURVE SMOOTH",
"1250 1456 LINE",
"1196 1456 LINE",
"1196 93 LINE",
"254 1456 LINE",
"200 1456 LINE",
"200 0 LINE",
"254 0 LINE"
);
}
);
width = 1450;
}
);
note = Eng;
unicode = 014A;
},
{
glyphname = eng;
lastChange = "2017-04-17 15:01:56 +0000";
layers = (
{
layerId = "E48BBF63-6980-4D0E-B72F-9E9EC78D2D9A";
paths = (
{
closed = 1;
nodes = (
"951 969 OFFCURVE",
"829 1102 OFFCURVE",
"600 1102 CURVE SMOOTH",
"411 1102 OFFCURVE",
"288 1010 OFFCURVE",
"224 859 CURVE",
"218 1082 LINE",
"170 1082 LINE",
"170 0 LINE",
"224 0 LINE",
"224 681 LINE",
"252 872 OFFCURVE",
"353 1048 OFFCURVE",
"601 1048 CURVE SMOOTH",
"768 1048 OFFCURVE",
"900 962 OFFCURVE",
"900 639 CURVE SMOOTH",
"900 -89 LINE SMOOTH",
"900 -277 OFFCURVE",
"816 -384 OFFCURVE",
"669 -384 CURVE SMOOTH",
"627 -384 OFFCURVE",
"587 -378 OFFCURVE",
"549 -365 CURVE",
"536 -417 LINE",
"582 -430 OFFCURVE",
"626 -437 OFFCURVE",
"669 -437 CURVE SMOOTH",
"846 -437 OFFCURVE",
"954 -314 OFFCURVE",
"954 -89 CURVE SMOOTH",
"954 648 LINE"
);
}
);
width = 1121;
}
);
note = eng;
unicode = 014B;
},
{
glyphname = OE;
lastChange = "2017-04-17 15:01:56 +0000";
layers = (
{
layerId = "E48BBF63-6980-4D0E-B72F-9E9EC78D2D9A";
paths = (
{
closed = 1;
nodes = (
"969 722 LINE",
"1699 722 LINE",
"1699 776 LINE",
"969 776 LINE",
"969 1402 LINE",
"1801 1402 LINE",
"1801 1456 LINE",
"961 1456 LINE",
"834 1469 OFFCURVE",
"724 1476 OFFCURVE",
"629 1476 CURVE SMOOTH",
"322 1476 OFFCURVE",
"112 1233 OFFCURVE",
"112 880 CURVE SMOOTH",
"112 576 LINE SMOOTH",
"112 223 OFFCURVE",
"324 -21 OFFCURVE",
"631 -21 CURVE SMOOTH",
"718 -21 OFFCURVE",
"828 -14 OFFCURVE",
"961 0 CURVE",
"1801 0 LINE",
"1801 54 LINE",
"969 54 LINE"
);
},
{
closed = 1;
nodes = (
"166 1205 OFFCURVE",
"348 1422 OFFCURVE",
"629 1422 CURVE SMOOTH",
"748 1422 OFFCURVE",
"844 1418 OFFCURVE",
"915 1409 CURVE",
"915 47 LINE",
"840 38 OFFCURVE",
"746 33 OFFCURVE",
"631 33 CURVE SMOOTH",
"350 33 OFFCURVE",
"166 260 OFFCURVE",
"166 576 CURVE SMOOTH",
"166 882 LINE SMOOTH"
);
}
);
width = 1873;
}
);
leftKerningGroup = C;
note = OE;
unicode = 0152;
},
{
glyphname = oe;
lastChange = "2017-04-17 15:01:56 +0000";
layers = (
{
layerId = "E48BBF63-6980-4D0E-B72F-9E9EC78D2D9A";
paths = (
{
closed = 1;
nodes = (
"1713 81 OFFCURVE",
"1612 34 OFFCURVE",
"1444 34 CURVE SMOOTH",
"1217 34 OFFCURVE",
"1044 241 OFFCURVE",
"1044 500 CURVE SMOOTH",
"1044 577 LINE",
"1855 577 LINE",
"1855 660 LINE SMOOTH",
"1855 935 OFFCURVE",
"1681 1102 OFFCURVE",
"1441 1102 CURVE SMOOTH",
"1242 1102 OFFCURVE",
"1075 963 OFFCURVE",
"1015 748 CURVE",
"955 963 OFFCURVE",
"789 1102 OFFCURVE",
"565 1102 CURVE SMOOTH",
"285 1102 OFFCURVE",
"92 879 OFFCURVE",
"92 562 CURVE SMOOTH",
"92 520 LINE SMOOTH",
"92 203 OFFCURVE",
"286 -20 OFFCURVE",
"567 -20 CURVE SMOOTH",
"788 -20 OFFCURVE",
"953 118 OFFCURVE",
"1014 331 CURVE",
"1075 120 OFFCURVE",
"1252 -20 OFFCURVE",
"1444 -20 CURVE SMOOTH",
"1606 -20 OFFCURVE",
"1730 28 OFFCURVE",
"1815 123 CURVE",
"1786 165 LINE"
);
},
{
closed = 1;
nodes = (
"1658 1048 OFFCURVE",
"1801 881 OFFCURVE",
"1801 664 CURVE SMOOTH",
"1801 631 LINE",
"1047 631 LINE",
"1071 867 OFFCURVE",
"1222 1048 OFFCURVE",
"1441 1048 CURVE SMOOTH"
);
},
{
closed = 1;
nodes = (
"146 815 OFFCURVE",
"301 1048 OFFCURVE",
"565 1048 CURVE SMOOTH",
"830 1048 OFFCURVE",
"985 815 OFFCURVE",
"985 562 CURVE SMOOTH",
"985 520 LINE SMOOTH",
"985 261 OFFCURVE",
"830 34 OFFCURVE",
"567 34 CURVE SMOOTH",
"302 34 OFFCURVE",
"146 261 OFFCURVE",
"146 520 CURVE SMOOTH",
"146 562 LINE SMOOTH"
);
}
);
width = 1924;
}
);
leftKerningGroup = c;
note = oe;
unicode = 0153;
},
{
glyphname = longs;
lastChange = "2017-04-17 15:01:56 +0000";
layers = (
{
layerId = "E48BBF63-6980-4D0E-B72F-9E9EC78D2D9A";
paths = (
{
closed = 1;
nodes = (
"228 1405 OFFCURVE",
"314 1503 OFFCURVE",
"457 1503 CURVE SMOOTH",
"502 1503 OFFCURVE",
"541 1498 OFFCURVE",
"576 1488 CURVE",
"584 1540 LINE",
"549 1551 OFFCURVE",
"506 1557 OFFCURVE",
"456 1557 CURVE SMOOTH",
"280 1557 OFFCURVE",
"174 1443 OFFCURVE",
"174 1236 CURVE SMOOTH",
"174 0 LINE",
"228 0 LINE",
"228 1236 LINE SMOOTH"
);
}
);
width = 422;
}
);
note = longs;
unicode = 017F;
},
{
glyphname = uni0181;
lastChange = "2017-04-17 15:01:56 +0000";
layers = (
{
layerId = "E48BBF63-6980-4D0E-B72F-9E9EC78D2D9A";
paths = (
{
closed = 1;
nodes = (
"1293 578 OFFCURVE",
"1154 730 OFFCURVE",
"971 754 CURVE",
"1136 785 OFFCURVE",
"1227 914 OFFCURVE",
"1227 1083 CURVE SMOOTH",
"1227 1340 OFFCURVE",
"1046 1456 OFFCURVE",
"751 1456 CURVE SMOOTH",
"368 1456 LINE SMOOTH",
"143 1456 OFFCURVE",
"20 1350 OFFCURVE",
"20 1171 CURVE SMOOTH",
"20 1136 OFFCURVE",
"27 1099 OFFCURVE",
"40 1059 CURVE",
"92 1072 LINE",
"80 1104 OFFCURVE",
"74 1137 OFFCURVE",
"74 1171 CURVE SMOOTH",
"74 1319 OFFCURVE",
"181 1402 OFFCURVE",
"368 1402 CURVE",
"368 0 LINE",
"843 0 LINE SMOOTH",
"1108 0 OFFCURVE",
"1293 142 OFFCURVE",
"1293 401 CURVE SMOOTH"
);
},
{
closed = 1;
nodes = (
"1038 1397 OFFCURVE",
"1172 1292 OFFCURVE",
"1172 1087 CURVE SMOOTH",
"1172 878 OFFCURVE",
"1038 773 OFFCURVE",
"771 773 CURVE SMOOTH",
"422 773 LINE",
"422 1402 LINE",
"769 1402 LINE SMOOTH"
);
},
{
closed = 1;
nodes = (
"1239 182 OFFCURVE",
"1088 54 OFFCURVE",
"843 54 CURVE SMOOTH",
"422 54 LINE",
"422 719 LINE",
"853 719 LINE SMOOTH",
"1110 719 OFFCURVE",
"1239 566 OFFCURVE",
"1239 399 CURVE SMOOTH"
);
}
);
width = 1403;
}
);
note = uni0181;
unicode = 0181;
},
{
glyphname = uni0183;
lastChange = "2017-04-17 15:01:56 +0000";
layers = (
{
layerId = "E48BBF63-6980-4D0E-B72F-9E9EC78D2D9A";
paths = (
{
closed = 1;
nodes = (
"224 171 LINE",
"292 60 OFFCURVE",
"416 -20 OFFCURVE",
"593 -20 CURVE SMOOTH",
"849 -20 OFFCURVE",
"999 202 OFFCURVE",
"999 531 CURVE SMOOTH",
"999 551 LINE SMOOTH",
"999 894 OFFCURVE",
"848 1102 OFFCURVE",
"591 1102 CURVE SMOOTH",
"415 1102 OFFCURVE",
"293 1015 OFFCURVE",
"224 886 CURVE",
"224 1482 LINE",
"897 1482 LINE",
"897 1536 LINE",
"170 1536 LINE",
"170 0 LINE",
"224 0 LINE"
);
},
{
closed = 1;
nodes = (
"829 1048 OFFCURVE",
"943 839 OFFCURVE",
"943 552 CURVE SMOOTH",
"943 526 LINE SMOOTH",
"942 241 OFFCURVE",
"829 34 OFFCURVE",
"594 34 CURVE SMOOTH",
"393 34 OFFCURVE",
"273 137 OFFCURVE",
"224 274 CURVE",
"224 770 LINE",
"264 897 OFFCURVE",
"359 1048 OFFCURVE",
"592 1048 CURVE SMOOTH"
);
}
);
width = 1121;
}
);
note = uni0183;
rightKerningGroup = b;
unicode = 0183;
},
{
glyphname = uni0184;
lastChange = "2017-04-17 15:01:56 +0000";
layers = (
{
layerId = "E48BBF63-6980-4D0E-B72F-9E9EC78D2D9A";
paths = (
{
closed = 1;
nodes = (
"1097 623 OFFCURVE",
"940 785 OFFCURVE",
"635 788 CURVE SMOOTH",
"257 788 LINE",
"257 1456 LINE",
"203 1456 LINE",
"90 1231 LINE",
"90 1191 LINE",
"203 967 LINE",
"203 0 LINE",
"626 0 LINE SMOOTH",
"937 0 OFFCURVE",
"1097 162 OFFCURVE",
"1097 394 CURVE SMOOTH"
);
},
{
closed = 1;
nodes = (
"635 734 LINE SMOOTH",
"923 731 OFFCURVE",
"1042 571 OFFCURVE",
"1042 396 CURVE SMOOTH",
"1042 212 OFFCURVE",
"922 54 OFFCURVE",
"626 54 CURVE SMOOTH",
"257 54 LINE",
"257 734 LINE"
);
}
);
width = 1202;
}
);
note = uni0184;
unicode = 0184;
},
{
glyphname = uni0185;
lastChange = "2017-04-17 15:01:56 +0000";
layers = (
{
layerId = "E48BBF63-6980-4D0E-B72F-9E9EC78D2D9A";
paths = (
{
closed = 1;
nodes = (
"1012 894 OFFCURVE",
"861 1102 OFFCURVE",
"604 1102 CURVE SMOOTH",
"428 1102 OFFCURVE",
"306 1015 OFFCURVE",
"237 886 CURVE",
"237 1536 LINE",
"183 1536 LINE",
"70 1311 LINE",
"70 1271 LINE",
"183 1047 LINE",
"183 0 LINE",
"237 0 LINE",
"237 171 LINE",
"305 60 OFFCURVE",
"429 -20 OFFCURVE",
"606 -20 CURVE SMOOTH",
"862 -20 OFFCURVE",
"1012 202 OFFCURVE",
"1012 531 CURVE SMOOTH",
"1012 551 LINE SMOOTH"
);
},
{
closed = 1;
nodes = (
"844 1048 OFFCURVE",
"956 839 OFFCURVE",
"956 552 CURVE SMOOTH",
"956 526 LINE SMOOTH",
"955 241 OFFCURVE",
"842 34 OFFCURVE",
"607 34 CURVE SMOOTH",
"406 34 OFFCURVE",
"286 137 OFFCURVE",
"237 274 CURVE",
"237 770 LINE",
"277 897 OFFCURVE",
"372 1048 OFFCURVE",
"605 1048 CURVE SMOOTH"
);
}
);
width = 1112;
}
);
note = uni0185;
rightKerningGroup = b;
unicode = 0185;
},
{
glyphname = uni0186;
lastChange = "2017-04-17 15:01:56 +0000";
layers = (
{
layerId = "E48BBF63-6980-4D0E-B72F-9E9EC78D2D9A";
paths = (
{
closed = 1;
nodes = (
"168 133 OFFCURVE",
"364 -20 OFFCURVE",
"656 -20 CURVE SMOOTH",
"976 -20 OFFCURVE",
"1183 239 OFFCURVE",
"1183 619 CURVE SMOOTH",
"1183 837 LINE SMOOTH",
"1183 1217 OFFCURVE",
"976 1476 OFFCURVE",
"656 1476 CURVE SMOOTH",
"364 1476 OFFCURVE",
"168 1325 OFFCURVE",
"137 1010 CURVE",
"191 1010 LINE",
"222 1295 OFFCURVE",
"387 1422 OFFCURVE",
"656 1422 CURVE SMOOTH",
"939 1422 OFFCURVE",
"1129 1190 OFFCURVE",
"1129 837 CURVE SMOOTH",
"1129 617 LINE SMOOTH",
"1129 266 OFFCURVE",
"939 34 OFFCURVE",
"656 34 CURVE SMOOTH",
"377 34 OFFCURVE",
"222 171 OFFCURVE",
"191 444 CURVE",
"137 444 LINE"
);
}
);
width = 1327;
}
);
note = uni0186;
rightKerningGroup = D;
unicode = 0186;
},
{
glyphname = uni0187;
lastChange = "2017-04-17 15:01:56 +0000";
layers = (
{
layerId = "E48BBF63-6980-4D0E-B72F-9E9EC78D2D9A";
paths = (
{
closed = 1;
nodes = (
"1415 1487 OFFCURVE",
"1448 1481 OFFCURVE",
"1480 1469 CURVE",
"1493 1521 LINE",
"1453 1534 OFFCURVE",
"1416 1541 OFFCURVE",
"1381 1541 CURVE SMOOTH",
"1209 1541 OFFCURVE",
"1141 1427 OFFCURVE",
"1136 1218 CURVE",
"1055 1390 OFFCURVE",
"890 1476 OFFCURVE",
"671 1476 CURVE SMOOTH",
"351 1476 OFFCURVE",
"144 1217 OFFCURVE",
"144 837 CURVE SMOOTH",
"144 619 LINE SMOOTH",
"144 239 OFFCURVE",
"351 -20 OFFCURVE",
"671 -20 CURVE SMOOTH",
"963 -20 OFFCURVE",
"1161 131 OFFCURVE",
"1190 446 CURVE",
"1136 446 LINE",
"1107 161 OFFCURVE",
"942 34 OFFCURVE",
"671 34 CURVE SMOOTH",
"388 34 OFFCURVE",
"198 266 OFFCURVE",
"198 619 CURVE SMOOTH",
"198 839 LINE SMOOTH",
"198 1190 OFFCURVE",
"388 1422 OFFCURVE",
"671 1422 CURVE SMOOTH",
"950 1422 OFFCURVE",
"1105 1285 OFFCURVE",
"1136 1012 CURVE",
"1190 1012 LINE",
"1190 1193 LINE SMOOTH",
"1190 1380 OFFCURVE",
"1233 1487 OFFCURVE",
"1381 1487 CURVE SMOOTH"
);
}
);
width = 1403;
}
);
leftKerningGroup = C;
note = uni0187;
unicode = 0187;
},
{
glyphname = uni0188;
lastChange = "2017-04-17 15:01:56 +0000";
layers = (
{
layerId = "E48BBF63-6980-4D0E-B72F-9E9EC78D2D9A";
paths = (
{
closed = 1;
nodes = (
"1165 1080 OFFCURVE",
"1198 1074 OFFCURVE",
"1230 1062 CURVE",
"1243 1114 LINE",
"1203 1127 OFFCURVE",
"1166 1134 OFFCURVE",
"1131 1134 CURVE SMOOTH",
"987 1134 OFFCURVE",
"915 1054 OFFCURVE",
"894 905 CURVE",
"825 1036 OFFCURVE",
"688 1102 OFFCURVE",
"537 1102 CURVE SMOOTH",
"258 1102 OFFCURVE",
"97 879 OFFCURVE",
"97 562 CURVE SMOOTH",
"97 520 LINE SMOOTH",
"97 203 OFFCURVE",
"258 -20 OFFCURVE",
"539 -20 CURVE SMOOTH",
"750 -20 OFFCURVE",
"929 108 OFFCURVE",
"940 328 CURVE",
"886 328 LINE",
"873 121 OFFCURVE",
"708 34 OFFCURVE",
"539 34 CURVE SMOOTH",
"272 34 OFFCURVE",
"151 249 OFFCURVE",
"151 520 CURVE SMOOTH",
"151 562 LINE SMOOTH",
"151 831 OFFCURVE",
"272 1048 OFFCURVE",
"537 1048 CURVE SMOOTH",
"714 1048 OFFCURVE",
"875 940 OFFCURVE",
"886 725 CURVE",
"940 725 LINE",
"940 786 LINE SMOOTH",
"940 973 OFFCURVE",
"983 1080 OFFCURVE",
"1131 1080 CURVE SMOOTH"
);
}
);
width = 1283;
}
);
leftKerningGroup = c;
note = uni0188;
unicode = 0188;
},
{
glyphname = uni018A;
lastChange = "2017-04-17 15:01:56 +0000";
layers = (
{
layerId = "E48BBF63-6980-4D0E-B72F-9E9EC78D2D9A";
paths = (
{
closed = 1;
nodes = (
"20 1136 OFFCURVE",
"27 1099 OFFCURVE",
"40 1059 CURVE",
"92 1072 LINE",
"80 1104 OFFCURVE",
"74 1137 OFFCURVE",
"74 1171 CURVE SMOOTH",
"74 1319 OFFCURVE",
"181 1402 OFFCURVE",
"368 1402 CURVE",
"368 0 LINE",
"771 0 LINE SMOOTH",
"1115 0 OFFCURVE",
"1372 260 OFFCURVE",
"1372 639 CURVE SMOOTH",
"1372 817 LINE SMOOTH",
"1372 1196 OFFCURVE",
"1115 1456 OFFCURVE",
"771 1456 CURVE SMOOTH",
"368 1456 LINE SMOOTH",
"143 1456 OFFCURVE",
"20 1350 OFFCURVE",
"20 1171 CURVE SMOOTH"
);
},
{
closed = 1;
nodes = (
"1084 1402 OFFCURVE",
"1318 1159 OFFCURVE",
"1318 820 CURVE SMOOTH",
"1318 639 LINE SMOOTH",
"1318 296 OFFCURVE",
"1084 54 OFFCURVE",
"771 54 CURVE SMOOTH",
"422 54 LINE",
"422 1402 LINE",
"771 1402 LINE SMOOTH"
);
}
);
width = 1516;
}
);
note = uni018A;
rightKerningGroup = D;
unicode = 018A;
},
{
glyphname = uni018B;
lastChange = "2017-04-17 15:01:56 +0000";
layers = (
{
layerId = "E48BBF63-6980-4D0E-B72F-9E9EC78D2D9A";
paths = (
{
closed = 1;
nodes = (
"137 1456 LINE",
"137 1402 LINE",
"945 1402 LINE",
"945 788 LINE",
"576 788 LINE SMOOTH",
"264 788 OFFCURVE",
"105 626 OFFCURVE",
"105 394 CURVE SMOOTH",
"105 163 OFFCURVE",
"264 1 OFFCURVE",
"572 0 CURVE SMOOTH",
"999 0 LINE",
"999 1456 LINE"
);
},
{
closed = 1;
nodes = (
"280 54 OFFCURVE",
"160 212 OFFCURVE",
"160 396 CURVE SMOOTH",
"160 572 OFFCURVE",
"280 734 OFFCURVE",
"576 734 CURVE SMOOTH",
"945 734 LINE",
"945 54 LINE",
"576 54 LINE SMOOTH"
);
}
);
width = 1199;
}
);
note = uni018B;
rightKerningGroup = H;
unicode = 018B;
},
{
glyphname = uni018C;
lastChange = "2017-04-17 15:01:56 +0000";
layers = (
{
layerId = "E48BBF63-6980-4D0E-B72F-9E9EC78D2D9A";
paths = (
{
closed = 1;
nodes = (
"897 883 LINE",
"829 1014 OFFCURVE",
"709 1102 OFFCURVE",
"530 1102 CURVE SMOOTH",
"273 1102 OFFCURVE",
"122 893 OFFCURVE",
"122 552 CURVE SMOOTH",
"122 531 LINE SMOOTH",
"122 202 OFFCURVE",
"272 -20 OFFCURVE",
"528 -20 CURVE SMOOTH",
"707 -20 OFFCURVE",
"830 62 OFFCURVE",
"897 174 CURVE",
"897 0 LINE",
"951 0 LINE",
"951 1536 LINE",
"224 1536 LINE",
"224 1482 LINE",
"897 1482 LINE"
);
},
{
closed = 1;
nodes = (
"179 841 OFFCURVE",
"292 1048 OFFCURVE",
"529 1048 CURVE SMOOTH",
"758 1048 OFFCURVE",
"856 902 OFFCURVE",
"897 775 CURVE",
"897 269 LINE",
"846 134 OFFCURVE",
"726 34 OFFCURVE",
"527 34 CURVE SMOOTH",
"291 34 OFFCURVE",
"178 243 OFFCURVE",
"178 531 CURVE SMOOTH",
"178 557 LINE SMOOTH"
);
}
);
width = 1121;
}
);
note = uni018C;
unicode = 018C;
},
{
glyphname = uni018D;
lastChange = "2017-04-17 15:01:56 +0000";
layers = (
{
layerId = "E48BBF63-6980-4D0E-B72F-9E9EC78D2D9A";
paths = (
{
closed = 1;
nodes = (
"829 -297 OFFCURVE",
"786 -266 OFFCURVE",
"727 -227 CURVE SMOOTH",
"610 -151 OFFCURVE",
"465 -53 OFFCURVE",
"361 51 CURVE",
"396 40 OFFCURVE",
"448 34 OFFCURVE",
"515 34 CURVE SMOOTH",
"819 34 OFFCURVE",
"1034 246 OFFCURVE",
"1034 539 CURVE SMOOTH",
"1034 581 LINE SMOOTH",
"1034 886 OFFCURVE",
"840 1102 OFFCURVE",
"559 1102 CURVE SMOOTH",
"278 1102 OFFCURVE",
"87 886 OFFCURVE",
"87 581 CURVE SMOOTH",
"87 535 LINE SMOOTH",
"88 436 OFFCURVE",
"111 339 OFFCURVE",
"156 245 CURVE SMOOTH",
"246 56 OFFCURVE",
"444 -113 OFFCURVE",
"585 -197 CURVE SMOOTH",
"655 -240 OFFCURVE",
"717 -281 OFFCURVE",
"772 -322 CURVE",
"173 -322 LINE",
"173 -375 LINE",
"856 -375 LINE",
"856 -321 LINE"
);
},
{
closed = 1;
nodes = (
"980 306 OFFCURVE",
"804 88 OFFCURVE",
"515 88 CURVE SMOOTH",
"450 88 OFFCURVE",
"384 97 OFFCURVE",
"318 114 CURVE",
"262 163 OFFCURVE",
"141 316 OFFCURVE",
"141 539 CURVE SMOOTH",
"141 581 LINE SMOOTH",
"141 829 OFFCURVE",
"296 1048 OFFCURVE",
"559 1048 CURVE SMOOTH",
"824 1048 OFFCURVE",
"980 829 OFFCURVE",
"980 581 CURVE SMOOTH",
"980 539 LINE SMOOTH"
);
}
);
width = 1121;
}
);
note = uni018D;
unicode = 018D;
},
{
glyphname = uni018E;
lastChange = "2017-04-17 15:01:56 +0000";
layers = (
{
layerId = "E48BBF63-6980-4D0E-B72F-9E9EC78D2D9A";
paths = (
{
closed = 1;
nodes = (
"912 786 LINE",
"182 786 LINE",
"182 732 LINE",
"912 732 LINE",
"912 54 LINE",
"80 54 LINE",
"80 0 LINE",
"966 0 LINE",
"966 1456 LINE",
"80 1456 LINE",
"80 1402 LINE",
"912 1402 LINE"
);
}
);
width = 1166;
}
);
note = uni018E;
rightKerningGroup = H;
unicode = 018E;
},
{
glyphname = uni018F;
lastChange = "2017-04-17 15:01:56 +0000";
layers = (
{
layerId = "E48BBF63-6980-4D0E-B72F-9E9EC78D2D9A";
paths = (
{
closed = 1;
nodes = (
"1327 1211 OFFCURVE",
"1116 1476 OFFCURVE",
"728 1476 CURVE SMOOTH",
"469 1476 OFFCURVE",
"339 1392 OFFCURVE",
"243 1311 CURVE",
"273 1268 LINE",
"381 1359 OFFCURVE",
"532 1422 OFFCURVE",
"728 1422 CURVE SMOOTH",
"1109 1422 OFFCURVE",
"1273 1160 OFFCURVE",
"1273 835 CURVE SMOOTH",
"1273 711 LINE",
"156 711 LINE",
"156 578 LINE SMOOTH",
"160 211 OFFCURVE",
"394 -20 OFFCURVE",
"754 -20 CURVE SMOOTH",
"1086 -20 OFFCURVE",
"1327 264 OFFCURVE",
"1327 663 CURVE SMOOTH",
"1327 835 LINE SMOOTH"
);
},
{
closed = 1;
nodes = (
"405 34 OFFCURVE",
"210 277 OFFCURVE",
"210 584 CURVE SMOOTH",
"210 656 LINE",
"1273 656 LINE",
"1270 311 OFFCURVE",
"1077 34 OFFCURVE",
"754 34 CURVE SMOOTH"
);
}
);
width = 1452;
}
);
note = uni018F;
rightKerningGroup = D;
unicode = 018F;
},
{
glyphname = uni0190;
lastChange = "2017-04-17 15:01:56 +0000";
layers = (
{
layerId = "E48BBF63-6980-4D0E-B72F-9E9EC78D2D9A";
paths = (
{
closed = 1;
nodes = (
"312 774 OFFCURVE",
"186 896 OFFCURVE",
"186 1087 CURVE SMOOTH",
"186 1282 OFFCURVE",
"320 1422 OFFCURVE",
"625 1422 CURVE SMOOTH",
"858 1422 OFFCURVE",
"1053 1291 OFFCURVE",
"1053 1075 CURVE",
"1107 1075 LINE",
"1107 1323 OFFCURVE",
"882 1476 OFFCURVE",
"625 1476 CURVE SMOOTH",
"325 1476 OFFCURVE",
"132 1340 OFFCURVE",
"132 1083 CURVE SMOOTH",
"132 922 OFFCURVE",
"231 796 OFFCURVE",
"419 744 CURVE",
"212 699 OFFCURVE",
"109 580 OFFCURVE",
"109 386 CURVE SMOOTH",
"109 111 OFFCURVE",
"340 -21 OFFCURVE",
"625 -21 CURVE SMOOTH",
"705 -21 OFFCURVE",
"784 -6 OFFCURVE",
"861 25 CURVE SMOOTH",
"1016 85 OFFCURVE",
"1128 209 OFFCURVE",
"1128 404 CURVE",
"1073 404 LINE",
"1073 188 OFFCURVE",
"889 33 OFFCURVE",
"625 33 CURVE SMOOTH",
"330 33 OFFCURVE",
"163 165 OFFCURVE",
"163 382 CURVE SMOOTH",
"163 618 OFFCURVE",
"325 714 OFFCURVE",
"624 715 CURVE SMOOTH",
"814 715 LINE",
"814 771 LINE",
"619 771 LINE SMOOTH"
);
}
);
width = 1329;
}
);
note = uni0190;
unicode = 0190;
},
{
glyphname = uni0191;
lastChange = "2017-04-17 15:01:56 +0000";
layers = (
{
layerId = "E48BBF63-6980-4D0E-B72F-9E9EC78D2D9A";
paths = (
{
closed = 1;
nodes = (
"200 1456 LINE",
"200 -94 LINE SMOOTH",
"199 -287 OFFCURVE",
"122 -383 OFFCURVE",
"-31 -383 CURVE SMOOTH",
"-65 -383 OFFCURVE",
"-98 -377 OFFCURVE",
"-130 -365 CURVE",
"-143 -417 LINE",
"-103 -430 OFFCURVE",
"-66 -437 OFFCURVE",
"-31 -437 CURVE SMOOTH",
"148 -437 OFFCURVE",
"254 -314 OFFCURVE",
"254 -89 CURVE SMOOTH",
"254 716 LINE",
"1000 716 LINE",
"1000 772 LINE",
"254 772 LINE",
"254 1402 LINE",
"1102 1402 LINE",
"1102 1456 LINE"
);
}
);
width = 1172;
}
);
note = uni0191;
unicode = 0191;
},
{
glyphname = florin;
lastChange = "2017-04-17 15:01:56 +0000";
layers = (
{
layerId = "E48BBF63-6980-4D0E-B72F-9E9EC78D2D9A";
paths = (
{
closed = 1;
nodes = (
"307 1236 LINE SMOOTH",
"307 1405 OFFCURVE",
"394 1503 OFFCURVE",
"537 1503 CURVE SMOOTH",
"582 1503 OFFCURVE",
"621 1498 OFFCURVE",
"656 1488 CURVE",
"664 1540 LINE",
"628 1551 OFFCURVE",
"585 1557 OFFCURVE",
"536 1557 CURVE SMOOTH",
"361 1557 OFFCURVE",
"254 1444 OFFCURVE",
"253 1240 CURVE SMOOTH",
"253 1082 LINE",
"65 1082 LINE",
"65 1027 LINE",
"253 1027 LINE",
"253 -99 LINE SMOOTH",
"250 -288 OFFCURVE",
"173 -383 OFFCURVE",
"22 -383 CURVE SMOOTH",
"-12 -383 OFFCURVE",
"-45 -377 OFFCURVE",
"-77 -365 CURVE",
"-90 -417 LINE",
"-50 -430 OFFCURVE",
"-13 -437 OFFCURVE",
"22 -437 CURVE SMOOTH",
"201 -437 OFFCURVE",
"307 -314 OFFCURVE",
"307 -89 CURVE SMOOTH",
"307 1027 LINE",
"593 1027 LINE",
"593 1082 LINE",
"307 1082 LINE"
);
}
);
width = 644;
}
);
note = florin;
unicode = 0192;
},
{
glyphname = uni0193;
lastChange = "2017-04-17 15:01:56 +0000";
layers = (
{
layerId = "E48BBF63-6980-4D0E-B72F-9E9EC78D2D9A";
paths = (
{
closed = 1;
nodes = (
"1225 1380 OFFCURVE",
"1268 1487 OFFCURVE",
"1416 1487 CURVE SMOOTH",
"1450 1487 OFFCURVE",
"1483 1481 OFFCURVE",
"1515 1469 CURVE",
"1528 1521 LINE",
"1488 1534 OFFCURVE",
"1451 1541 OFFCURVE",
"1416 1541 CURVE SMOOTH",
"1248 1541 OFFCURVE",
"1180 1434 OFFCURVE",
"1172 1235 CURVE",
"1096 1379 OFFCURVE",
"943 1476 OFFCURVE",
"712 1476 CURVE SMOOTH",
"391 1476 OFFCURVE",
"168 1225 OFFCURVE",
"168 858 CURVE SMOOTH",
"168 620 LINE SMOOTH",
"168 240 OFFCURVE",
"397 -20 OFFCURVE",
"729 -20 CURVE SMOOTH",
"871 -20 OFFCURVE",
"984 1 OFFCURVE",
"1067 43 CURVE SMOOTH",
"1150 85 OFFCURVE",
"1203 123 OFFCURVE",
"1226 156 CURVE",
"1226 660 LINE",
"727 660 LINE",
"727 605 LINE",
"1172 605 LINE",
"1172 181 LINE",
"1127 122 OFFCURVE",
"968 34 OFFCURVE",
"729 34 CURVE SMOOTH",
"421 34 OFFCURVE",
"222 277 OFFCURVE",
"222 620 CURVE SMOOTH",
"222 860 LINE SMOOTH",
"222 1188 OFFCURVE",
"415 1422 OFFCURVE",
"712 1422 CURVE SMOOTH",
"1015 1422 OFFCURVE",
"1141 1251 OFFCURVE",
"1170 1062 CURVE",
"1225 1062 LINE",
"1225 1193 LINE SMOOTH"
);
}
);
width = 1437;
}
);
leftKerningGroup = C;
note = uni0193;
unicode = 0193;
},
{
glyphname = uni0194;
lastChange = "2017-04-17 15:01:56 +0000";
layers = (
{
layerId = "E48BBF63-6980-4D0E-B72F-9E9EC78D2D9A";
paths = (
{
closed = 1;
nodes = (
"745 -133 OFFCURVE",
"736 -89 OFFCURVE",
"718 -44 CURVE SMOOTH",
"636 153 LINE",
"1190 1456 LINE",
"1130 1456 LINE",
"610 215 LINE",
"93 1456 LINE",
"33 1456 LINE",
"585 156 LINE",
"531 26 OFFCURVE",
"500 -54 OFFCURVE",
"493 -85 CURVE SMOOTH",
"485 -116 OFFCURVE",
"481 -146 OFFCURVE",
"481 -176 CURVE SMOOTH",
"481 -283 OFFCURVE",
"524 -337 OFFCURVE",
"611 -337 CURVE SMOOTH",
"691 -337 OFFCURVE",
"745 -279 OFFCURVE",
"745 -176 CURVE SMOOTH"
);
},
{
closed = 1;
nodes = (
"531 -126 OFFCURVE",
"548 -58 OFFCURVE",
"583 28 CURVE SMOOTH",
"611 95 LINE",
"633 44 LINE SMOOTH",
"672 -47 OFFCURVE",
"691 -121 OFFCURVE",
"691 -176 CURVE SMOOTH",
"691 -247 OFFCURVE",
"664 -283 OFFCURVE",
"611 -283 CURVE SMOOTH",
"558 -283 OFFCURVE",
"531 -247 OFFCURVE",
"531 -176 CURVE SMOOTH"
);
}
);
width = 1223;
}
);
note = uni0194;
unicode = 0194;
},
{
glyphname = uni0195;
lastChange = "2017-04-17 15:01:56 +0000";
layers = (
{
layerId = "E48BBF63-6980-4D0E-B72F-9E9EC78D2D9A";
paths = (
{
closed = 1;
nodes = (
"429 1102 OFFCURVE",
"291 983 OFFCURVE",
"226 831 CURVE",
"226 1536 LINE",
"172 1536 LINE",
"172 0 LINE",
"226 0 LINE",
"226 693 LINE",
"237 740 OFFCURVE",
"257 791 OFFCURVE",
"287 847 CURVE SMOOTH",
"346 958 OFFCURVE",
"450 1049 OFFCURVE",
"607 1049 CURVE SMOOTH",
"610 1049 LINE SMOOTH",
"822 1048 OFFCURVE",
"897 928 OFFCURVE",
"900 700 CURVE SMOOTH",
"900 449 LINE SMOOTH",
"904 118 OFFCURVE",
"1045 -21 OFFCURVE",
"1254 -21 CURVE SMOOTH",
"1465 -21 OFFCURVE",
"1607 120 OFFCURVE",
"1608 459 CURVE SMOOTH",
"1608 1082 LINE",
"1554 1082 LINE",
"1554 463 LINE SMOOTH",
"1554 156 OFFCURVE",
"1427 33 OFFCURVE",
"1254 33 CURVE SMOOTH",
"1082 33 OFFCURVE",
"957 155 OFFCURVE",
"954 452 CURVE",
"954 692 LINE SMOOTH",
"954 935 OFFCURVE",
"875 1102 OFFCURVE",
"610 1102 CURVE SMOOTH"
);
}
);
width = 1775;
}
);
note = uni0195;
unicode = 0195;
},
{
glyphname = uni0198;
lastChange = "2017-04-17 15:01:56 +0000";
layers = (
{
layerId = "E48BBF63-6980-4D0E-B72F-9E9EC78D2D9A";
paths = (
{
closed = 1;
nodes = (
"526 805 LINE",
"873 1261 LINE SMOOTH",
"937 1345 OFFCURVE",
"994 1420 OFFCURVE",
"1102 1420 CURVE SMOOTH",
"1183 1420 OFFCURVE",
"1239 1366 OFFCURVE",
"1278 1325 CURVE",
"1316 1363 LINE",
"1268 1419 OFFCURVE",
"1187 1476 OFFCURVE",
"1104 1476 CURVE SMOOTH",
"967 1476 OFFCURVE",
"908 1391 OFFCURVE",
"816 1271 CURVE SMOOTH",
"254 535 LINE",
"254 1456 LINE",
"200 1456 LINE",
"200 0 LINE",
"254 0 LINE",
"254 455 LINE",
"491 760 LINE",
"1156 0 LINE",
"1226 0 LINE"
);
}
);
width = 1300;
}
);
note = uni0198;
rightKerningGroup = K;
unicode = 0198;
},
{
glyphname = uni0199;
lastChange = "2017-04-17 15:01:56 +0000";
layers = (
{
layerId = "E48BBF63-6980-4D0E-B72F-9E9EC78D2D9A";
paths = (
{
closed = 1;
nodes = (
"451 1503 OFFCURVE",
"484 1497 OFFCURVE",
"516 1485 CURVE",
"529 1537 LINE",
"489 1550 OFFCURVE",
"452 1557 OFFCURVE",
"417 1557 CURVE SMOOTH",
"238 1557 OFFCURVE",
"172 1434 OFFCURVE",
"172 1209 CURVE SMOOTH",
"172 0 LINE",
"226 0 LINE",
"226 449 LINE",
"383 583 LINE",
"385 585 LINE",
"883 0 LINE",
"953 0 LINE",
"425 622 LINE",
"922 1082 LINE",
"845 1082 LINE",
"353 627 LINE",
"226 507 LINE",
"226 1209 LINE SMOOTH",
"226 1396 OFFCURVE",
"269 1503 OFFCURVE",
"417 1503 CURVE SMOOTH"
);
}
);
width = 969;
}
);
note = uni0199;
unicode = 0199;
},
{
glyphname = uni019B;
lastChange = "2017-04-17 15:01:56 +0000";
layers = (
{
layerId = "E48BBF63-6980-4D0E-B72F-9E9EC78D2D9A";
paths = (
{
closed = 1;
nodes = (
"1065 50 OFFCURVE",
"1049 48 OFFCURVE",
"1030 48 CURVE SMOOTH",
"947 48 OFFCURVE",
"911 118 OFFCURVE",
"867 237 CURVE SMOOTH",
"499 1242 LINE",
"697 1321 LINE",
"697 1380 LINE",
"481 1294 LINE",
"448 1387 OFFCURVE",
"395 1518 OFFCURVE",
"244 1518 CURVE SMOOTH",
"220 1518 OFFCURVE",
"201 1515 OFFCURVE",
"188 1508 CURVE",
"197 1458 LINE",
"212 1462 OFFCURVE",
"228 1464 OFFCURVE",
"245 1464 CURVE SMOOTH",
"350 1464 OFFCURVE",
"389 1383 OFFCURVE",
"430 1274 CURVE",
"227 1193 LINE",
"227 1134 LINE",
"449 1222 LINE",
"503 1075 LINE",
"62 0 LINE",
"121 0 LINE",
"530 1001 LINE",
"539 978 LINE",
"814 217 LINE SMOOTH",
"850 118 OFFCURVE",
"889 -6 OFFCURVE",
"1030 -6 CURVE SMOOTH",
"1055 -6 OFFCURVE",
"1074 -3 OFFCURVE",
"1087 4 CURVE",
"1078 55 LINE"
);
}
);
width = 1121;
}
);
note = uni019B;
unicode = 019B;
},
{
glyphname = uni019C;
lastChange = "2017-04-17 15:01:56 +0000";
layers = (
{
layerId = "E48BBF63-6980-4D0E-B72F-9E9EC78D2D9A";
paths = (
{
closed = 1;
nodes = (
"1714 1456 LINE",
"1659 1456 LINE",
"1659 336 LINE",
"1630 171 OFFCURVE",
"1525 33 OFFCURVE",
"1284 33 CURVE SMOOTH",
"1112 33 OFFCURVE",
"985 156 OFFCURVE",
"984 457 CURVE",
"984 1456 LINE",
"930 1456 LINE",
"930 441 LINE",
"934 370 LINE",
"914 191 OFFCURVE",
"811 33 OFFCURVE",
"554 33 CURVE SMOOTH",
"382 33 OFFCURVE",
"255 156 OFFCURVE",
"254 457 CURVE",
"254 1456 LINE",
"200 1456 LINE",
"200 465 LINE SMOOTH",
"200 121 OFFCURVE",
"344 -21 OFFCURVE",
"556 -21 CURVE SMOOTH",
"773 -21 OFFCURVE",
"902 84 OFFCURVE",
"955 247 CURVE",
"1006 59 OFFCURVE",
"1126 -21 OFFCURVE",
"1286 -21 CURVE SMOOTH",
"1474 -21 OFFCURVE",
"1595 58 OFFCURVE",
"1659 183 CURVE",
"1659 0 LINE",
"1714 0 LINE"
);
}
);
width = 1914;
}
);
note = uni019C;
rightKerningGroup = H;
unicode = 019C;
},
{
glyphname = uni019D;
lastChange = "2017-04-17 15:01:56 +0000";
layers = (
{
layerId = "E48BBF63-6980-4D0E-B72F-9E9EC78D2D9A";
paths = (
{
closed = 1;
nodes = (
"1249 1456 LINE",
"1195 1456 LINE",
"1195 95 LINE",
"255 1456 LINE",
"200 1456 LINE",
"200 -94 LINE SMOOTH",
"199 -287 OFFCURVE",
"122 -383 OFFCURVE",
"-31 -383 CURVE SMOOTH",
"-65 -383 OFFCURVE",
"-98 -377 OFFCURVE",
"-130 -365 CURVE",
"-143 -417 LINE",
"-103 -430 OFFCURVE",
"-66 -437 OFFCURVE",
"-31 -437 CURVE SMOOTH",
"148 -437 OFFCURVE",
"255 -314 OFFCURVE",
"255 -89 CURVE SMOOTH",
"255 1364 LINE",
"1195 0 LINE",
"1249 0 LINE"
);
}
);
width = 1449;
}
);
note = uni019D;
rightKerningGroup = H;
unicode = 019D;
},
{
glyphname = Ohorn;
lastChange = "2017-04-17 15:01:56 +0000";
layers = (
{
layerId = "E48BBF63-6980-4D0E-B72F-9E9EC78D2D9A";
paths = (
{
closed = 1;
nodes = (
"1262 969 OFFCURVE",
"1237 1085 OFFCURVE",
"1187 1185 CURVE",
"1388 1200 OFFCURVE",
"1459 1324 OFFCURVE",
"1459 1541 CURVE",
"1405 1541 LINE",
"1405 1349 OFFCURVE",
"1358 1242 OFFCURVE",
"1157 1238 CURVE",
"1062 1387 OFFCURVE",
"908 1476 OFFCURVE",
"712 1476 CURVE SMOOTH",
"379 1476 OFFCURVE",
"164 1217 OFFCURVE",
"164 837 CURVE SMOOTH",
"164 619 LINE SMOOTH",
"164 239 OFFCURVE",
"381 -20 OFFCURVE",
"714 -20 CURVE SMOOTH",
"1049 -20 OFFCURVE",
"1262 239 OFFCURVE",
"1262 619 CURVE SMOOTH",
"1262 837 LINE SMOOTH"
);
},
{
closed = 1;
nodes = (
"1208 276 OFFCURVE",
"1029 34 OFFCURVE",
"714 34 CURVE SMOOTH",
"402 34 OFFCURVE",
"219 276 OFFCURVE",
"219 619 CURVE SMOOTH",
"219 839 LINE SMOOTH",
"219 1180 OFFCURVE",
"400 1422 OFFCURVE",
"712 1422 CURVE SMOOTH",
"1027 1422 OFFCURVE",
"1208 1180 OFFCURVE",
"1208 839 CURVE SMOOTH",
"1208 619 LINE SMOOTH"
);
}
);
width = 1451;
}
);
leftKerningGroup = C;
note = Ohorn;
unicode = 01A0;
},
{
glyphname = ohorn;
lastChange = "2017-04-17 15:01:56 +0000";
layers = (
{
layerId = "E48BBF63-6980-4D0E-B72F-9E9EC78D2D9A";
paths = (
{
closed = 1;
nodes = (
"1034 695 OFFCURVE",
"1003 808 OFFCURVE",
"940 902 CURVE",
"1104 919 OFFCURVE",
"1158 1021 OFFCURVE",
"1158 1196 CURVE",
"1103 1196 LINE",
"1103 1045 OFFCURVE",
"1072 958 OFFCURVE",
"901 953 CURVE",
"814 1052 OFFCURVE",
"700 1102 OFFCURVE",
"560 1102 CURVE SMOOTH",
"280 1102 OFFCURVE",
"87 879 OFFCURVE",
"87 562 CURVE SMOOTH",
"87 520 LINE SMOOTH",
"87 203 OFFCURVE",
"279 -20 OFFCURVE",
"562 -20 CURVE SMOOTH",
"843 -20 OFFCURVE",
"1034 203 OFFCURVE",
"1034 520 CURVE SMOOTH",
"1034 562 LINE SMOOTH"
);
},
{
closed = 1;
nodes = (
"141 815 OFFCURVE",
"296 1048 OFFCURVE",
"560 1048 CURVE SMOOTH",
"825 1048 OFFCURVE",
"980 815 OFFCURVE",
"980 562 CURVE SMOOTH",
"980 520 LINE SMOOTH",
"980 261 OFFCURVE",
"825 34 OFFCURVE",
"562 34 CURVE SMOOTH",
"295 34 OFFCURVE",
"141 261 OFFCURVE",
"141 520 CURVE SMOOTH",
"141 562 LINE SMOOTH"
);
}
);
width = 1122;
}
);
leftKerningGroup = c;
note = ohorn;
unicode = 01A1;
},
{
glyphname = uni01A2;
lastChange = "2017-04-17 15:01:56 +0000";
layers = (
{
layerId = "E48BBF63-6980-4D0E-B72F-9E9EC78D2D9A";
paths = (
{
closed = 1;
nodes = (
"847 -21 OFFCURVE",
"960 0 OFFCURVE",
"1043 43 CURVE SMOOTH",
"1126 85 OFFCURVE",
"1179 123 OFFCURVE",
"1202 156 CURVE",
"1202 1275 LINE",
"1356 1389 LINE",
"1356 -416 LINE",
"1410 -416 LINE",
"1410 1456 LINE",
"1360 1456 LINE",
"1180 1324 LINE",
"1115 1389 OFFCURVE",
"956 1476 OFFCURVE",
"705 1476 CURVE SMOOTH",
"373 1476 OFFCURVE",
"144 1215 OFFCURVE",
"144 835 CURVE SMOOTH",
"144 620 LINE SMOOTH",
"144 240 OFFCURVE",
"373 -21 OFFCURVE",
"705 -21 CURVE SMOOTH"
);
},
{
closed = 1;
nodes = (
"944 1422 OFFCURVE",
"1103 1333 OFFCURVE",
"1148 1274 CURVE",
"1148 181 LINE",
"1103 122 OFFCURVE",
"944 33 OFFCURVE",
"705 33 CURVE SMOOTH",
"397 33 OFFCURVE",
"198 277 OFFCURVE",
"198 620 CURVE SMOOTH",
"198 835 LINE SMOOTH",
"198 1178 OFFCURVE",
"397 1422 OFFCURVE",
"705 1422 CURVE SMOOTH"
);
}
);
width = 1610;
}
);
leftKerningGroup = C;
note = uni01A2;
rightKerningGroup = H;
unicode = 01A2;
},
{
glyphname = uni01A3;
lastChange = "2017-04-17 15:01:56 +0000";
layers = (
{
layerId = "E48BBF63-6980-4D0E-B72F-9E9EC78D2D9A";
paths = (
{
closed = 1;
nodes = (
"1012 -416 LINE",
"1012 1082 LINE",
"966 1082 LINE",
"834 990 LINE",
"759 1065 OFFCURVE",
"661 1102 OFFCURVE",
"540 1102 CURVE SMOOTH",
"261 1102 OFFCURVE",
"100 879 OFFCURVE",
"100 562 CURVE SMOOTH",
"100 520 LINE SMOOTH",
"100 203 OFFCURVE",
"261 -21 OFFCURVE",
"542 -21 CURVE SMOOTH",
"667 -21 OFFCURVE",
"768 17 OFFCURVE",
"843 94 CURVE",
"843 934 LINE",
"958 1015 LINE",
"958 -416 LINE"
);
},
{
closed = 1;
nodes = (
"275 33 OFFCURVE",
"154 249 OFFCURVE",
"154 520 CURVE SMOOTH",
"154 562 LINE SMOOTH",
"154 831 OFFCURVE",
"275 1048 OFFCURVE",
"540 1048 CURVE SMOOTH",
"641 1048 OFFCURVE",
"724 1018 OFFCURVE",
"789 957 CURVE",
"789 115 LINE",
"725 60 OFFCURVE",
"643 33 OFFCURVE",
"542 33 CURVE SMOOTH"
);
}
);
width = 1182;
}
);
note = uni01A3;
unicode = 01A3;
},
{
glyphname = uni01A4;
lastChange = "2017-04-17 15:01:56 +0000";
layers = (
{
layerId = "E48BBF63-6980-4D0E-B72F-9E9EC78D2D9A";
paths = (
{
closed = 1;
nodes = (
"1134 615 OFFCURVE",
"1293 774 OFFCURVE",
"1293 1031 CURVE SMOOTH",
"1293 1287 OFFCURVE",
"1134 1456 OFFCURVE",
"823 1456 CURVE SMOOTH",
"368 1456 LINE SMOOTH",
"143 1456 OFFCURVE",
"20 1350 OFFCURVE",
"20 1171 CURVE SMOOTH",
"20 1136 OFFCURVE",
"27 1099 OFFCURVE",
"40 1059 CURVE",
"92 1072 LINE",
"80 1104 OFFCURVE",
"74 1137 OFFCURVE",
"74 1171 CURVE SMOOTH",
"74 1319 OFFCURVE",
"181 1402 OFFCURVE",
"368 1402 CURVE",
"368 0 LINE",
"422 0 LINE",
"422 615 LINE",
"823 615 LINE SMOOTH"
);
},
{
closed = 1;
nodes = (
"1118 1402 OFFCURVE",
"1239 1236 OFFCURVE",
"1239 1029 CURVE SMOOTH",
"1239 830 OFFCURVE",
"1118 669 OFFCURVE",
"823 669 CURVE SMOOTH",
"422 669 LINE",
"422 1402 LINE",
"823 1402 LINE SMOOTH"
);
}
);
width = 1398;
}
);
note = uni01A4;
rightKerningGroup = P;
unicode = 01A4;
},
{
glyphname = uni01A5;
lastChange = "2017-04-17 15:01:56 +0000";
layers = (
{
layerId = "E48BBF63-6980-4D0E-B72F-9E9EC78D2D9A";
paths = (
{
closed = 1;
nodes = (
"849 -20 OFFCURVE",
"999 202 OFFCURVE",
"999 531 CURVE SMOOTH",
"999 551 LINE SMOOTH",
"999 894 OFFCURVE",
"848 1102 OFFCURVE",
"591 1102 CURVE SMOOTH",
"416 1102 OFFCURVE",
"295 1017 OFFCURVE",
"224 889 CURVE",
"224 976 LINE SMOOTH",
"224 1163 OFFCURVE",
"267 1270 OFFCURVE",
"415 1270 CURVE SMOOTH",
"449 1270 OFFCURVE",
"482 1264 OFFCURVE",
"514 1252 CURVE",
"527 1304 LINE",
"487 1317 OFFCURVE",
"450 1324 OFFCURVE",
"415 1324 CURVE SMOOTH",
"267 1324 OFFCURVE",
"196 1239 OFFCURVE",
"176 1082 CURVE",
"170 1082 LINE",
"170 -416 LINE",
"224 -416 LINE",
"224 169 LINE",
"292 60 OFFCURVE",
"417 -20 OFFCURVE",
"593 -20 CURVE SMOOTH"
);
},
{
closed = 1;
nodes = (
"829 1048 OFFCURVE",
"944 839 OFFCURVE",
"944 552 CURVE SMOOTH",
"944 531 LINE SMOOTH",
"944 243 OFFCURVE",
"830 34 OFFCURVE",
"594 34 CURVE SMOOTH",
"395 34 OFFCURVE",
"275 134 OFFCURVE",
"224 269 CURVE",
"224 775 LINE",
"265 902 OFFCURVE",
"363 1048 OFFCURVE",
"592 1048 CURVE SMOOTH"
);
}
);
width = 1121;
}
);
note = uni01A5;
unicode = 01A5;
},
{
glyphname = uni01A6;
lastChange = "2017-04-17 15:01:56 +0000";
layers = (
{
layerId = "E48BBF63-6980-4D0E-B72F-9E9EC78D2D9A";
paths = (
{
closed = 1;
nodes = (
"754 623 LINE",
"1367 -351 LINE",
"1424 -351 LINE",
"1424 -337 LINE",
"809 637 LINE",
"992 670 OFFCURVE",
"1137 829 OFFCURVE",
"1137 1036 CURVE SMOOTH",
"1137 1307 OFFCURVE",
"938 1456 OFFCURVE",
"659 1456 CURVE SMOOTH",
"249 1456 LINE",
"249 1536 LINE",
"195 1536 LINE",
"195 0 LINE",
"249 0 LINE",
"249 623 LINE"
);
},
{
closed = 1;
nodes = (
"916 1402 OFFCURVE",
"1083 1265 OFFCURVE",
"1083 1036 CURVE SMOOTH",
"1083 855 OFFCURVE",
"957 677 OFFCURVE",
"708 677 CURVE SMOOTH",
"249 677 LINE",
"249 1402 LINE",
"659 1402 LINE SMOOTH"
);
}
);
width = 1345;
}
);
note = uni01A6;
unicode = 01A6;
},
{
glyphname = uni01A7;
lastChange = "2017-04-17 15:01:56 +0000";
layers = (
{
layerId = "E48BBF63-6980-4D0E-B72F-9E9EC78D2D9A";
paths = (
{
closed = 1;
nodes = (
"139 530 OFFCURVE",
"253 625 OFFCURVE",
"581 716 CURVE SMOOTH",
"909 807 OFFCURVE",
"1068 893 OFFCURVE",
"1068 1120 CURVE SMOOTH",
"1068 1341 OFFCURVE",
"860 1476 OFFCURVE",
"585 1476 CURVE SMOOTH",
"302 1476 OFFCURVE",
"100 1303 OFFCURVE",
"100 1046 CURVE",
"154 1046 LINE",
"154 1261 OFFCURVE",
"326 1422 OFFCURVE",
"585 1422 CURVE SMOOTH",
"860 1422 OFFCURVE",
"1014 1279 OFFCURVE",
"1014 1122 CURVE SMOOTH",
"1014 970 OFFCURVE",
"924 863 OFFCURVE",
"588 774 CURVE SMOOTH",
"252 685 OFFCURVE",
"84 586 OFFCURVE",
"84 351 CURVE SMOOTH",
"84 112 OFFCURVE",
"306 -20 OFFCURVE",
"578 -20 CURVE SMOOTH",
"661 -20 OFFCURVE",
"743 -7 OFFCURVE",
"826 20 CURVE SMOOTH",
"991 73 OFFCURVE",
"1115 194 OFFCURVE",
"1115 411 CURVE",
"1061 411 LINE",
"1061 314 OFFCURVE",
"1035 239 OFFCURVE",
"984 184 CURVE SMOOTH",
"881 74 OFFCURVE",
"718 34 OFFCURVE",
"578 34 CURVE SMOOTH",
"322 34 OFFCURVE",
"139 162 OFFCURVE",
"139 349 CURVE SMOOTH"
);
}
);
width = 1211;
}
);
note = uni01A7;
unicode = 01A7;
},
{
glyphname = uni01A8;
lastChange = "2017-04-17 15:01:56 +0000";
layers = (
{
layerId = "E48BBF63-6980-4D0E-B72F-9E9EC78D2D9A";
paths = (
{
closed = 1;
nodes = (
"182 314 OFFCURVE",
"204 363 OFFCURVE",
"247 413 CURVE SMOOTH",
"290 463 OFFCURVE",
"378 503 OFFCURVE",
"510 532 CURVE SMOOTH",
"773 590 OFFCURVE",
"878 658 OFFCURVE",
"878 829 CURVE SMOOTH",
"878 980 OFFCURVE",
"743 1102 OFFCURVE",
"516 1102 CURVE SMOOTH",
"273 1102 OFFCURVE",
"129 977 OFFCURVE",
"129 793 CURVE",
"184 793 LINE",
"184 928 OFFCURVE",
"303 1048 OFFCURVE",
"516 1048 CURVE SMOOTH",
"735 1048 OFFCURVE",
"824 932 OFFCURVE",
"824 831 CURVE SMOOTH",
"824 776 OFFCURVE",
"805 729 OFFCURVE",
"767 689 CURVE SMOOTH",
"728 648 OFFCURVE",
"640 612 OFFCURVE",
"503 581 CURVE SMOOTH",
"228 517 OFFCURVE",
"128 432 OFFCURVE",
"128 264 CURVE SMOOTH",
"128 97 OFFCURVE",
"275 -20 OFFCURVE",
"508 -20 CURVE SMOOTH",
"769 -20 OFFCURVE",
"913 116 OFFCURVE",
"913 275 CURVE",
"859 275 LINE",
"846 90 OFFCURVE",
"665 34 OFFCURVE",
"508 34 CURVE SMOOTH",
"295 34 OFFCURVE",
"182 152 OFFCURVE",
"182 265 CURVE SMOOTH"
);
}
);
width = 1021;
}
);
note = uni01A8;
unicode = 01A8;
},
{
glyphname = uni01AA;
lastChange = "2017-04-17 15:01:56 +0000";
layers = (
{
layerId = "E48BBF63-6980-4D0E-B72F-9E9EC78D2D9A";
paths = (
{
closed = 1;
nodes = (
"999 -377 OFFCURVE",
"966 -383 OFFCURVE",
"932 -383 CURVE SMOOTH",
"784 -383 OFFCURVE",
"701 -276 OFFCURVE",
"701 -89 CURVE SMOOTH",
"701 1249 LINE SMOOTH",
"701 1448 OFFCURVE",
"553 1581 OFFCURVE",
"369 1581 CURVE SMOOTH",
"198 1581 OFFCURVE",
"40 1453 OFFCURVE",
"40 1249 CURVE SMOOTH",
"40 1040 OFFCURVE",
"188 920 OFFCURVE",
"369 920 CURVE SMOOTH",
"485 920 OFFCURVE",
"588 980 OFFCURVE",
"647 1069 CURVE",
"647 -89 LINE SMOOTH",
"647 -314 OFFCURVE",
"753 -437 OFFCURVE",
"932 -437 CURVE SMOOTH",
"967 -437 OFFCURVE",
"1004 -430 OFFCURVE",
"1044 -417 CURVE",
"1031 -365 LINE"
);
},
{
closed = 1;
nodes = (
"221 974 OFFCURVE",
"94 1074 OFFCURVE",
"94 1249 CURVE SMOOTH",
"94 1424 OFFCURVE",
"221 1527 OFFCURVE",
"369 1527 CURVE SMOOTH",
"512 1527 OFFCURVE",
"647 1424 OFFCURVE",
"647 1252 CURVE SMOOTH",
"647 1073 OFFCURVE",
"512 974 OFFCURVE",
"369 974 CURVE SMOOTH"
);
}
);
width = 954;
}
);
note = uni01AA;
unicode = 01AA;
},
{
glyphname = uni01AB;
lastChange = "2017-04-17 15:01:56 +0000";
layers = (
{
layerId = "E48BBF63-6980-4D0E-B72F-9E9EC78D2D9A";
paths = (
{
closed = 1;
nodes = (
"563 43 LINE",
"521 37 OFFCURVE",
"485 34 OFFCURVE",
"456 34 CURVE SMOOTH",
"369 34 OFFCURVE",
"293 68 OFFCURVE",
"293 259 CURVE SMOOTH",
"293 1027 LINE",
"539 1027 LINE",
"539 1082 LINE",
"293 1082 LINE",
"293 1374 LINE",
"238 1374 LINE",
"238 1082 LINE",
"38 1082 LINE",
"38 1027 LINE",
"238 1027 LINE",
"238 259 LINE SMOOTH",
"238 42 OFFCURVE",
"322 -20 OFFCURVE",
"459 -20 CURVE",
"518 -17 LINE",
"518 -88 LINE SMOOTH",
"518 -275 OFFCURVE",
"475 -382 OFFCURVE",
"327 -382 CURVE SMOOTH",
"293 -382 OFFCURVE",
"260 -376 OFFCURVE",
"228 -364 CURVE",
"215 -416 LINE",
"255 -429 OFFCURVE",
"292 -436 OFFCURVE",
"327 -436 CURVE SMOOTH",
"506 -436 OFFCURVE",
"572 -313 OFFCURVE",
"572 -88 CURVE SMOOTH",
"572 -8 LINE"
);
}
);
width = 648;
}
);
note = uni01AB;
unicode = 01AB;
},
{
glyphname = uni01AC;
lastChange = "2017-04-17 15:01:56 +0000";
layers = (
{
layerId = "E48BBF63-6980-4D0E-B72F-9E9EC78D2D9A";
paths = (
{
closed = 1;
nodes = (
"20 1136 OFFCURVE",
"27 1099 OFFCURVE",
"40 1059 CURVE",
"92 1072 LINE",
"80 1104 OFFCURVE",
"74 1137 OFFCURVE",
"74 1171 CURVE SMOOTH",
"74 1319 OFFCURVE",
"181 1402 OFFCURVE",
"368 1402 CURVE SMOOTH",
"578 1402 LINE",
"578 0 LINE",
"632 0 LINE",
"632 1402 LINE",
"1162 1402 LINE",
"1162 1456 LINE",
"368 1456 LINE SMOOTH",
"143 1456 OFFCURVE",
"20 1350 OFFCURVE",
"20 1171 CURVE SMOOTH"
);
}
);
width = 1217;
}
);
note = uni01AC;
unicode = 01AC;
},
{
glyphname = uni01AD;
lastChange = "2017-04-17 15:01:56 +0000";
layers = (
{
layerId = "E48BBF63-6980-4D0E-B72F-9E9EC78D2D9A";
paths = (
{
closed = 1;
nodes = (
"518 1527 OFFCURVE",
"551 1521 OFFCURVE",
"583 1509 CURVE",
"596 1561 LINE",
"556 1574 OFFCURVE",
"519 1581 OFFCURVE",
"484 1581 CURVE SMOOTH",
"307 1581 OFFCURVE",
"239 1460 OFFCURVE",
"238 1239 CURVE SMOOTH",
"238 1082 LINE",
"38 1082 LINE",
"38 1027 LINE",
"238 1027 LINE",
"238 259 LINE SMOOTH",
"238 42 OFFCURVE",
"322 -20 OFFCURVE",
"459 -20 CURVE SMOOTH",
"512 -20 OFFCURVE",
"550 -16 OFFCURVE",
"572 -8 CURVE",
"563 43 LINE",
"521 37 OFFCURVE",
"485 34 OFFCURVE",
"456 34 CURVE SMOOTH",
"369 34 OFFCURVE",
"293 68 OFFCURVE",
"293 259 CURVE SMOOTH",
"293 1027 LINE",
"539 1027 LINE",
"539 1082 LINE",
"293 1082 LINE",
"293 1233 LINE SMOOTH",
"293 1420 OFFCURVE",
"336 1527 OFFCURVE",
"484 1527 CURVE SMOOTH"
);
}
);
width = 648;
}
);
note = uni01AD;
unicode = 01AD;
},
{
glyphname = uni01AE;
lastChange = "2017-04-17 15:01:56 +0000";
layers = (
{
layerId = "E48BBF63-6980-4D0E-B72F-9E9EC78D2D9A";
paths = (
{
closed = 1;
nodes = (
"585 -89 LINE SMOOTH",
"585 -314 OFFCURVE",
"691 -437 OFFCURVE",
"870 -437 CURVE SMOOTH",
"905 -437 OFFCURVE",
"942 -430 OFFCURVE",
"982 -417 CURVE",
"969 -365 LINE",
"937 -377 OFFCURVE",
"904 -383 OFFCURVE",
"870 -383 CURVE SMOOTH",
"716 -383 OFFCURVE",
"639 -285 OFFCURVE",
"639 -89 CURVE SMOOTH",
"639 1402 LINE",
"1169 1402 LINE",
"1169 1456 LINE",
"55 1456 LINE",
"55 1402 LINE",
"585 1402 LINE"
);
}
);
width = 1224;
}
);
leftKerningGroup = T;
note = uni01AE;
rightKerningGroup = T;
unicode = 01AE;
},
{
glyphname = Uhorn;
lastChange = "2017-04-17 15:01:56 +0000";
layers = (
{
layerId = "E48BBF63-6980-4D0E-B72F-9E9EC78D2D9A";
paths = (
{
closed = 1;
nodes = (
"967 -20 OFFCURVE",
"1179 142 OFFCURVE",
"1180 465 CURVE SMOOTH",
"1180 1195 LINE",
"1393 1203 OFFCURVE",
"1468 1328 OFFCURVE",
"1468 1551 CURVE",
"1414 1551 LINE",
"1414 1364 OFFCURVE",
"1368 1257 OFFCURVE",
"1180 1249 CURVE",
"1180 1456 LINE",
"1126 1456 LINE",
"1126 469 LINE SMOOTH",
"1126 188 OFFCURVE",
"935 34 OFFCURVE",
"683 34 CURVE SMOOTH",
"431 34 OFFCURVE",
"239 188 OFFCURVE",
"239 469 CURVE SMOOTH",
"239 1456 LINE",
"185 1456 LINE",
"185 469 LINE SMOOTH",
"185 142 OFFCURVE",
"399 -20 OFFCURVE",
"683 -20 CURVE SMOOTH"
);
}
);
width = 1365;
}
);
note = Uhorn;
unicode = 01AF;
},
{
glyphname = uhorn;
lastChange = "2017-04-17 15:01:56 +0000";
layers = (
{
layerId = "E48BBF63-6980-4D0E-B72F-9E9EC78D2D9A";
paths = (
{
closed = 1;
nodes = (
"952 893 LINE",
"1129 906 OFFCURVE",
"1187 1010 OFFCURVE",
"1187 1190 CURVE",
"1132 1190 LINE",
"1132 1046 OFFCURVE",
"1103 960 OFFCURVE",
"952 947 CURVE",
"952 1082 LINE",
"897 1082 LINE",
"897 321 LINE",
"868 165 OFFCURVE",
"763 34 OFFCURVE",
"522 34 CURVE SMOOTH",
"350 34 OFFCURVE",
"223 127 OFFCURVE",
"222 388 CURVE",
"222 1082 LINE",
"168 1082 LINE",
"168 390 LINE SMOOTH",
"169 91 OFFCURVE",
"313 -20 OFFCURVE",
"524 -20 CURVE SMOOTH",
"712 -20 OFFCURVE",
"833 55 OFFCURVE",
"897 175 CURVE",
"897 0 LINE",
"952 0 LINE"
);
}
);
width = 1133;
}
);
leftKerningGroup = u;
note = uhorn;
unicode = 01B0;
},
{
glyphname = uni01B1;
lastChange = "2017-04-17 15:01:56 +0000";
layers = (
{
layerId = "E48BBF63-6980-4D0E-B72F-9E9EC78D2D9A";
paths = (
{
closed = 1;
nodes = (
"1142 285 OFFCURVE",
"961 34 OFFCURVE",
"677 34 CURVE SMOOTH",
"393 34 OFFCURVE",
"214 285 OFFCURVE",
"214 605 CURVE SMOOTH",
"214 724 LINE SMOOTH",
"214 858 OFFCURVE",
"233 968 OFFCURVE",
"271 1055 CURVE SMOOTH",
"347 1227 OFFCURVE",
"470 1323 OFFCURVE",
"579 1378 CURVE",
"579 1456 LINE",
"144 1456 LINE",
"144 1402 LINE",
"510 1402 LINE",
"338 1302 OFFCURVE",
"160 1101 OFFCURVE",
"160 724 CURVE SMOOTH",
"160 596 LINE SMOOTH",
"164 225 OFFCURVE",
"372 -20 OFFCURVE",
"677 -20 CURVE SMOOTH",
"984 -20 OFFCURVE",
"1196 230 OFFCURVE",
"1196 607 CURVE SMOOTH",
"1196 724 LINE SMOOTH",
"1196 1101 OFFCURVE",
"1020 1301 OFFCURVE",
"849 1402 CURVE",
"1217 1402 LINE",
"1217 1456 LINE",
"783 1456 LINE",
"783 1378 LINE",
"838 1350 OFFCURVE",
"894 1311 OFFCURVE",
"949 1260 CURVE SMOOTH",
"1059 1158 OFFCURVE",
"1142 991 OFFCURVE",
"1142 724 CURVE SMOOTH",
"1142 605 LINE SMOOTH"
);
}
);
width = 1361;
}
);
note = uni01B1;
unicode = 01B1;
},
{
glyphname = uni01B2;
lastChange = "2017-04-17 15:01:56 +0000";
layers = (
{
layerId = "E48BBF63-6980-4D0E-B72F-9E9EC78D2D9A";
paths = (
{
closed = 1;
nodes = (
"982 -21 OFFCURVE",
"1195 142 OFFCURVE",
"1195 469 CURVE SMOOTH",
"1195 1128 LINE SMOOTH",
"1195 1353 OFFCURVE",
"1129 1476 OFFCURVE",
"950 1476 CURVE SMOOTH",
"915 1476 OFFCURVE",
"878 1469 OFFCURVE",
"838 1456 CURVE",
"851 1404 LINE",
"883 1416 OFFCURVE",
"916 1422 OFFCURVE",
"950 1422 CURVE SMOOTH",
"1098 1422 OFFCURVE",
"1141 1315 OFFCURVE",
"1141 1128 CURVE SMOOTH",
"1141 469 LINE SMOOTH",
"1141 188 OFFCURVE",
"950 33 OFFCURVE",
"698 33 CURVE SMOOTH",
"446 33 OFFCURVE",
"254 188 OFFCURVE",
"254 469 CURVE SMOOTH",
"254 1456 LINE",
"200 1456 LINE",
"200 469 LINE SMOOTH",
"200 142 OFFCURVE",
"414 -21 OFFCURVE",
"698 -21 CURVE SMOOTH"
);
}
);
width = 1395;
}
);
note = uni01B2;
unicode = 01B2;
},
{
glyphname = uni01B3;
lastChange = "2017-04-17 15:01:56 +0000";
layers = (
{
layerId = "E48BBF63-6980-4D0E-B72F-9E9EC78D2D9A";
paths = (
{
closed = 1;
nodes = (
"1077 1280 OFFCURVE",
"1147 1420 OFFCURVE",
"1263 1420 CURVE SMOOTH",
"1343 1420 OFFCURVE",
"1399 1366 OFFCURVE",
"1438 1325 CURVE",
"1476 1363 LINE",
"1428 1419 OFFCURVE",
"1348 1476 OFFCURVE",
"1265 1476 CURVE SMOOTH",
"1190 1476 OFFCURVE",
"1130 1444 OFFCURVE",
"1085 1381 CURVE SMOOTH",
"995 1248 LINE",
"636 647 LINE",
"610 598 LINE",
"583 647 LINE",
"105 1456 LINE",
"33 1456 LINE",
"582 554 LINE",
"582 0 LINE",
"636 0 LINE",
"636 552 LINE",
"1024 1192 LINE SMOOTH"
);
}
);
width = 1223;
}
);
note = uni01B3;
unicode = 01B3;
},
{
glyphname = uni01B4;
lastChange = "2017-04-17 15:01:56 +0000";
layers = (
{
layerId = "E48BBF63-6980-4D0E-B72F-9E9EC78D2D9A";
paths = (
{
closed = 1;
nodes = (
"288 -437 OFFCURVE",
"369 -386 OFFCURVE",
"418 -284 CURVE SMOOTH",
"453 -206 LINE",
"935 1058 LINE SMOOTH",
"983 1183 OFFCURVE",
"1046 1246 OFFCURVE",
"1123 1246 CURVE SMOOTH",
"1179 1246 OFFCURVE",
"1234 1224 OFFCURVE",
"1288 1180 CURVE",
"1318 1224 LINE",
"1251 1275 OFFCURVE",
"1186 1301 OFFCURVE",
"1121 1301 CURVE SMOOTH",
"994 1301 OFFCURVE",
"919 1174 OFFCURVE",
"871 1047 CURVE SMOOTH",
"501 81 LINE",
"458 196 LINE",
"102 1082 LINE",
"43 1082 LINE",
"474 6 LINE",
"409 -170 LINE SMOOTH",
"361 -301 OFFCURVE",
"299 -384 OFFCURVE",
"174 -384 CURVE SMOOTH",
"141 -384 OFFCURVE",
"115 -381 OFFCURVE",
"97 -375 CURVE",
"98 -426 LINE",
"115 -433 OFFCURVE",
"141 -437 OFFCURVE",
"174 -437 CURVE SMOOTH"
);
}
);
width = 1218;
}
);
note = uni01B4;
unicode = 01B4;
},
{
glyphname = uni01B5;
lastChange = "2017-04-17 15:01:56 +0000";
layers = (
{
layerId = "E48BBF63-6980-4D0E-B72F-9E9EC78D2D9A";
paths = (
{
closed = 1;
nodes = (
"599 783 LINE",
"188 783 LINE",
"188 729 LINE",
"562 729 LINE",
"94 44 LINE",
"94 0 LINE",
"1130 0 LINE",
"1130 54 LINE",
"168 54 LINE",
"628 729 LINE",
"1015 729 LINE",
"1015 783 LINE",
"665 783 LINE",
"1098 1418 LINE",
"1098 1456 LINE",
"134 1456 LINE",
"134 1403 LINE",
"1023 1403 LINE"
);
}
);
width = 1224;
}
);
note = uni01B5;
unicode = 01B5;
},
{
glyphname = uni01B6;
lastChange = "2017-04-17 15:01:56 +0000";
layers = (
{
layerId = "E48BBF63-6980-4D0E-B72F-9E9EC78D2D9A";
paths = (
{
closed = 1;
nodes = (
"477 583 LINE",
"178 583 LINE",
"178 529 LINE",
"438 529 LINE",
"87 44 LINE",
"87 0 LINE",
"930 0 LINE",
"930 54 LINE",
"160 54 LINE",
"505 529 LINE",
"805 529 LINE",
"805 583 LINE",
"544 583 LINE",
"871 1034 LINE",
"871 1082 LINE",
"118 1082 LINE",
"118 1027 LINE",
"798 1027 LINE"
);
}
);
width = 978;
}
);
leftKerningGroup = z;
note = uni01B6;
rightKerningGroup = z;
unicode = 01B6;
},
{
glyphname = uni01B7;
lastChange = "2017-04-17 15:01:56 +0000";
layers = (
{
layerId = "E48BBF63-6980-4D0E-B72F-9E9EC78D2D9A";
paths = (
{
closed = 1;
nodes = (
"385 754 LINE",
"385 710 LINE",
"609 710 LINE SMOOTH",
"892 710 OFFCURVE",
"1082 517 OFFCURVE",
"1082 164 CURVE SMOOTH",
"1082 -189 OFFCURVE",
"892 -382 OFFCURVE",
"609 -382 CURVE SMOOTH",
"338 -382 OFFCURVE",
"173 -254 OFFCURVE",
"144 31 CURVE",
"90 31 LINE",
"119 -284 OFFCURVE",
"317 -436 OFFCURVE",
"609 -436 CURVE SMOOTH",
"929 -436 OFFCURVE",
"1136 -216 OFFCURVE",
"1136 164 CURVE SMOOTH",
"1136 540 OFFCURVE",
"933 760 OFFCURVE",
"618 764 CURVE SMOOTH",
"470 764 LINE",
"1054 1418 LINE",
"1054 1456 LINE",
"90 1456 LINE",
"90 1403 LINE",
"967 1403 LINE"
);
}
);
width = 1273;
}
);
note = uni01B7;
unicode = 01B7;
},
{
glyphname = uni01B8;
lastChange = "2017-04-17 15:01:56 +0000";
layers = (
{
layerId = "E48BBF63-6980-4D0E-B72F-9E9EC78D2D9A";
paths = (
{
closed = 1;
nodes = (
"1183 1403 LINE",
"1183 1456 LINE",
"219 1456 LINE",
"219 1418 LINE",
"803 764 LINE",
"664 764 LINE SMOOTH",
"344 764 OFFCURVE",
"137 544 OFFCURVE",
"137 164 CURVE SMOOTH",
"137 -216 OFFCURVE",
"344 -436 OFFCURVE",
"664 -436 CURVE SMOOTH",
"956 -436 OFFCURVE",
"1152 -284 OFFCURVE",
"1183 31 CURVE",
"1129 31 LINE",
"1098 -254 OFFCURVE",
"933 -382 OFFCURVE",
"664 -382 CURVE SMOOTH",
"381 -382 OFFCURVE",
"191 -189 OFFCURVE",
"191 164 CURVE SMOOTH",
"191 277 OFFCURVE",
"209 374 OFFCURVE",
"245 453 CURVE SMOOTH",
"316 611 OFFCURVE",
"465 710 OFFCURVE",
"664 710 CURVE SMOOTH",
"888 710 LINE",
"888 754 LINE",
"306 1403 LINE"
);
}
);
width = 1273;
}
);
note = uni01B8;
unicode = 01B8;
},
{
glyphname = uni01B9;
lastChange = "2017-04-17 15:01:56 +0000";
layers = (
{
layerId = "E48BBF63-6980-4D0E-B72F-9E9EC78D2D9A";
paths = (
{
closed = 1;
nodes = (
"1023 1082 LINE",
"154 1082 LINE",
"151 1014 LINE",
"632 452 LINE",
"328 452 OFFCURVE",
"159 295 OFFCURVE",
"159 11 CURVE SMOOTH",
"159 -246 OFFCURVE",
"344 -395 OFFCURVE",
"593 -395 CURVE SMOOTH",
"666 -395 OFFCURVE",
"738 -380 OFFCURVE",
"807 -349 CURVE SMOOTH",
"945 -289 OFFCURVE",
"1044 -164 OFFCURVE",
"1044 29 CURVE",
"988 29 LINE",
"988 -186 OFFCURVE",
"830 -341 OFFCURVE",
"593 -341 CURVE SMOOTH",
"352 -341 OFFCURVE",
"213 -209 OFFCURVE",
"213 7 CURVE SMOOTH",
"213 286 OFFCURVE",
"376 403 OFFCURVE",
"623 404 CURVE SMOOTH",
"698 404 LINE",
"698 460 LINE",
"211 1027 LINE",
"1023 1027 LINE"
);
}
);
width = 1166;
}
);
note = uni01B9;
unicode = 01B9;
},
{
glyphname = uni01BA;
lastChange = "2017-04-17 15:01:56 +0000";
layers = (
{
layerId = "E48BBF63-6980-4D0E-B72F-9E9EC78D2D9A";
paths = (
{
closed = 1;
nodes = (
"787 286 OFFCURVE",
"711 221 OFFCURVE",
"464 164 CURVE SMOOTH",
"216 107 OFFCURVE",
"91 27 OFFCURVE",
"91 -152 CURVE SMOOTH",
"91 -319 OFFCURVE",
"238 -437 OFFCURVE",
"471 -437 CURVE SMOOTH",
"734 -437 OFFCURVE",
"876 -300 OFFCURVE",
"876 -141 CURVE",
"822 -141 LINE",
"809 -326 OFFCURVE",
"628 -383 OFFCURVE",
"471 -383 CURVE SMOOTH",
"258 -383 OFFCURVE",
"145 -264 OFFCURVE",
"145 -151 CURVE SMOOTH",
"145 -102 OFFCURVE",
"167 -53 OFFCURVE",
"210 -3 CURVE SMOOTH",
"253 47 OFFCURVE",
"341 87 OFFCURVE",
"472 116 CURVE SMOOTH",
"735 174 OFFCURVE",
"841 242 OFFCURVE",
"841 413 CURVE SMOOTH",
"841 564 OFFCURVE",
"704 686 OFFCURVE",
"479 686 CURVE SMOOTH",
"461 686 LINE",
"848 1034 LINE",
"848 1082 LINE",
"95 1082 LINE",
"95 1027 LINE",
"758 1027 LINE",
"369 676 LINE",
"369 632 LINE",
"479 632 LINE SMOOTH",
"698 632 OFFCURVE",
"787 516 OFFCURVE",
"787 415 CURVE SMOOTH"
);
}
);
width = 998;
}
);
note = uni01BA;
unicode = 01BA;
},
{
glyphname = uni01BB;
lastChange = "2017-04-17 15:01:56 +0000";
layers = (
{
layerId = "E48BBF63-6980-4D0E-B72F-9E9EC78D2D9A";
paths = (
{
closed = 1;
nodes = (
"681 587 LINE",
"758 681 LINE",
"1024 681 LINE",
"1024 735 LINE",
"799 735 LINE",
"883 851 OFFCURVE",
"946 969 OFFCURVE",
"946 1085 CURVE SMOOTH",
"946 1340 OFFCURVE",
"787 1476 OFFCURVE",
"536 1476 CURVE SMOOTH",
"288 1476 OFFCURVE",
"117 1281 OFFCURVE",
"117 1045 CURVE",
"171 1045 LINE",
"171 1261 OFFCURVE",
"327 1422 OFFCURVE",
"536 1422 CURVE SMOOTH",
"769 1422 OFFCURVE",
"891 1292 OFFCURVE",
"891 1085 CURVE SMOOTH",
"891 988 OFFCURVE",
"840 872 OFFCURVE",
"737 735 CURVE",
"387 735 LINE",
"387 681 LINE",
"694 681 LINE",
"656 634 LINE",
"153 54 LINE",
"153 0 LINE",
"1024 0 LINE",
"1024 54 LINE",
"224 54 LINE"
);
}
);
width = 1121;
}
);
note = uni01BB;
unicode = 01BB;
},
{
glyphname = uni01BC;
lastChange = "2017-04-17 15:01:56 +0000";
layers = (
{
layerId = "E48BBF63-6980-4D0E-B72F-9E9EC78D2D9A";
paths = (
{
closed = 1;
nodes = (
"231 762 LINE",
"272 746 LINE",
"348 817 OFFCURVE",
"442 862 OFFCURVE",
"595 862 CURVE SMOOTH",
"836 862 OFFCURVE",
"969 690 OFFCURVE",
"969 462 CURVE SMOOTH",
"969 177 OFFCURVE",
"851 34 OFFCURVE",
"614 34 CURVE SMOOTH",
"384 34 OFFCURVE",
"258 150 OFFCURVE",
"237 383 CURVE",
"182 383 LINE",
"203 110 OFFCURVE",
"386 -20 OFFCURVE",
"614 -20 CURVE SMOOTH",
"907 -20 OFFCURVE",
"1024 185 OFFCURVE",
"1024 464 CURVE SMOOTH",
"1024 748 OFFCURVE",
"845 916 OFFCURVE",
"594 916 CURVE SMOOTH",
"458 916 OFFCURVE",
"337 860 OFFCURVE",
"289 819 CURVE",
"348 1403 LINE",
"1009 1403 LINE",
"1009 1456 LINE",
"59 1456 LINE",
"59 1403 LINE",
"294 1403 LINE"
);
}
);
width = 1121;
}
);
note = uni01BC;
unicode = 01BC;
},
{
glyphname = uni01BD;
lastChange = "2017-04-17 15:01:56 +0000";
layers = (
{
layerId = "E48BBF63-6980-4D0E-B72F-9E9EC78D2D9A";
paths = (
{
closed = 1;
nodes = (
"166 519 LINE",
"208 506 LINE",
"253 611 OFFCURVE",
"351 679 OFFCURVE",
"543 679 CURVE SMOOTH",
"738 679 OFFCURVE",
"847 560 OFFCURVE",
"847 369 CURVE SMOOTH",
"847 153 OFFCURVE",
"749 36 OFFCURVE",
"517 36 CURVE SMOOTH",
"330 36 OFFCURVE",
"202 127 OFFCURVE",
"202 308 CURVE",
"148 306 LINE",
"148 79 OFFCURVE",
"324 -17 OFFCURVE",
"517 -17 CURVE SMOOTH",
"792 -17 OFFCURVE",
"902 148 OFFCURVE",
"902 371 CURVE SMOOTH",
"902 600 OFFCURVE",
"749 739 OFFCURVE",
"544 734 CURVE SMOOTH",
"361 730 OFFCURVE",
"292 683 OFFCURVE",
"229 631 CURVE",
"281 1026 LINE",
"855 1026 LINE",
"855 1082 LINE",
"50 1082 LINE",
"50 1026 LINE",
"231 1026 LINE"
);
}
);
width = 1035;
}
);
note = uni01BD;
unicode = 01BD;
},
{
glyphname = uni01BE;
lastChange = "2017-04-17 15:01:56 +0000";
layers = (
{
layerId = "E48BBF63-6980-4D0E-B72F-9E9EC78D2D9A";
paths = (
{
closed = 1;
nodes = (
"855 384 OFFCURVE",
"793 439 OFFCURVE",
"713 480 CURVE SMOOTH",
"672 500 OFFCURVE",
"632 522 OFFCURVE",
"591 547 CURVE SMOOTH",
"510 596 OFFCURVE",
"449 674 OFFCURVE",
"449 831 CURVE SMOOTH",
"449 1027 LINE",
"695 1027 LINE",
"695 1082 LINE",
"449 1082 LINE",
"449 1374 LINE",
"394 1374 LINE",
"394 1082 LINE",
"194 1082 LINE",
"194 1027 LINE",
"394 1027 LINE",
"394 829 LINE SMOOTH",
"394 746 OFFCURVE",
"408 682 OFFCURVE",
"435 635 CURVE SMOOTH",
"489 541 OFFCURVE",
"578 493 OFFCURVE",
"659 454 CURVE SMOOTH",
"739 414 OFFCURVE",
"801 366 OFFCURVE",
"801 265 CURVE SMOOTH",
"801 152 OFFCURVE",
"688 34 OFFCURVE",
"475 34 CURVE SMOOTH",
"318 34 OFFCURVE",
"137 90 OFFCURVE",
"124 275 CURVE",
"70 275 LINE",
"70 116 OFFCURVE",
"212 -20 OFFCURVE",
"475 -20 CURVE SMOOTH",
"700 -20 OFFCURVE",
"855 96 OFFCURVE",
"855 264 CURVE SMOOTH"
);
}
);
width = 925;
}
);
note = uni01BE;
unicode = 01BE;
},
{
glyphname = uni01BF;
lastChange = "2017-04-17 15:01:56 +0000";
layers = (
{
layerId = "E48BBF63-6980-4D0E-B72F-9E9EC78D2D9A";
paths = (
{
closed = 1;
nodes = (
"999 923 OFFCURVE",
"848 1102 OFFCURVE",
"591 1102 CURVE SMOOTH",
"416 1102 OFFCURVE",
"295 1017 OFFCURVE",
"224 889 CURVE",
"224 1082 LINE",
"170 1082 LINE",
"170 -416 LINE",
"224 -416 LINE",
"224 -56 LINE",
"679 24 OFFCURVE",
"999 210 OFFCURVE",
"999 591 CURVE SMOOTH",
"999 612 LINE SMOOTH"
);
},
{
closed = 1;
nodes = (
"829 1048 OFFCURVE",
"944 869 OFFCURVE",
"944 612 CURVE SMOOTH",
"944 583 LINE SMOOTH",
"940 239 OFFCURVE",
"641 69 OFFCURVE",
"224 -2 CURVE",
"224 775 LINE",
"265 902 OFFCURVE",
"363 1048 OFFCURVE",
"592 1048 CURVE SMOOTH"
);
}
);
width = 1121;
}
);
note = uni01BF;
unicode = 01BF;
},
{
glyphname = uni01C0;
lastChange = "2017-04-17 15:01:56 +0000";
layers = (
{
layerId = "E48BBF63-6980-4D0E-B72F-9E9EC78D2D9A";
paths = (
{
closed = 1;
nodes = (
"240 0 LINE",
"294 0 LINE",
"294 1456 LINE",
"240 1456 LINE"
);
}
);
width = 534;
}
);
note = uni01C0;
unicode = 01C0;
},
{
glyphname = uni01C5;
lastChange = "2017-04-17 15:01:56 +0000";
layers = (
{
layerId = "E48BBF63-6980-4D0E-B72F-9E9EC78D2D9A";
paths = (
{
closed = 1;
nodes = (
"1388 1461 LINE",
"1602 1252 LINE",
"1681 1252 LINE",
"1893 1459 LINE",
"1893 1475 LINE",
"1826 1475 LINE",
"1642 1288 LINE",
"1459 1475 LINE",
"1388 1475 LINE"
);
},
{
closed = 1;
nodes = (
"947 0 OFFCURVE",
"1204 260 OFFCURVE",
"1204 639 CURVE SMOOTH",
"1204 817 LINE SMOOTH",
"1204 1196 OFFCURVE",
"947 1456 OFFCURVE",
"603 1456 CURVE SMOOTH",
"200 1456 LINE",
"200 0 LINE",
"603 0 LINE SMOOTH"
);
},
{
closed = 1;
nodes = (
"916 1402 OFFCURVE",
"1150 1159 OFFCURVE",
"1150 820 CURVE SMOOTH",
"1150 639 LINE SMOOTH",
"1150 296 OFFCURVE",
"916 54 OFFCURVE",
"603 54 CURVE SMOOTH",
"254 54 LINE",
"254 1402 LINE",
"603 1402 LINE SMOOTH"
);
},
{
closed = 1;
nodes = (
"1228 44 LINE",
"1228 0 LINE",
"2071 0 LINE",
"2071 54 LINE",
"1301 54 LINE",
"2012 1034 LINE",
"2012 1082 LINE",
"1259 1082 LINE",
"1259 1027 LINE",
"1939 1027 LINE"
);
}
);
width = 2119;
}
);
note = uni01C5;
rightKerningGroup = z;
unicode = 01C5;
},
{
glyphname = uni01C6;
lastChange = "2017-04-17 15:01:56 +0000";
layers = (
{
layerId = "E48BBF63-6980-4D0E-B72F-9E9EC78D2D9A";
paths = (
{
closed = 1;
nodes = (
"951 1560 LINE",
"897 1560 LINE",
"897 883 LINE",
"829 1014 OFFCURVE",
"709 1102 OFFCURVE",
"530 1102 CURVE SMOOTH",
"273 1102 OFFCURVE",
"122 893 OFFCURVE",
"122 552 CURVE SMOOTH",
"122 518 LINE SMOOTH",
"126 197 OFFCURVE",
"275 -21 OFFCURVE",
"528 -21 CURVE SMOOTH",
"707 -21 OFFCURVE",
"830 62 OFFCURVE",
"897 173 CURVE",
"897 0 LINE",
"951 0 LINE"
);
},
{
closed = 1;
nodes = (
"1168 1461 LINE",
"1382 1252 LINE",
"1461 1252 LINE",
"1673 1459 LINE",
"1673 1475 LINE",
"1606 1475 LINE",
"1422 1288 LINE",
"1239 1475 LINE",
"1168 1475 LINE"
);
},
{
closed = 1;
nodes = (
"1008 44 LINE",
"1008 0 LINE",
"1851 0 LINE",
"1851 54 LINE",
"1081 54 LINE",
"1792 1034 LINE",
"1792 1082 LINE",
"1039 1082 LINE",
"1039 1027 LINE",
"1719 1027 LINE"
);
},
{
closed = 1;
nodes = (
"179 841 OFFCURVE",
"292 1048 OFFCURVE",
"529 1048 CURVE SMOOTH",
"758 1048 OFFCURVE",
"856 902 OFFCURVE",
"897 775 CURVE",
"897 269 LINE",
"846 134 OFFCURVE",
"726 33 OFFCURVE",
"527 33 CURVE SMOOTH",
"291 33 OFFCURVE",
"178 243 OFFCURVE",
"178 531 CURVE SMOOTH",
"178 557 LINE SMOOTH"
);
}
);
width = 1899;
}
);
leftKerningGroup = c;
note = uni01C6;
rightKerningGroup = z;
unicode = 01C6;
},
{
glyphname = uni01E4;
lastChange = "2017-04-17 15:01:56 +0000";
layers = (
{
layerId = "E48BBF63-6980-4D0E-B72F-9E9EC78D2D9A";
paths = (
{
closed = 1;
nodes = (
"1426 381 LINE",
"1426 435 LINE",
"1226 435 LINE",
"1226 660 LINE",
"727 660 LINE",
"727 605 LINE",
"1172 605 LINE",
"1172 435 LINE",
"839 435 LINE",
"839 381 LINE",
"1172 381 LINE",
"1172 181 LINE",
"1127 122 OFFCURVE",
"968 34 OFFCURVE",
"729 34 CURVE SMOOTH",
"421 34 OFFCURVE",
"222 277 OFFCURVE",
"222 620 CURVE SMOOTH",
"222 860 LINE SMOOTH",
"222 1188 OFFCURVE",
"415 1422 OFFCURVE",
"712 1422 CURVE SMOOTH",
"1015 1422 OFFCURVE",
"1141 1251 OFFCURVE",
"1170 1062 CURVE",
"1224 1062 LINE",
"1197 1295 OFFCURVE",
"1027 1476 OFFCURVE",
"712 1476 CURVE SMOOTH",
"391 1476 OFFCURVE",
"168 1225 OFFCURVE",
"168 858 CURVE SMOOTH",
"168 620 LINE SMOOTH",
"168 240 OFFCURVE",
"397 -20 OFFCURVE",
"729 -20 CURVE SMOOTH",
"871 -20 OFFCURVE",
"984 1 OFFCURVE",
"1067 43 CURVE SMOOTH",
"1150 85 OFFCURVE",
"1203 123 OFFCURVE",
"1226 156 CURVE",
"1226 381 LINE"
);
}
);
width = 1406;
}
);
note = uni01E4;
unicode = 01E4;
},
{
glyphname = uni01E5;
lastChange = "2017-04-17 15:01:56 +0000";
layers = (
{
layerId = "E48BBF63-6980-4D0E-B72F-9E9EC78D2D9A";
paths = (
{
closed = 1;
nodes = (
"940 -103 LINE",
"947 -66 OFFCURVE",
"950 -26 OFFCURVE",
"950 15 CURVE SMOOTH",
"950 1082 LINE",
"895 1082 LINE",
"895 885 LINE",
"827 1014 OFFCURVE",
"706 1102 OFFCURVE",
"529 1102 CURVE SMOOTH",
"272 1102 OFFCURVE",
"121 893 OFFCURVE",
"121 552 CURVE SMOOTH",
"121 531 LINE SMOOTH",
"121 202 OFFCURVE",
"271 -20 OFFCURVE",
"527 -20 CURVE SMOOTH",
"704 -20 OFFCURVE",
"828 61 OFFCURVE",
"895 172 CURVE",
"895 15 LINE SMOOTH",
"895 -27 OFFCURVE",
"891 -66 OFFCURVE",
"884 -103 CURVE",
"41 -103 LINE",
"41 -157 LINE",
"870 -157 LINE",
"823 -298 OFFCURVE",
"712 -383 OFFCURVE",
"539 -383 CURVE SMOOTH",
"404 -383 OFFCURVE",
"309 -325 OFFCURVE",
"225 -218 CURVE",
"187 -254 LINE",
"266 -361 OFFCURVE",
"382 -436 OFFCURVE",
"541 -436 CURVE SMOOTH",
"738 -436 OFFCURVE",
"875 -332 OFFCURVE",
"927 -157 CURVE",
"1148 -157 LINE",
"1148 -103 LINE"
);
},
{
closed = 1;
nodes = (
"177 841 OFFCURVE",
"292 1048 OFFCURVE",
"528 1048 CURVE SMOOTH",
"763 1048 OFFCURVE",
"855 895 OFFCURVE",
"895 767 CURVE",
"895 276 LINE",
"846 139 OFFCURVE",
"729 34 OFFCURVE",
"526 34 CURVE SMOOTH",
"290 34 OFFCURVE",
"176 243 OFFCURVE",
"176 531 CURVE SMOOTH",
"176 557 LINE SMOOTH"
);
}
);
width = 1123;
}
);
leftKerningGroup = c;
note = uni01E5;
unicode = 01E5;
},
{
glyphname = uni01EF;
lastChange = "2017-04-17 15:01:56 +0000";
layers = (
{
layerId = "E48BBF63-6980-4D0E-B72F-9E9EC78D2D9A";
paths = (
{
closed = 1;
nodes = (
"308 1461 LINE",
"522 1252 LINE",
"601 1252 LINE",
"813 1459 LINE",
"813 1475 LINE",
"746 1475 LINE",
"562 1288 LINE",
"379 1475 LINE",
"308 1475 LINE"
);
},
{
closed = 1;
nodes = (
"787 404 OFFCURVE",
"953 288 OFFCURVE",
"953 7 CURVE SMOOTH",
"953 -209 OFFCURVE",
"814 -341 OFFCURVE",
"573 -341 CURVE SMOOTH",
"336 -341 OFFCURVE",
"178 -186 OFFCURVE",
"178 29 CURVE",
"122 29 LINE",
"122 -68 OFFCURVE",
"144 -147 OFFCURVE",
"189 -210 CURVE SMOOTH",
"278 -335 OFFCURVE",
"426 -395 OFFCURVE",
"573 -395 CURVE SMOOTH",
"822 -395 OFFCURVE",
"1007 -246 OFFCURVE",
"1007 11 CURVE SMOOTH",
"1007 295 OFFCURVE",
"838 452 OFFCURVE",
"534 452 CURVE",
"1015 1014 LINE",
"1012 1082 LINE",
"143 1082 LINE",
"143 1027 LINE",
"955 1027 LINE",
"468 460 LINE",
"468 404 LINE",
"539 404 LINE SMOOTH"
);
}
);
width = 1166;
}
);
note = uni01EF;
unicode = 01EF;
},
{
glyphname = uni01F6;
lastChange = "2017-04-17 15:01:56 +0000";
layers = (
{
layerId = "E48BBF63-6980-4D0E-B72F-9E9EC78D2D9A";
paths = (
{
closed = 1;
nodes = (
"254 776 LINE",
"254 1456 LINE",
"200 1456 LINE",
"200 0 LINE",
"254 0 LINE",
"254 722 LINE",
"1184 722 LINE",
"1184 391 LINE SMOOTH",
"1184 130 OFFCURVE",
"1383 -17 OFFCURVE",
"1648 -17 CURVE SMOOTH",
"1912 -17 OFFCURVE",
"2111 130 OFFCURVE",
"2111 391 CURVE SMOOTH",
"2111 1082 LINE",
"2056 1082 LINE",
"2056 391 LINE SMOOTH",
"2056 172 OFFCURVE",
"1880 38 OFFCURVE",
"1648 38 CURVE SMOOTH",
"1417 38 OFFCURVE",
"1238 172 OFFCURVE",
"1238 391 CURVE SMOOTH",
"1238 1456 LINE",
"1184 1456 LINE",
"1184 776 LINE"
);
}
);
width = 2311;
}
);
note = uni01F6;
unicode = 01F6;
},
{
glyphname = uni01F7;
lastChange = "2017-04-17 15:01:56 +0000";
layers = (
{
layerId = "E48BBF63-6980-4D0E-B72F-9E9EC78D2D9A";
paths = (
{
closed = 1;
nodes = (
"1239 1278 OFFCURVE",
"1032 1476 OFFCURVE",
"713 1476 CURVE SMOOTH",
"496 1476 OFFCURVE",
"335 1393 OFFCURVE",
"254 1224 CURVE",
"254 1456 LINE",
"200 1456 LINE",
"200 -437 LINE",
"254 -437 LINE",
"254 -53 LINE",
"851 79 OFFCURVE",
"1240 341 OFFCURVE",
"1240 829 CURVE SMOOTH",
"1240 901 LINE"
);
},
{
closed = 1;
nodes = (
"996 1422 OFFCURVE",
"1186 1250 OFFCURVE",
"1186 899 CURVE SMOOTH",
"1186 829 LINE SMOOTH",
"1186 671 OFFCURVE",
"1145 537 OFFCURVE",
"1064 427 CURVE SMOOTH",
"900 207 OFFCURVE",
"607 73 OFFCURVE",
"254 1 CURVE",
"254 1054 LINE",
"297 1299 OFFCURVE",
"450 1422 OFFCURVE",
"713 1422 CURVE SMOOTH"
);
}
);
width = 1376;
}
);
note = uni01F7;
unicode = 01F7;
},
{
glyphname = uni021C;
lastChange = "2017-04-17 15:01:56 +0000";
layers = (
{
layerId = "E48BBF63-6980-4D0E-B72F-9E9EC78D2D9A";
paths = (
{
closed = 1;
nodes = (
"1119 559 OFFCURVE",
"1030 659 OFFCURVE",
"901 695 CURVE",
"1037 788 OFFCURVE",
"1096 893 OFFCURVE",
"1096 1065 CURVE SMOOTH",
"1096 1341 OFFCURVE",
"903 1476 OFFCURVE",
"603 1476 CURVE SMOOTH",
"346 1476 OFFCURVE",
"121 1323 OFFCURVE",
"121 1075 CURVE",
"175 1075 LINE",
"175 1291 OFFCURVE",
"370 1422 OFFCURVE",
"603 1422 CURVE SMOOTH",
"908 1422 OFFCURVE",
"1042 1282 OFFCURVE",
"1042 1065 CURVE SMOOTH",
"1042 838 OFFCURVE",
"908 728 OFFCURVE",
"668 631 CURVE SMOOTH",
"235 457 LINE",
"236 401 LINE",
"517 509 OFFCURVE",
"713 584 OFFCURVE",
"846 661 CURVE",
"958 641 OFFCURVE",
"1065 551 OFFCURVE",
"1065 342 CURVE SMOOTH",
"1065 210 OFFCURVE",
"1031 101 OFFCURVE",
"964 14 CURVE SMOOTH",
"829 -159 OFFCURVE",
"575 -272 OFFCURVE",
"236 -379 CURVE",
"236 -437 LINE",
"416 -381 OFFCURVE",
"572 -321 OFFCURVE",
"704 -256 CURVE SMOOTH",
"968 -128 OFFCURVE",
"1119 51 OFFCURVE",
"1119 344 CURVE SMOOTH"
);
}
);
width = 1229;
}
);
note = uni021C;
unicode = 021C;
},
{
glyphname = uni021D;
lastChange = "2017-04-17 15:01:56 +0000";
layers = (
{
layerId = "E48BBF63-6980-4D0E-B72F-9E9EC78D2D9A";
paths = (
{
closed = 1;
nodes = (
"920 363 OFFCURVE",
"854 470 OFFCURVE",
"726 498 CURVE",
"843 572 OFFCURVE",
"901 672 OFFCURVE",
"901 797 CURVE SMOOTH",
"901 996 OFFCURVE",
"755 1102 OFFCURVE",
"515 1102 CURVE SMOOTH",
"314 1102 OFFCURVE",
"127 984 OFFCURVE",
"127 799 CURVE",
"182 799 LINE",
"182 950 OFFCURVE",
"340 1048 OFFCURVE",
"515 1048 CURVE SMOOTH",
"752 1048 OFFCURVE",
"846 942 OFFCURVE",
"846 797 CURVE SMOOTH",
"846 622 OFFCURVE",
"718 530 OFFCURVE",
"517 455 CURVE SMOOTH",
"182 332 LINE",
"183 277 LINE",
"388 346 OFFCURVE",
"544 402 OFFCURVE",
"656 459 CURVE",
"795 455 OFFCURVE",
"865 371 OFFCURVE",
"865 207 CURVE SMOOTH",
"865 -48 OFFCURVE",
"637 -262 OFFCURVE",
"184 -379 CURVE",
"184 -437 LINE",
"660 -316 OFFCURVE",
"920 -91 OFFCURVE",
"920 210 CURVE SMOOTH"
);
}
);
width = 1029;
}
);
note = uni021D;
unicode = 021D;
},
{
glyphname = uni0220;
lastChange = "2017-04-17 15:01:56 +0000";
layers = (
{
layerId = "E48BBF63-6980-4D0E-B72F-9E9EC78D2D9A";
paths = (
{
closed = 1;
nodes = (
"1127 1329 OFFCURVE",
"928 1476 OFFCURVE",
"664 1476 CURVE SMOOTH",
"480 1476 OFFCURVE",
"334 1404 OFFCURVE",
"254 1324 CURVE",
"254 1456 LINE",
"200 1456 LINE",
"200 0 LINE",
"254 0 LINE",
"254 1253 LINE",
"343 1354 OFFCURVE",
"493 1423 OFFCURVE",
"664 1423 CURVE SMOOTH",
"896 1423 OFFCURVE",
"1073 1287 OFFCURVE",
"1073 1068 CURVE SMOOTH",
"1073 -437 LINE",
"1127 -437 LINE",
"1127 1068 LINE SMOOTH"
);
}
);
width = 1312;
}
);
note = uni0220;
unicode = 0220;
},
{
glyphname = uni0221;
lastChange = "2017-04-17 15:01:56 +0000";
layers = (
{
layerId = "E48BBF63-6980-4D0E-B72F-9E9EC78D2D9A";
paths = (
{
closed = 1;
nodes = (
"829 1014 OFFCURVE",
"709 1102 OFFCURVE",
"530 1102 CURVE SMOOTH",
"273 1102 OFFCURVE",
"122 893 OFFCURVE",
"122 552 CURVE SMOOTH",
"122 531 LINE SMOOTH",
"122 202 OFFCURVE",
"272 -20 OFFCURVE",
"528 -20 CURVE SMOOTH",
"707 -20 OFFCURVE",
"830 62 OFFCURVE",
"897 174 CURVE",
"897 -147 LINE",
"758 -370 LINE",
"803 -401 LINE",
"905 -234 LINE",
"930 -369 OFFCURVE",
"1018 -437 OFFCURVE",
"1167 -437 CURVE SMOOTH",
"1320 -437 OFFCURVE",
"1395 -327 OFFCURVE",
"1395 -204 CURVE SMOOTH",
"1395 -57 OFFCURVE",
"1300 17 OFFCURVE",
"1181 17 CURVE SMOOTH",
"1099 17 OFFCURVE",
"1022 -17 OFFCURVE",
"951 -86 CURVE",
"951 1536 LINE",
"897 1536 LINE",
"897 883 LINE"
);
},
{
closed = 1;
nodes = (
"179 841 OFFCURVE",
"292 1048 OFFCURVE",
"529 1048 CURVE SMOOTH",
"758 1048 OFFCURVE",
"856 902 OFFCURVE",
"897 775 CURVE",
"897 269 LINE",
"846 134 OFFCURVE",
"726 34 OFFCURVE",
"527 34 CURVE SMOOTH",
"291 34 OFFCURVE",
"178 243 OFFCURVE",
"178 531 CURVE SMOOTH",
"178 557 LINE SMOOTH"
);
},
{
closed = 1;
nodes = (
"1278 -37 OFFCURVE",
"1341 -103 OFFCURVE",
"1341 -204 CURVE SMOOTH",
"1341 -303 OFFCURVE",
"1283 -383 OFFCURVE",
"1167 -383 CURVE SMOOTH",
"1008 -383 OFFCURVE",
"957 -304 OFFCURVE",
"952 -168 CURVE",
"1017 -84 OFFCURVE",
"1083 -37 OFFCURVE",
"1171 -37 CURVE SMOOTH"
);
}
);
width = 1425;
}
);
leftKerningGroup = c;
note = uni0221;
unicode = 0221;
},
{
glyphname = uni0222;
lastChange = "2017-04-17 15:01:56 +0000";
layers = (
{
layerId = "E48BBF63-6980-4D0E-B72F-9E9EC78D2D9A";
paths = (
{
closed = 1;
nodes = (
"1268 636 OFFCURVE",
"1131 773 OFFCURVE",
"919 822 CURVE",
"1131 855 OFFCURVE",
"1268 953 OFFCURVE",
"1268 1152 CURVE SMOOTH",
"1268 1359 OFFCURVE",
"1119 1465 OFFCURVE",
"919 1476 CURVE",
"919 1422 LINE",
"1106 1409 OFFCURVE",
"1214 1313 OFFCURVE",
"1214 1152 CURVE SMOOTH",
"1214 913 OFFCURVE",
"998 852 OFFCURVE",
"727 852 CURVE SMOOTH",
"685 852 LINE SMOOTH",
"414 852 OFFCURVE",
"198 913 OFFCURVE",
"198 1152 CURVE SMOOTH",
"198 1313 OFFCURVE",
"306 1409 OFFCURVE",
"493 1422 CURVE",
"493 1476 LINE",
"293 1465 OFFCURVE",
"144 1359 OFFCURVE",
"144 1152 CURVE SMOOTH",
"144 953 OFFCURVE",
"281 855 OFFCURVE",
"493 822 CURVE",
"282 773 OFFCURVE",
"145 635 OFFCURVE",
"145 414 CURVE SMOOTH",
"145 134 OFFCURVE",
"368 -20 OFFCURVE",
"685 -20 CURVE SMOOTH",
"727 -20 LINE SMOOTH",
"1044 -20 OFFCURVE",
"1268 133 OFFCURVE",
"1268 416 CURVE SMOOTH"
);
},
{
closed = 1;
nodes = (
"986 798 OFFCURVE",
"1214 679 OFFCURVE",
"1214 416 CURVE SMOOTH",
"1214 149 OFFCURVE",
"986 34 OFFCURVE",
"727 34 CURVE SMOOTH",
"681 34 LINE SMOOTH",
"429 35 OFFCURVE",
"199 151 OFFCURVE",
"199 414 CURVE SMOOTH",
"199 679 OFFCURVE",
"432 798 OFFCURVE",
"685 798 CURVE SMOOTH",
"727 798 LINE SMOOTH"
);
}
);
width = 1412;
}
);
note = uni0222;
unicode = 0222;
},
{
glyphname = uni0223;
lastChange = "2017-04-17 15:01:56 +0000";
layers = (
{
layerId = "E48BBF63-6980-4D0E-B72F-9E9EC78D2D9A";
paths = (
{
closed = 1;
nodes = (
"1267 629 OFFCURVE",
"1126 765 OFFCURVE",
"909 812 CURVE",
"1126 852 OFFCURVE",
"1267 973 OFFCURVE",
"1267 1192 CURVE SMOOTH",
"1267 1397 OFFCURVE",
"1138 1546 OFFCURVE",
"918 1557 CURVE",
"918 1503 LINE",
"1125 1490 OFFCURVE",
"1213 1355 OFFCURVE",
"1213 1192 CURVE SMOOTH",
"1213 931 OFFCURVE",
"997 840 OFFCURVE",
"726 840 CURVE SMOOTH",
"684 840 LINE SMOOTH",
"415 840 OFFCURVE",
"198 931 OFFCURVE",
"198 1190 CURVE SMOOTH",
"198 1362 OFFCURVE",
"306 1494 OFFCURVE",
"521 1503 CURVE",
"521 1557 LINE",
"273 1548 OFFCURVE",
"144 1393 OFFCURVE",
"144 1190 CURVE SMOOTH",
"144 973 OFFCURVE",
"285 852 OFFCURVE",
"501 812 CURVE",
"285 764 OFFCURVE",
"144 628 OFFCURVE",
"144 408 CURVE SMOOTH",
"144 133 OFFCURVE",
"367 -20 OFFCURVE",
"684 -20 CURVE SMOOTH",
"725 -20 LINE SMOOTH",
"1044 -20 OFFCURVE",
"1267 134 OFFCURVE",
"1267 410 CURVE SMOOTH"
);
},
{
closed = 1;
nodes = (
"985 786 OFFCURVE",
"1213 667 OFFCURVE",
"1213 410 CURVE SMOOTH",
"1213 150 OFFCURVE",
"985 34 OFFCURVE",
"726 34 CURVE SMOOTH",
"684 34 LINE SMOOTH",
"431 34 OFFCURVE",
"198 149 OFFCURVE",
"198 408 CURVE SMOOTH",
"198 667 OFFCURVE",
"431 786 OFFCURVE",
"684 786 CURVE SMOOTH",
"726 786 LINE SMOOTH"
);
}
);
width = 1411;
}
);
note = uni0223;
unicode = 0223;
},
{
glyphname = uni0224;
lastChange = "2017-04-17 15:01:56 +0000";
layers = (
{
layerId = "E48BBF63-6980-4D0E-B72F-9E9EC78D2D9A";
paths = (
{
closed = 1;
nodes = (
"94 44 LINE",
"94 0 LINE",
"793 0 LINE SMOOTH",
"980 0 OFFCURVE",
"1087 -83 OFFCURVE",
"1087 -231 CURVE SMOOTH",
"1087 -265 OFFCURVE",
"1081 -298 OFFCURVE",
"1069 -330 CURVE",
"1121 -343 LINE",
"1134 -303 OFFCURVE",
"1141 -266 OFFCURVE",
"1141 -231 CURVE SMOOTH",
"1141 -52 OFFCURVE",
"1018 54 OFFCURVE",
"793 54 CURVE SMOOTH",
"168 54 LINE",
"1098 1418 LINE",
"1098 1456 LINE",
"134 1456 LINE",
"134 1403 LINE",
"1023 1403 LINE"
);
}
);
width = 1224;
}
);
note = uni0224;
unicode = 0224;
},
{
glyphname = uni0225;
lastChange = "2017-04-17 15:01:56 +0000";
layers = (
{
layerId = "E48BBF63-6980-4D0E-B72F-9E9EC78D2D9A";
paths = (
{
closed = 1;
nodes = (
"118 1082 LINE",
"118 1027 LINE",
"798 1027 LINE",
"87 44 LINE",
"87 0 LINE",
"583 0 LINE SMOOTH",
"770 0 OFFCURVE",
"877 -83 OFFCURVE",
"877 -231 CURVE SMOOTH",
"877 -265 OFFCURVE",
"871 -298 OFFCURVE",
"859 -330 CURVE",
"911 -343 LINE",
"924 -303 OFFCURVE",
"931 -266 OFFCURVE",
"931 -231 CURVE SMOOTH",
"931 -52 OFFCURVE",
"808 54 OFFCURVE",
"583 54 CURVE SMOOTH",
"160 54 LINE",
"871 1034 LINE",
"871 1082 LINE"
);
}
);
width = 978;
}
);
note = uni0225;
unicode = 0225;
},
{
glyphname = uni0234;
lastChange = "2017-04-17 15:01:56 +0000";
layers = (
{
layerId = "E48BBF63-6980-4D0E-B72F-9E9EC78D2D9A";
paths = (
{
closed = 1;
nodes = (
"20 -370 LINE",
"65 -401 LINE",
"167 -234 LINE",
"192 -369 OFFCURVE",
"280 -437 OFFCURVE",
"429 -437 CURVE SMOOTH",
"582 -437 OFFCURVE",
"657 -327 OFFCURVE",
"657 -204 CURVE SMOOTH",
"657 -57 OFFCURVE",
"562 17 OFFCURVE",
"443 17 CURVE SMOOTH",
"361 17 OFFCURVE",
"284 -17 OFFCURVE",
"213 -86 CURVE",
"213 1536 LINE",
"159 1536 LINE",
"159 -147 LINE"
);
},
{
closed = 1;
nodes = (
"540 -37 OFFCURVE",
"603 -103 OFFCURVE",
"603 -204 CURVE SMOOTH",
"603 -303 OFFCURVE",
"545 -383 OFFCURVE",
"429 -383 CURVE SMOOTH",
"270 -383 OFFCURVE",
"219 -304 OFFCURVE",
"214 -168 CURVE",
"279 -84 OFFCURVE",
"345 -37 OFFCURVE",
"433 -37 CURVE SMOOTH"
);
}
);
width = 687;
}
);
note = uni0234;
unicode = 0234;
},
{
glyphname = uni0235;
lastChange = "2017-04-17 15:01:56 +0000";
layers = (
{
layerId = "E48BBF63-6980-4D0E-B72F-9E9EC78D2D9A";
paths = (
{
closed = 1;
nodes = (
"429 1102 OFFCURVE",
"291 983 OFFCURVE",
"226 831 CURVE",
"226 1082 LINE",
"172 1082 LINE",
"172 0 LINE",
"226 0 LINE",
"226 693 LINE",
"237 740 OFFCURVE",
"257 791 OFFCURVE",
"287 847 CURVE SMOOTH",
"346 958 OFFCURVE",
"450 1049 OFFCURVE",
"607 1049 CURVE SMOOTH",
"779 1049 OFFCURVE",
"900 975 OFFCURVE",
"900 700 CURVE SMOOTH",
"900 -147 LINE",
"761 -370 LINE",
"806 -401 LINE",
"908 -234 LINE",
"933 -369 OFFCURVE",
"1021 -437 OFFCURVE",
"1170 -437 CURVE SMOOTH",
"1323 -437 OFFCURVE",
"1398 -327 OFFCURVE",
"1398 -204 CURVE SMOOTH",
"1398 -57 OFFCURVE",
"1303 17 OFFCURVE",
"1184 17 CURVE SMOOTH",
"1102 17 OFFCURVE",
"1025 -17 OFFCURVE",
"954 -86 CURVE",
"954 705 LINE",
"953 988 OFFCURVE",
"827 1102 OFFCURVE",
"610 1102 CURVE SMOOTH"
);
},
{
closed = 1;
nodes = (
"1281 -37 OFFCURVE",
"1344 -103 OFFCURVE",
"1344 -204 CURVE SMOOTH",
"1344 -303 OFFCURVE",
"1286 -383 OFFCURVE",
"1170 -383 CURVE SMOOTH",
"1011 -383 OFFCURVE",
"960 -304 OFFCURVE",
"955 -168 CURVE",
"1020 -84 OFFCURVE",
"1086 -37 OFFCURVE",
"1174 -37 CURVE SMOOTH"
);
}
);
width = 1428;
}
);
leftKerningGroup = m;
note = uni0235;
unicode = 0235;
},
{
glyphname = uni0236;
lastChange = "2017-04-17 15:01:56 +0000";
layers = (
{
layerId = "E48BBF63-6980-4D0E-B72F-9E9EC78D2D9A";
paths = (
{
closed = 1;
nodes = (
"718 358 OFFCURVE",
"623 434 OFFCURVE",
"504 434 CURVE SMOOTH",
"421 434 OFFCURVE",
"344 400 OFFCURVE",
"275 332 CURVE",
"275 1027 LINE",
"521 1027 LINE",
"521 1082 LINE",
"275 1082 LINE",
"275 1374 LINE",
"220 1374 LINE",
"220 1082 LINE",
"20 1082 LINE",
"20 1027 LINE",
"220 1027 LINE",
"220 270 LINE",
"81 47 LINE",
"126 16 LINE",
"228 183 LINE",
"253 48 OFFCURVE",
"341 -20 OFFCURVE",
"490 -20 CURVE SMOOTH",
"643 -20 OFFCURVE",
"718 90 OFFCURVE",
"718 213 CURVE SMOOTH"
);
},
{
closed = 1;
nodes = (
"601 380 OFFCURVE",
"664 316 OFFCURVE",
"664 213 CURVE SMOOTH",
"664 114 OFFCURVE",
"606 34 OFFCURVE",
"490 34 CURVE SMOOTH",
"331 34 OFFCURVE",
"280 114 OFFCURVE",
"275 250 CURVE",
"343 334 OFFCURVE",
"406 380 OFFCURVE",
"494 380 CURVE SMOOTH"
);
}
);
width = 748;
}
);
note = uni0236;
unicode = 0236;
},
{
glyphname = uni0237;
lastChange = "2017-04-17 15:01:56 +0000";
layers = (
{
layerId = "E48BBF63-6980-4D0E-B72F-9E9EC78D2D9A";
paths = (
{
closed = 1;
nodes = (
"183 -288 OFFCURVE",
"106 -383 OFFCURVE",
"-45 -383 CURVE SMOOTH",
"-79 -383 OFFCURVE",
"-112 -377 OFFCURVE",
"-144 -365 CURVE",
"-157 -417 LINE",
"-117 -430 OFFCURVE",
"-80 -437 OFFCURVE",
"-45 -437 CURVE SMOOTH",
"134 -437 OFFCURVE",
"240 -314 OFFCURVE",
"240 -89 CURVE SMOOTH",
"240 1082 LINE",
"186 1082 LINE",
"186 -99 LINE SMOOTH"
);
}
);
width = 422;
}
);
note = uni0237;
unicode = 0237;
},
{
glyphname = uni0238;
lastChange = "2017-04-17 15:01:56 +0000";
layers = (
{
layerId = "E48BBF63-6980-4D0E-B72F-9E9EC78D2D9A";
paths = (
{
closed = 1;
nodes = (
"1726 894 OFFCURVE",
"1575 1102 OFFCURVE",
"1318 1102 CURVE SMOOTH",
"1142 1102 OFFCURVE",
"1020 1015 OFFCURVE",
"951 886 CURVE",
"951 1536 LINE",
"897 1536 LINE",
"897 883 LINE",
"829 1014 OFFCURVE",
"709 1102 OFFCURVE",
"530 1102 CURVE SMOOTH",
"273 1102 OFFCURVE",
"122 893 OFFCURVE",
"122 552 CURVE SMOOTH",
"122 531 LINE SMOOTH",
"122 202 OFFCURVE",
"272 -20 OFFCURVE",
"528 -20 CURVE SMOOTH",
"707 -20 OFFCURVE",
"830 62 OFFCURVE",
"897 174 CURVE",
"897 0 LINE",
"951 0 LINE",
"951 171 LINE",
"1019 60 OFFCURVE",
"1143 -20 OFFCURVE",
"1320 -20 CURVE SMOOTH",
"1576 -20 OFFCURVE",
"1726 202 OFFCURVE",
"1726 531 CURVE SMOOTH",
"1726 551 LINE SMOOTH"
);
},
{
closed = 1;
nodes = (
"1558 1048 OFFCURVE",
"1670 839 OFFCURVE",
"1670 552 CURVE SMOOTH",
"1670 526 LINE SMOOTH",
"1669 241 OFFCURVE",
"1556 34 OFFCURVE",
"1321 34 CURVE SMOOTH",
"1120 34 OFFCURVE",
"1000 137 OFFCURVE",
"951 274 CURVE",
"951 770 LINE",
"991 897 OFFCURVE",
"1086 1048 OFFCURVE",
"1319 1048 CURVE SMOOTH"
);
},
{
closed = 1;
nodes = (
"179 841 OFFCURVE",
"292 1048 OFFCURVE",
"529 1048 CURVE SMOOTH",
"758 1048 OFFCURVE",
"856 902 OFFCURVE",
"897 775 CURVE",
"897 269 LINE",
"846 134 OFFCURVE",
"726 34 OFFCURVE",
"527 34 CURVE SMOOTH",
"291 34 OFFCURVE",
"178 243 OFFCURVE",
"178 531 CURVE SMOOTH",
"178 557 LINE SMOOTH"
);
}
);
width = 1848;
}
);
note = uni0238;
rightKerningGroup = b;
unicode = 0238;
},
{
glyphname = uni0239;
lastChange = "2017-04-17 15:01:56 +0000";
layers = (
{
layerId = "E48BBF63-6980-4D0E-B72F-9E9EC78D2D9A";
paths = (
{
closed = 1;
nodes = (
"1576 -20 OFFCURVE",
"1726 202 OFFCURVE",
"1726 531 CURVE SMOOTH",
"1726 551 LINE SMOOTH",
"1726 894 OFFCURVE",
"1575 1102 OFFCURVE",
"1318 1102 CURVE SMOOTH",
"1143 1102 OFFCURVE",
"1022 1017 OFFCURVE",
"951 889 CURVE",
"951 1082 LINE",
"897 1082 LINE",
"897 889 LINE",
"828 1017 OFFCURVE",
"706 1102 OFFCURVE",
"530 1102 CURVE SMOOTH",
"273 1102 OFFCURVE",
"122 893 OFFCURVE",
"122 552 CURVE SMOOTH",
"122 531 LINE SMOOTH",
"122 202 OFFCURVE",
"272 -20 OFFCURVE",
"528 -20 CURVE SMOOTH",
"704 -20 OFFCURVE",
"829 60 OFFCURVE",
"897 168 CURVE",
"897 -416 LINE",
"951 -416 LINE",
"951 169 LINE",
"1019 60 OFFCURVE",
"1144 -20 OFFCURVE",
"1320 -20 CURVE SMOOTH"
);
},
{
closed = 1;
nodes = (
"179 841 OFFCURVE",
"292 1048 OFFCURVE",
"529 1048 CURVE SMOOTH",
"754 1048 OFFCURVE",
"856 898 OFFCURVE",
"897 775 CURVE",
"897 269 LINE",
"846 134 OFFCURVE",
"726 34 OFFCURVE",
"527 34 CURVE SMOOTH",
"291 34 OFFCURVE",
"178 243 OFFCURVE",
"178 531 CURVE SMOOTH",
"178 557 LINE SMOOTH"
);
},
{
closed = 1;
nodes = (
"1558 1048 OFFCURVE",
"1671 839 OFFCURVE",
"1671 552 CURVE SMOOTH",
"1671 531 LINE SMOOTH",
"1671 243 OFFCURVE",
"1557 34 OFFCURVE",
"1321 34 CURVE SMOOTH",
"1122 34 OFFCURVE",
"1002 134 OFFCURVE",
"951 269 CURVE",
"951 775 LINE",
"992 902 OFFCURVE",
"1090 1048 OFFCURVE",
"1319 1048 CURVE SMOOTH"
);
}
);
width = 1848;
}
);
note = uni0239;
rightKerningGroup = b;
unicode = 0239;
},
{
glyphname = uni023A;
lastChange = "2017-04-17 15:01:56 +0000";
layers = (
{
layerId = "E48BBF63-6980-4D0E-B72F-9E9EC78D2D9A";
paths = (
{
closed = 1;
nodes = (
"90 151 LINE",
"33 0 LINE",
"92 0 LINE",
"200 291 LINE",
"315 435 LINE",
"968 435 LINE",
"1130 0 LINE",
"1189 0 LINE",
"799 1043 LINE",
"1226 1581 LINE",
"1158 1581 LINE",
"777 1101 LINE",
"644 1456 LINE",
"578 1456 LINE",
"150 313 LINE",
"-198 -125 LINE",
"-130 -125 LINE"
);
},
{
closed = 1;
nodes = (
"738 1052 LINE",
"290 489 LINE",
"274 489 LINE",
"611 1391 LINE"
);
},
{
closed = 1;
nodes = (
"948 489 LINE",
"358 489 LINE",
"759 994 LINE"
);
}
);
width = 1223;
}
);
note = uni023A;
unicode = 023A;
},
{
glyphname = uni023B;
lastChange = "2017-04-17 15:01:56 +0000";
layers = (
{
layerId = "E48BBF63-6980-4D0E-B72F-9E9EC78D2D9A";
paths = (
{
closed = 1;
nodes = (
"963 -20 OFFCURVE",
"1161 131 OFFCURVE",
"1190 446 CURVE",
"1136 446 LINE",
"1107 161 OFFCURVE",
"942 34 OFFCURVE",
"671 34 CURVE SMOOTH",
"584 34 OFFCURVE",
"506 55 OFFCURVE",
"437 98 CURVE",
"925 1366 LINE",
"1046 1301 OFFCURVE",
"1117 1183 OFFCURVE",
"1136 1012 CURVE",
"1190 1012 LINE",
"1171 1208 OFFCURVE",
"1089 1343 OFFCURVE",
"944 1417 CURVE",
"1007 1581 LINE",
"948 1581 LINE",
"894 1439 LINE",
"828 1464 OFFCURVE",
"754 1476 OFFCURVE",
"671 1476 CURVE SMOOTH",
"351 1476 OFFCURVE",
"144 1217 OFFCURVE",
"144 837 CURVE SMOOTH",
"144 606 LINE SMOOTH",
"147 366 OFFCURVE",
"222 190 OFFCURVE",
"370 77 CURVE",
"292 -125 LINE",
"351 -125 LINE",
"417 46 LINE",
"492 2 OFFCURVE",
"576 -20 OFFCURVE",
"671 -20 CURVE SMOOTH"
);
},
{
closed = 1;
nodes = (
"198 1190 OFFCURVE",
"388 1422 OFFCURVE",
"671 1422 CURVE SMOOTH",
"748 1422 OFFCURVE",
"815 1411 OFFCURVE",
"874 1389 CURVE",
"391 131 LINE",
"262 237 OFFCURVE",
"198 400 OFFCURVE",
"198 619 CURVE SMOOTH",
"198 839 LINE SMOOTH"
);
}
);
width = 1327;
}
);
note = uni023B;
unicode = 023B;
},
{
glyphname = uni023C;
lastChange = "2017-04-17 15:01:56 +0000";
layers = (
{
layerId = "E48BBF63-6980-4D0E-B72F-9E9EC78D2D9A";
paths = (
{
closed = 1;
nodes = (
"750 -20 OFFCURVE",
"929 108 OFFCURVE",
"940 328 CURVE",
"886 328 LINE",
"873 121 OFFCURVE",
"708 34 OFFCURVE",
"539 34 CURVE SMOOTH",
"470 34 OFFCURVE",
"409 48 OFFCURVE",
"356 77 CURVE",
"714 1007 LINE",
"810 958 OFFCURVE",
"879 864 OFFCURVE",
"886 725 CURVE",
"940 725 LINE",
"933 889 OFFCURVE",
"850 1002 OFFCURVE",
"734 1058 CURVE",
"887 1456 LINE",
"828 1456 LINE",
"683 1079 LINE",
"637 1094 OFFCURVE",
"588 1102 OFFCURVE",
"537 1102 CURVE SMOOTH",
"258 1102 OFFCURVE",
"97 879 OFFCURVE",
"97 562 CURVE SMOOTH",
"97 507 LINE SMOOTH",
"100 298 OFFCURVE",
"164 148 OFFCURVE",
"290 56 CURVE",
"108 -416 LINE",
"167 -416 LINE",
"337 27 LINE",
"397 -4 OFFCURVE",
"464 -20 OFFCURVE",
"539 -20 CURVE SMOOTH"
);
},
{
closed = 1;
nodes = (
"151 831 OFFCURVE",
"272 1048 OFFCURVE",
"537 1048 CURVE SMOOTH",
"582 1048 OFFCURVE",
"624 1041 OFFCURVE",
"664 1028 CURVE",
"309 108 LINE",
"202 193 OFFCURVE",
"151 345 OFFCURVE",
"151 520 CURVE SMOOTH",
"151 562 LINE SMOOTH"
);
}
);
width = 1039;
}
);
note = uni023C;
unicode = 023C;
},
{
glyphname = uni023E;
lastChange = "2017-04-17 15:01:56 +0000";
layers = (
{
layerId = "E48BBF63-6980-4D0E-B72F-9E9EC78D2D9A";
paths = (
{
closed = 1;
nodes = (
"585 767 LINE",
"242 -125 LINE",
"301 -125 LINE",
"585 614 LINE",
"585 0 LINE",
"639 0 LINE",
"639 754 LINE",
"888 1402 LINE",
"1169 1402 LINE",
"1169 1456 LINE",
"909 1456 LINE",
"957 1581 LINE",
"898 1581 LINE",
"850 1456 LINE",
"55 1456 LINE",
"55 1402 LINE",
"585 1402 LINE"
);
},
{
closed = 1;
nodes = (
"639 907 LINE",
"639 1402 LINE",
"829 1402 LINE"
);
}
);
width = 1224;
}
);
note = uni023E;
unicode = 023E;
},
{
glyphname = uni023F;
lastChange = "2017-04-17 15:01:56 +0000";
layers = (
{
layerId = "E48BBF63-6980-4D0E-B72F-9E9EC78D2D9A";
paths = (
{
closed = 1;
nodes = (
"835 152 OFFCURVE",
"722 33 OFFCURVE",
"509 33 CURVE SMOOTH",
"352 33 OFFCURVE",
"209 90 OFFCURVE",
"158 275 CURVE",
"97 261 LINE",
"264 -87 LINE SMOOTH",
"325 -213 OFFCURVE",
"381 -303 OFFCURVE",
"434 -356 CURVE SMOOTH",
"486 -410 OFFCURVE",
"539 -437 OFFCURVE",
"592 -437 CURVE SMOOTH",
"692 -437 OFFCURVE",
"759 -379 OFFCURVE",
"810 -323 CURVE",
"772 -284 LINE",
"737 -327 OFFCURVE",
"673 -382 OFFCURVE",
"596 -382 CURVE SMOOTH",
"541 -382 OFFCURVE",
"489 -348 OFFCURVE",
"440 -279 CURVE SMOOTH",
"391 -210 OFFCURVE",
"335 -107 OFFCURVE",
"272 31 CURVE",
"337 -4 OFFCURVE",
"416 -21 OFFCURVE",
"509 -21 CURVE SMOOTH",
"742 -21 OFFCURVE",
"889 97 OFFCURVE",
"889 264 CURVE SMOOTH",
"889 447 OFFCURVE",
"760 524 OFFCURVE",
"527 578 CURVE SMOOTH",
"294 632 OFFCURVE",
"193 686 OFFCURVE",
"193 831 CURVE SMOOTH",
"193 932 OFFCURVE",
"282 1048 OFFCURVE",
"501 1048 CURVE SMOOTH",
"716 1048 OFFCURVE",
"833 928 OFFCURVE",
"833 793 CURVE",
"888 793 LINE",
"888 977 OFFCURVE",
"742 1102 OFFCURVE",
"501 1102 CURVE SMOOTH",
"276 1102 OFFCURVE",
"139 980 OFFCURVE",
"139 829 CURVE SMOOTH",
"139 657 OFFCURVE",
"246 590 OFFCURVE",
"509 531 CURVE SMOOTH",
"640 502 OFFCURVE",
"728 462 OFFCURVE",
"771 413 CURVE SMOOTH",
"814 363 OFFCURVE",
"835 314 OFFCURVE",
"835 265 CURVE SMOOTH"
);
}
);
width = 1019;
}
);
leftKerningGroup = s;
note = uni023F;
unicode = 023F;
},
{
glyphname = uni0240;
lastChange = "2017-04-17 15:01:56 +0000";
layers = (
{
layerId = "E48BBF63-6980-4D0E-B72F-9E9EC78D2D9A";
paths = (
{
closed = 1;
nodes = (
"87 44 LINE",
"87 0 LINE",
"316 0 LINE SMOOTH",
"448 0 OFFCURVE",
"508 -103 OFFCURVE",
"560 -218 CURVE SMOOTH",
"611 -334 OFFCURVE",
"667 -437 OFFCURVE",
"790 -437 CURVE SMOOTH",
"859 -437 OFFCURVE",
"925 -405 OFFCURVE",
"987 -341 CURVE",
"952 -299 LINE",
"901 -354 OFFCURVE",
"848 -382 OFFCURVE",
"791 -382 CURVE SMOOTH",
"698 -382 OFFCURVE",
"651 -281 OFFCURVE",
"598 -165 CURVE SMOOTH",
"545 -49 OFFCURVE",
"472 54 OFFCURVE",
"323 54 CURVE SMOOTH",
"160 54 LINE",
"871 1034 LINE",
"871 1082 LINE",
"118 1082 LINE",
"118 1027 LINE",
"798 1027 LINE"
);
}
);
width = 1001;
}
);
leftKerningGroup = z;
note = uni0240;
unicode = 0240;
},
{
glyphname = uni0241;
lastChange = "2017-04-17 15:01:56 +0000";
layers = (
{
layerId = "E48BBF63-6980-4D0E-B72F-9E9EC78D2D9A";
paths = (
{
closed = 1;
nodes = (
"469 353 LINE",
"738 362 OFFCURVE",
"893 583 OFFCURVE",
"893 894 CURVE SMOOTH",
"893 936 LINE SMOOTH",
"893 1253 OFFCURVE",
"732 1476 OFFCURVE",
"453 1476 CURVE SMOOTH",
"244 1476 OFFCURVE",
"61 1347 OFFCURVE",
"50 1099 CURVE",
"104 1099 LINE",
"115 1314 OFFCURVE",
"276 1422 OFFCURVE",
"453 1422 CURVE SMOOTH",
"718 1422 OFFCURVE",
"839 1205 OFFCURVE",
"839 936 CURVE SMOOTH",
"839 886 LINE SMOOTH",
"836 622 OFFCURVE",
"718 411 OFFCURVE",
"459 407 CURVE SMOOTH",
"415 407 LINE",
"415 0 LINE",
"469 0 LINE"
);
}
);
width = 1037;
}
);
note = uni0241;
unicode = 0241;
},
{
glyphname = uni0242;
lastChange = "2017-04-17 15:01:56 +0000";
layers = (
{
layerId = "E48BBF63-6980-4D0E-B72F-9E9EC78D2D9A";
paths = (
{
closed = 1;
nodes = (
"445 365 LINE",
"693 377 OFFCURVE",
"805 523 OFFCURVE",
"805 715 CURVE SMOOTH",
"805 943 OFFCURVE",
"672 1101 OFFCURVE",
"412 1101 CURVE SMOOTH",
"195 1101 OFFCURVE",
"30 948 OFFCURVE",
"30 700 CURVE",
"84 700 LINE",
"84 916 OFFCURVE",
"219 1047 OFFCURVE",
"412 1047 CURVE SMOOTH",
"677 1047 OFFCURVE",
"751 884 OFFCURVE",
"751 719 CURVE SMOOTH",
"751 546 OFFCURVE",
"674 417 OFFCURVE",
"411 416 CURVE SMOOTH",
"391 416 LINE",
"391 0 LINE",
"445 0 LINE"
);
}
);
width = 905;
}
);
note = uni0242;
unicode = 0242;
},
{
glyphname = uni0244;
lastChange = "2017-04-17 15:01:56 +0000";
layers = (
{
layerId = "E48BBF63-6980-4D0E-B72F-9E9EC78D2D9A";
paths = (
{
closed = 1;
nodes = (
"841 -20 OFFCURVE",
"932 2 OFFCURVE",
"1010 45 CURVE SMOOTH",
"1166 131 OFFCURVE",
"1235 268 OFFCURVE",
"1235 469 CURVE SMOOTH",
"1235 722 LINE",
"1435 722 LINE",
"1435 776 LINE",
"1235 776 LINE",
"1235 1456 LINE",
"1181 1456 LINE",
"1181 776 LINE",
"294 776 LINE",
"294 1456 LINE",
"240 1456 LINE",
"240 776 LINE",
"40 776 LINE",
"40 722 LINE",
"240 722 LINE",
"240 469 LINE SMOOTH",
"240 142 OFFCURVE",
"454 -20 OFFCURVE",
"738 -20 CURVE SMOOTH"
);
},
{
closed = 1;
nodes = (
"1181 722 LINE",
"1181 469 LINE SMOOTH",
"1181 188 OFFCURVE",
"990 34 OFFCURVE",
"738 34 CURVE SMOOTH",
"486 34 OFFCURVE",
"294 188 OFFCURVE",
"294 469 CURVE SMOOTH",
"294 722 LINE"
);
}
);
width = 1475;
}
);
note = uni0244;
unicode = 0244;
},
{
glyphname = uni0245;
lastChange = "2017-04-17 15:01:56 +0000";
layers = (
{
layerId = "E48BBF63-6980-4D0E-B72F-9E9EC78D2D9A";
paths = (
{
closed = 1;
nodes = (
"583 1314 LINE",
"612 1402 LINE",
"641 1314 LINE",
"1130 0 LINE",
"1189 0 LINE",
"645 1456 LINE",
"579 1456 LINE",
"35 0 LINE",
"94 0 LINE"
);
}
);
width = 1224;
}
);
leftKerningGroup = A;
note = uni0245;
rightKerningGroup = A;
unicode = 0245;
},
{
glyphname = uni0246;
lastChange = "2017-04-17 15:01:56 +0000";
layers = (
{
layerId = "E48BBF63-6980-4D0E-B72F-9E9EC78D2D9A";
paths = (
{
closed = 1;
nodes = (
"302 -125 LINE",
"361 -125 LINE",
"409 0 LINE",
"1086 0 LINE",
"1086 54 LINE",
"430 54 LINE",
"687 722 LINE",
"984 722 LINE",
"984 776 LINE",
"707 776 LINE",
"948 1402 LINE",
"1086 1402 LINE",
"1086 1456 LINE",
"969 1456 LINE",
"1017 1581 LINE",
"958 1581 LINE",
"910 1456 LINE",
"200 1456 LINE",
"200 0 LINE",
"350 0 LINE"
);
},
{
closed = 1;
nodes = (
"889 1402 LINE",
"648 776 LINE",
"254 776 LINE",
"254 1402 LINE"
);
},
{
closed = 1;
nodes = (
"628 722 LINE",
"371 54 LINE",
"254 54 LINE",
"254 722 LINE"
);
}
);
width = 1166;
}
);
note = uni0246;
unicode = 0246;
},
{
glyphname = uni0247;
lastChange = "2017-04-17 15:01:56 +0000";
layers = (
{
layerId = "E48BBF63-6980-4D0E-B72F-9E9EC78D2D9A";
paths = (
{
closed = 1;
nodes = (
"718 -20 OFFCURVE",
"838 38 OFFCURVE",
"920 155 CURVE",
"882 182 LINE",
"791 66 OFFCURVE",
"685 33 OFFCURVE",
"561 33 CURVE SMOOTH",
"489 33 OFFCURVE",
"422 52 OFFCURVE",
"361 89 CURVE",
"549 577 LINE",
"952 577 LINE",
"952 640 LINE SMOOTH",
"952 833 OFFCURVE",
"868 984 OFFCURVE",
"733 1056 CURVE",
"887 1456 LINE",
"828 1456 LINE",
"683 1078 LINE",
"638 1094 OFFCURVE",
"591 1102 OFFCURVE",
"541 1102 CURVE SMOOTH",
"292 1102 OFFCURVE",
"87 878 OFFCURVE",
"87 562 CURVE SMOOTH",
"87 518 LINE SMOOTH",
"87 322 OFFCURVE",
"169 161 OFFCURVE",
"294 68 CURVE",
"108 -416 LINE",
"167 -416 LINE",
"341 38 LINE",
"409 -1 OFFCURVE",
"482 -20 OFFCURVE",
"561 -20 CURVE SMOOTH"
);
},
{
closed = 1;
nodes = (
"584 1048 OFFCURVE",
"624 1041 OFFCURVE",
"663 1026 CURVE",
"511 631 LINE",
"145 631 LINE",
"169 867 OFFCURVE",
"322 1048 OFFCURVE",
"541 1048 CURVE SMOOTH"
);
},
{
closed = 1;
nodes = (
"570 631 LINE",
"713 1002 LINE",
"829 934 OFFCURVE",
"898 796 OFFCURVE",
"898 644 CURVE SMOOTH",
"898 631 LINE"
);
},
{
closed = 1;
nodes = (
"490 577 LINE",
"315 122 LINE",
"208 210 OFFCURVE",
"141 354 OFFCURVE",
"141 518 CURVE SMOOTH",
"141 577 LINE"
);
}
);
width = 1032;
}
);
note = uni0247;
unicode = 0247;
},
{
glyphname = uni024A;
lastChange = "2017-04-17 15:01:56 +0000";
layers = (
{
layerId = "E48BBF63-6980-4D0E-B72F-9E9EC78D2D9A";
paths = (
{
closed = 1;
nodes = (
"1070 1411 OFFCURVE",
"922 1476 OFFCURVE",
"705 1476 CURVE SMOOTH",
"373 1476 OFFCURVE",
"144 1215 OFFCURVE",
"144 835 CURVE SMOOTH",
"144 620 LINE SMOOTH",
"144 240 OFFCURVE",
"373 -21 OFFCURVE",
"705 -21 CURVE SMOOTH",
"921 -21 OFFCURVE",
"1069 43 OFFCURVE",
"1148 103 CURVE",
"1148 -89 LINE SMOOTH",
"1148 -314 OFFCURVE",
"1214 -437 OFFCURVE",
"1393 -437 CURVE SMOOTH",
"1428 -437 OFFCURVE",
"1465 -430 OFFCURVE",
"1505 -417 CURVE",
"1492 -365 LINE",
"1460 -377 OFFCURVE",
"1427 -383 OFFCURVE",
"1393 -383 CURVE SMOOTH",
"1245 -383 OFFCURVE",
"1202 -276 OFFCURVE",
"1202 -89 CURVE SMOOTH",
"1202 1456 LINE",
"1160 1456 LINE",
"1149 1351 LINE"
);
},
{
closed = 1;
nodes = (
"944 1422 OFFCURVE",
"1103 1333 OFFCURVE",
"1148 1274 CURVE",
"1148 181 LINE",
"1103 122 OFFCURVE",
"944 33 OFFCURVE",
"705 33 CURVE SMOOTH",
"397 33 OFFCURVE",
"198 277 OFFCURVE",
"198 620 CURVE SMOOTH",
"198 835 LINE SMOOTH",
"198 1178 OFFCURVE",
"397 1422 OFFCURVE",
"705 1422 CURVE SMOOTH"
);
}
);
width = 1498;
}
);
leftKerningGroup = C;
note = uni024A;
unicode = 024A;
},
{
glyphname = uni024B;
lastChange = "2017-04-17 15:01:56 +0000";
layers = (
{
layerId = "E48BBF63-6980-4D0E-B72F-9E9EC78D2D9A";
paths = (
{
closed = 1;
nodes = (
"828 1017 OFFCURVE",
"706 1102 OFFCURVE",
"530 1102 CURVE SMOOTH",
"273 1102 OFFCURVE",
"122 893 OFFCURVE",
"122 552 CURVE SMOOTH",
"122 518 LINE SMOOTH",
"126 197 OFFCURVE",
"275 -21 OFFCURVE",
"528 -21 CURVE SMOOTH",
"704 -21 OFFCURVE",
"829 59 OFFCURVE",
"897 168 CURVE",
"897 -89 LINE SMOOTH",
"897 -314 OFFCURVE",
"963 -437 OFFCURVE",
"1142 -437 CURVE SMOOTH",
"1177 -437 OFFCURVE",
"1214 -430 OFFCURVE",
"1254 -417 CURVE",
"1241 -365 LINE",
"1209 -377 OFFCURVE",
"1176 -383 OFFCURVE",
"1142 -383 CURVE SMOOTH",
"994 -383 OFFCURVE",
"951 -276 OFFCURVE",
"951 -89 CURVE SMOOTH",
"951 1082 LINE",
"897 1082 LINE",
"897 889 LINE"
);
},
{
closed = 1;
nodes = (
"179 841 OFFCURVE",
"292 1048 OFFCURVE",
"529 1048 CURVE SMOOTH",
"754 1048 OFFCURVE",
"856 898 OFFCURVE",
"897 775 CURVE",
"897 269 LINE",
"846 134 OFFCURVE",
"726 33 OFFCURVE",
"527 33 CURVE SMOOTH",
"291 33 OFFCURVE",
"178 243 OFFCURVE",
"178 531 CURVE SMOOTH",
"178 557 LINE SMOOTH"
);
}
);
width = 1224;
}
);
leftKerningGroup = c;
note = uni024B;
unicode = 024B;
},
{
glyphname = uni024C;
lastChange = "2017-04-17 15:01:56 +0000";
layers = (
{
layerId = "E48BBF63-6980-4D0E-B72F-9E9EC78D2D9A";
paths = (
{
closed = 1;
nodes = (
"1223 14 LINE",
"834 637 LINE",
"1017 670 OFFCURVE",
"1162 829 OFFCURVE",
"1162 1036 CURVE SMOOTH",
"1162 1307 OFFCURVE",
"961 1456 OFFCURVE",
"684 1456 CURVE SMOOTH",
"220 1456 LINE",
"220 677 LINE",
"20 677 LINE",
"20 623 LINE",
"220 623 LINE",
"220 0 LINE",
"274 0 LINE",
"274 623 LINE",
"779 623 LINE",
"1166 0 LINE",
"1223 0 LINE"
);
},
{
closed = 1;
nodes = (
"943 1402 OFFCURVE",
"1108 1265 OFFCURVE",
"1108 1036 CURVE SMOOTH",
"1108 855 OFFCURVE",
"982 677 OFFCURVE",
"733 677 CURVE SMOOTH",
"274 677 LINE",
"274 1402 LINE",
"684 1402 LINE SMOOTH"
);
}
);
width = 1333;
}
);
note = uni024C;
unicode = 024C;
},
{
glyphname = uni024E;
lastChange = "2017-04-17 15:01:56 +0000";
layers = (
{
layerId = "E48BBF63-6980-4D0E-B72F-9E9EC78D2D9A";
paths = (
{
closed = 1;
nodes = (
"1267 1054 LINE",
"1267 1108 LINE",
"1017 1108 LINE",
"1229 1456 LINE",
"1163 1456 LINE",
"955 1108 LINE",
"354 1108 LINE",
"149 1456 LINE",
"77 1456 LINE",
"289 1108 LINE",
"40 1108 LINE",
"40 1054 LINE",
"321 1054 LINE",
"626 553 LINE",
"626 0 LINE",
"680 0 LINE",
"680 553 LINE",
"985 1054 LINE"
);
},
{
closed = 1;
nodes = (
"923 1054 LINE",
"653 602 LINE",
"386 1054 LINE"
);
}
);
width = 1307;
}
);
leftKerningGroup = Y;
note = uni024E;
rightKerningGroup = Y;
unicode = 024E;
},
{
glyphname = uni024F;
lastChange = "2017-04-17 15:01:56 +0000";
layers = (
{
layerId = "E48BBF63-6980-4D0E-B72F-9E9EC78D2D9A";
paths = (
{
closed = 1;
nodes = (
"330 -429 OFFCURVE",
"402 -375 OFFCURVE",
"449 -274 CURVE SMOOTH",
"479 -206 LINE",
"782 588 LINE",
"1007 588 LINE",
"1007 642 LINE",
"802 642 LINE",
"970 1082 LINE",
"910 1082 LINE",
"742 642 LINE",
"305 642 LINE",
"128 1082 LINE",
"69 1082 LINE",
"245 642 LINE",
"40 642 LINE",
"40 588 LINE",
"267 588 LINE",
"500 6 LINE",
"435 -170 LINE SMOOTH",
"388 -295 OFFCURVE",
"329 -384 OFFCURVE",
"196 -384 CURVE SMOOTH",
"170 -384 OFFCURVE",
"146 -381 OFFCURVE",
"123 -375 CURVE",
"124 -426 LINE",
"141 -433 OFFCURVE",
"168 -437 OFFCURVE",
"204 -437 CURVE SMOOTH",
"235 -436 LINE"
);
},
{
closed = 1;
nodes = (
"326 588 LINE",
"721 588 LINE",
"536 104 LINE",
"529 84 LINE"
);
}
);
width = 1047;
}
);
note = uni024F;
unicode = 024F;
},
{
glyphname = uni0250;
lastChange = "2017-04-17 15:01:56 +0000";
layers = (
{
layerId = "E48BBF63-6980-4D0E-B72F-9E9EC78D2D9A";
paths = (
{
closed = 1;
nodes = (
"906 149 OFFCURVE",
"756 34 OFFCURVE",
"560 34 CURVE SMOOTH",
"349 34 OFFCURVE",
"230 140 OFFCURVE",
"230 320 CURVE SMOOTH",
"230 478 LINE",
"489 478 LINE SMOOTH",
"802 478 OFFCURVE",
"989 615 OFFCURVE",
"989 808 CURVE SMOOTH",
"989 980 OFFCURVE",
"859 1102 OFFCURVE",
"656 1102 CURVE SMOOTH",
"441 1102 OFFCURVE",
"302 1001 OFFCURVE",
"230 884 CURVE",
"230 964 OFFCURVE",
"223 1030 OFFCURVE",
"210 1082 CURVE",
"148 1082 LINE",
"148 1073 LINE",
"167 1029 OFFCURVE",
"176 953 OFFCURVE",
"176 844 CURVE SMOOTH",
"176 322 LINE SMOOTH",
"176 94 OFFCURVE",
"335 -20 OFFCURVE",
"560 -20 CURVE SMOOTH",
"793 -20 OFFCURVE",
"960 127 OFFCURVE",
"960 296 CURVE",
"906 298 LINE"
);
},
{
closed = 1;
nodes = (
"820 1049 OFFCURVE",
"935 943 OFFCURVE",
"935 812 CURVE SMOOTH",
"935 649 OFFCURVE",
"767 534 OFFCURVE",
"491 533 CURVE SMOOTH",
"230 533 LINE",
"230 790 LINE",
"302 949 OFFCURVE",
"447 1049 OFFCURVE",
"656 1049 CURVE SMOOTH"
);
}
);
width = 1081;
}
);
note = uni0250;
unicode = 0250;
},
{
glyphname = uni0251;
lastChange = "2017-04-17 15:01:56 +0000";
layers = (
{
layerId = "E48BBF63-6980-4D0E-B72F-9E9EC78D2D9A";
paths = (
{
closed = 1;
nodes = (
"1089 35 OFFCURVE",
"1068 32 OFFCURVE",
"1051 32 CURVE SMOOTH",
"1015 32 OFFCURVE",
"986 48 OFFCURVE",
"963 79 CURVE SMOOTH",
"940 110 OFFCURVE",
"928 169 OFFCURVE",
"928 255 CURVE SMOOTH",
"928 1082 LINE",
"880 1082 LINE",
"874 854 LINE",
"874 837 LINE",
"807 994 OFFCURVE",
"689 1102 OFFCURVE",
"508 1102 CURVE SMOOTH",
"251 1102 OFFCURVE",
"100 883 OFFCURVE",
"100 542 CURVE SMOOTH",
"100 521 LINE SMOOTH",
"100 192 OFFCURVE",
"250 -21 OFFCURVE",
"506 -21 CURVE SMOOTH",
"687 -21 OFFCURVE",
"811 81 OFFCURVE",
"875 217 CURVE",
"882 46 OFFCURVE",
"941 -21 OFFCURVE",
"1054 -21 CURVE SMOOTH",
"1084 -21 OFFCURVE",
"1108 -16 OFFCURVE",
"1127 -7 CURVE",
"1116 42 LINE"
);
},
{
closed = 1;
nodes = (
"156 829 OFFCURVE",
"268 1048 OFFCURVE",
"507 1048 CURVE SMOOTH",
"581 1048 OFFCURVE",
"643 1029 OFFCURVE",
"693 992 CURVE SMOOTH",
"792 917 OFFCURVE",
"847 798 OFFCURVE",
"874 695 CURVE",
"874 343 LINE",
"829 168 OFFCURVE",
"714 33 OFFCURVE",
"505 33 CURVE SMOOTH",
"269 33 OFFCURVE",
"156 233 OFFCURVE",
"156 521 CURVE SMOOTH",
"156 542 LINE SMOOTH"
);
}
);
width = 1157;
}
);
note = uni0251;
unicode = 0251;
},
